<?xml version="1.0" standalone="no"?>
<!DOCTYPE svg PUBLIC "-//W3C//DTD SVG 1.1//EN" "http://www.w3.org/Graphics/SVG/1.1/DTD/svg11.dtd" >
<svg>
<metadata>
Created by FontForge 20090914 at Mon Nov 20 09:55:59 2017
 By www-data
\251   m klein   8.03
</metadata>
<defs>
<font id="BabelSans" horiz-adv-x="435" >
  <font-face 
    font-family="BabelSans"
    font-weight="500"
    font-stretch="normal"
    units-per-em="1000"
    panose-1="2 0 6 6 2 0 0 2 0 4"
    ascent="800"
    descent="-200"
    x-height="530.999"
    cap-height="724"
    bbox="-187 -236 830 918"
    underline-thickness="20"
    underline-position="-123"
    unicode-range="U+0005-U+E010"
  />
<missing-glyph horiz-adv-x="1000" 
 />
    <glyph glyph-name=".notdef" horiz-adv-x="1000" 
 />
    <glyph glyph-name="breve" horiz-adv-x="260" 
d="M130 588c38.667 0 67.5029 12.999 86.5029 38.999s30.167 58 33.5 96h-59c-4 -24 -10.5 -41.667 -19.5 -53s-24.167 -17 -45.5 -17c-18.667 0 -32.5 6.16699 -41.5 18.5s-15.167 29.5 -18.5 51.5h-55c2 -19.333 5.66699 -37.166 11 -53.499s12.666 -30.5 21.999 -42.5
s21.166 -21.5 35.499 -28.5s31.166 -10.5 50.499 -10.5z" />
    <glyph glyph-name="dotaccent" horiz-adv-x="260" 
d="M82 592h96v108h-96v-108z" />
    <glyph glyph-name="ring" horiz-adv-x="260" 
d="M130 559c15.333 0 28.667 3 40 9s20.833 13.667 28.5 23s13.334 19.5 17.001 30.5s5.5 21.833 5.5 32.5s-2 21.5 -6 32.5s-9.66699 21.167 -17 30.5s-16.833 17 -28.5 23s-24.834 9 -39.501 9s-27.667 -3 -39 -9s-20.833 -13.5 -28.5 -22.5s-13.5 -19 -17.5 -30
s-6 -21.5 -6 -31.5c0 -10.667 1.83301 -21.667 5.5 -33s9.16699 -21.833 16.5 -31.5s16.833 -17.5 28.5 -23.5s25.167 -9 40.5 -9zM132.001 703c14 0 24.667 -5.5 32 -16.5s11 -22.167 11 -33.5c0 -10.667 -3.66699 -21.5 -11 -32.5s-18 -16.5 -32 -16.5
c-14.667 0 -25.5 5.66699 -32.5 17s-10.5 22.333 -10.5 33c0 11.333 3.5 22.333 10.5 33s17.833 16 32.5 16z" />
    <glyph glyph-name="hungarumlaut" unicode="&#xa;" horiz-adv-x="254" 
d="M220 592l78 136h-105l-48 -136h75zM84 593l79 135h-106l-46 -135h73z" />
    <glyph glyph-name="ogonek" horiz-adv-x="260" 
d="M154 -216c14.667 0 30.0039 3.16602 46.0039 9.49902s30.667 13.833 44 22.5v66c-15.333 -10 -28.5 -17.333 -39.5 -22s-21.833 -7 -32.5 -7c-15.333 0 -27 6.33301 -35 19s-12 27 -12 43c0 12.667 1.16699 25.334 3.5 38.001s6.16602 27.667 11.499 45h-61
c-4.66699 -19.333 -8.33398 -37.833 -11.001 -55.5s-4 -35.167 -4 -52.5c0 -13.333 1.83301 -26.333 5.5 -39s9.16699 -24 16.5 -34s16.666 -18 27.999 -24s24.666 -9 39.999 -9z" />
    <glyph glyph-name="caron" horiz-adv-x="260" 
d="M187 597l84 131h-92l-40 -79l-42 79h-91l78 -131h103z" />
    <glyph glyph-name="dotlessi" unicode="&#xd;" horiz-adv-x="217" 
d="M70 -8h81v539h-81v-539z" />
    <glyph glyph-name="fraction" horiz-adv-x="124" 
d="M-110 -20l423 756h-76l-424 -756h77z" />
    <glyph glyph-name="fi" horiz-adv-x="391" 
d="M263 624h81v99h-81v-99zM264 -8h80v539h-80v-539zM244 644l10 76c-14.667 6 -28.167 10.167 -40.5 12.5s-24.833 3.5 -37.5 3.5c-29.333 0 -51.666 -6.83301 -66.999 -20.5s-26.5 -30.834 -33.5 -51.501s-11 -43 -12 -67s-1.5 -46 -1.5 -66h-61v-68h61v-471h81v471h79v68
h-79c0 6 -0.166992 12 -0.5 18s-0.5 12.333 -0.5 19c0 10 0.5 20 1.5 30s3.33301 19 7 27s9.16699 14.667 16.5 20s17.666 8 30.999 8c6 0 12.333 -0.666992 19 -2s15.667 -3.66602 27 -6.99902z" />
    <glyph glyph-name="fl" horiz-adv-x="391" 
d="M263 -8h81v731h-81v-731zM241 643l12.999 77.001c-14.667 6 -28.167 10.167 -40.5 12.5s-24.833 3.5 -37.5 3.5c-29.333 0 -51.666 -6.83301 -66.999 -20.5s-26.5 -30.834 -33.5 -51.501s-11 -43 -12 -67s-1.5 -46 -1.5 -66h-61v-68h61v-471h81v471h79v68h-78
c0 5.33301 -0.166992 11.166 -0.5 17.499s-0.5 12.5 -0.5 18.5c0 10 0.333008 20 1 30s2.83398 19 6.50098 27s9.16699 14.667 16.5 20s17.666 8 30.999 8c5.33301 0 11.333 -0.666992 18 -2s15 -3.66602 25 -6.99902z" />
    <glyph glyph-name="Lslash" horiz-adv-x="601" 
d="M339 -8l233.001 -0.00195312v80l-133 -3c44.667 41.333 76.334 88.833 95.001 142.5s28 110.5 28 170.5c0 38 -4.16699 78 -12.5 120s-22.333 80.833 -42 116.5s-45.667 65.167 -78 88.5s-72.5 35 -120.5 35s-88.333 -11.5 -121 -34.5s-59 -52.167 -79 -87.5
s-34.333 -74 -43 -116s-13 -82.333 -13 -121c0 -60.667 9 -117.834 27 -171.501s50 -100.834 96 -141.501l-137 3v-81h236v99c-25.333 14.667 -46.5 33.334 -63.5 56.001s-30.5 47.334 -40.5 74.001s-17.167 54.334 -21.5 83.001s-6.5 56.667 -6.5 84
c0 28 2.5 57.833 7.5 89.5s13.667 61.167 26 88.5s29.166 50 50.499 68s48.333 27 81 27s59.667 -9.16699 81 -27.5s38.333 -41.333 51 -69s21.5 -57.5 26.5 -89.5s7.5 -62 7.5 -90s-2.33301 -56.167 -7 -84.5s-12.334 -55.666 -23.001 -81.999s-24.667 -50.833 -42 -73.5
s-38.333 -42 -63 -58v-95z" />
    <glyph glyph-name="lslash" horiz-adv-x="429" 
d="M374 450h63v77h-445v-77h61v-458h84v458h153v-458h84v458z" />
    <glyph glyph-name="Zcaron" horiz-adv-x="451" 
d="M319 -8h76.9971v539h-80v-239v-66c0 -26 -2.5 -51.333 -7.5 -76s-14.167 -45.667 -27.5 -63s-33 -26 -59 -26c-25.333 0 -44.166 9 -56.499 27s-20.833 39.5 -25.5 64.5s-7 50.5 -7 76.5v64v238h-79v-738h80v234c10.667 -14.667 22.834 -26.167 36.501 -34.5
s31.5 -12.5 53.5 -12.5c23.333 0 42.333 4.5 57 13.5s27.334 21.167 38.001 36.5v-38z" />
    <glyph glyph-name="zcaron" horiz-adv-x="432" 
d="M-19 705h470v65h-470v-65z" />
    <glyph glyph-name="space" unicode=" " horiz-adv-x="222" 
 />
    <glyph glyph-name="exclam" unicode="!" horiz-adv-x="217" 
d="M152 437c1.33301 23.333 2.66797 43.333 4.00098 60s2 36.667 2 60v167h-96v-167c0 -23.333 0.666992 -43.5 2 -60.5s2.66602 -36.833 3.99902 -59.5l14 -248h57zM64.002 -8h92v99h-92v-99z" />
    <glyph glyph-name="quotedbl" unicode="&#x22;" horiz-adv-x="278" 
d="M240 538l4 31c1.33301 10 2 19.333 2 28v127h-87v-125c0 -20 2 -41 6 -63l11 -63h54c1.33301 12 3 23.333 5 34s3.66699 21 5 31zM113 539l4 30.999c1.33301 10 2 19 2 27v127h-88v-125c0 -19.333 2.16699 -40.333 6.5 -63s7.83301 -43.667 10.5 -63h55
c1.33301 12 3 23.333 5 34s3.66699 21.334 5 32.001z" />
    <glyph glyph-name="numbersign" unicode="#" 
d="M314 189h118v82h-107l31 185h76v71h-65l34 209h-71l-33 -209h-109l32 209h-69l-33 -209h-118v-73h106l-30 -186h-76v-72h65l-35 -216h71l33 209h109l-33 -209h70zM176 453h109l-31 -184h-108z" />
    <glyph glyph-name="dollar" unicode="$" 
d="M243 -22c28 2.66699 51.999 11.168 71.999 25.501s36.5 31.833 49.5 52.5s22.667 43.5 29 68.5s9.5 49.5 9.5 73.5c0 38 -7.5 73.5 -22.5 106.5s-39.833 59.5 -74.5 79.5c-10 5.33301 -20.333 9.83301 -31 13.5l-32 10.5v261c20 -8 34.333 -21.667 43 -41
s14.667 -42.333 18 -69l82 14c-5.33301 46.667 -19.666 85.5 -42.999 116.5s-57.666 50.167 -102.999 57.5v34h-55v-34c-26.667 -4 -49.667 -12.167 -69 -24.5s-35.333 -27.5 -48 -45.5s-22 -38.333 -28 -61s-9 -47 -9 -73c0 -51.333 12.833 -94.833 38.5 -130.5
s63.5 -59.834 113.5 -72.501v-285c-14 3.33301 -25.833 9.83301 -35.5 19.5s-17.667 21.5 -24 35.5s-11.333 29.167 -15 45.5s-6.5 32.833 -8.5 49.5l-77 -18c2.66699 -57.333 16.167 -104 40.5 -140s64.166 -59.333 119.499 -70v-77h60v78zM184.999 673.001
l0.000976562 -245c-26 11.333 -45 26.833 -57 46.5s-18 45.167 -18 76.5c0 27.333 6.16699 52.5 18.5 75.5s31.166 38.5 56.499 46.5zM241 321.001c29.333 -14 50.165 -30.167 62.498 -48.5s18.5 -44.833 18.5 -79.5c0 -14 -1.66699 -28.5 -5 -43.5
s-8.16602 -29 -14.499 -42s-14.666 -24.333 -24.999 -34s-22.5 -16.5 -36.5 -20.5v268z" />
    <glyph glyph-name="percent" unicode="%" horiz-adv-x="695" 
d="M162 349c25.333 0 46.168 6.66504 62.501 19.998s29.333 29.833 39 49.5s16.334 40.667 20.001 63s5.5 42.5 5.5 60.5c0 18.667 -1.66699 39.334 -5 62.001s-9.83301 43.834 -19.5 63.501s-22.834 36 -39.501 49s-38 19.5 -64 19.5c-24.667 0 -45 -6.5 -61 -19.5
s-28.833 -29 -38.5 -48s-16.334 -39.5 -20.001 -61.5s-5.5 -42 -5.5 -60s1.66699 -38.5 5 -61.5s9.5 -44.5 18.5 -64.5s21.667 -37 38 -51s37.833 -21 64.5 -21zM227.002 -28.002l312 764h-69l-315 -764h72zM527.002 -34.002c26 0 47.333 6.5 64 19.5
s29.834 29.333 39.501 49s16.334 40.667 20.001 63s5.5 42.833 5.5 61.5s-1.83301 39.334 -5.5 62.001s-10.334 43.667 -20.001 63s-22.834 35.666 -39.501 48.999s-38 20 -64 20c-25.333 0 -46 -6.5 -62 -19.5s-28.667 -29 -38 -48s-15.833 -39.5 -19.5 -61.5
s-5.5 -42 -5.5 -60s1.66699 -38.5 5 -61.5s9.5 -44.5 18.5 -64.5s21.667 -37 38 -51s37.5 -21 63.5 -21zM163.002 670.998c14 0 24.6641 -4.83398 31.9971 -14.501s12.666 -21.167 15.999 -34.5s5.33301 -27.166 6 -41.499s1 -26.166 1 -35.499s-0.166992 -21.5 -0.5 -36.5
s-2.16602 -29.5 -5.49902 -43.5s-8.83301 -26.167 -16.5 -36.5s-18.5 -15.5 -32.5 -15.5c-13.333 0 -23.666 4.83301 -30.999 14.5s-12.666 21.167 -15.999 34.5s-5.16602 27 -5.49902 41s-0.5 25.667 -0.5 35s0.166992 21.5 0.5 36.5s2 29.667 5 44
s8.16699 26.666 15.5 36.999s18 15.5 32 15.5zM528.999 287.997c14 0 24.666 -4.83398 31.999 -14.501s12.666 -21.167 15.999 -34.5s5.33301 -27.166 6 -41.499s1 -26.166 1 -35.499c0 -10 -0.166992 -22.5 -0.5 -37.5s-2.16602 -29.5 -5.49902 -43.5
s-8.66602 -26 -15.999 -36s-18.333 -15 -33 -15c-13.333 0 -23.666 4.83301 -30.999 14.5s-12.666 21.167 -15.999 34.5s-5.33301 27 -6 41s-1 25.667 -1 35s0.166992 21.5 0.5 36.5s2.16602 29.667 5.49902 44s8.66602 26.666 15.999 36.999s18 15.5 32 15.5z" />
    <glyph glyph-name="ampersand" unicode="&#x26;" horiz-adv-x="521" 
d="M464 -21l47.999 73.998c-18.667 17.333 -35 34.833 -49 52.5s-26.667 36.167 -38 55.5c10.667 21.333 19.5 44.166 26.5 68.499s13.167 50.166 18.5 77.499l-80 21c-3.33301 -16 -6.33301 -29.833 -9 -41.5s-6 -23.167 -10 -34.5l-93 151
c29.333 20 53.833 44.333 73.5 73s29.5 62.334 29.5 101.001c0 19.333 -3 38.5 -9 57.5s-14.667 36 -26 51s-25.666 27.167 -42.999 36.5s-37 14 -59 14c-23.333 0 -43.833 -5.16699 -61.5 -15.5s-32.667 -23.666 -45 -39.999s-21.666 -34.666 -27.999 -54.999
s-9.5 -40.5 -9.5 -60.5c0 -30 6.16699 -57.667 18.5 -83s26.166 -49.666 41.499 -72.999c-38.667 -24 -70.334 -53.5 -95.001 -88.5s-37 -76.833 -37 -125.5c0 -27.333 4.16699 -53.833 12.5 -79.5s20.5 -48.5 36.5 -68.5s35.5 -36.167 58.5 -48.5s49.5 -18.5 79.5 -18.5
c36 0 67.333 9 94 27s49.667 40 69 66c11.333 -16 23.833 -31.833 37.5 -47.5s29.834 -31.167 48.501 -46.5zM240.999 662.998c10 0 18.667 -2.5 26 -7.5s13.5 -11.333 18.5 -19s8.66699 -16.5 11 -26.5s3.5 -20 3.5 -30c0 -26 -5.66699 -47.333 -17 -64
s-26.666 -33 -45.999 -49c-12 16.667 -24.333 35 -37 55s-19 40.667 -19 62c0 20 5.16699 38.167 15.5 54.5s25.166 24.5 44.499 24.5zM199.999 342.998l124.999 -194.001c-5.33301 -10.667 -12 -21.167 -20 -31.5s-16.833 -19.666 -26.5 -27.999s-20 -15 -31 -20
s-22.5 -7.5 -34.5 -7.5c-15.333 0 -29.166 4.33301 -41.499 13s-22.833 19.5 -31.5 32.5s-15.167 27.5 -19.5 43.5s-6.5 31.333 -6.5 46c0 32 8.5 59.5 25.5 82.5s37.167 44.167 60.5 63.5z" />
    <glyph glyph-name="quotesingle" unicode="'" horiz-adv-x="150" 
d="M111 539l3.99902 30.998c1.33301 10 2 19 2 27v127h-87v-128c0 -18 1.83301 -37.667 5.5 -59s6.83398 -42.666 9.50098 -63.999h56c1.33301 12 3 23.333 5 34s3.66699 21.334 5 32.001z" />
    <glyph glyph-name="parenleft" unicode="(" horiz-adv-x="260" 
d="M181 -218l63.002 -0.00292969c-38.667 78.667 -68.334 157.334 -89.001 236.001s-31 159 -31 241c0 44 2.5 85.5 7.5 124.5s12.5 77.5 22.5 115.5s22.167 76.333 36.5 115s31.166 79.334 50.499 122.001h-61c-44.667 -76 -79.167 -152.667 -103.5 -230
s-36.5 -159.666 -36.5 -246.999c0 -82.667 12 -165 36 -247s59 -158.667 105 -230z" />
    <glyph glyph-name="parenright" unicode=")" horiz-adv-x="260" 
d="M102 -218c44 72 77.999 148.834 101.999 230.501s36 163.834 36 246.501c0 86.667 -12.333 169 -37 247s-58.667 154.667 -102 230h-63c18.667 -42.667 35.334 -83.334 50.001 -122.001s27 -77 37 -115s17.667 -76.5 23 -115.5s8 -80.5 8 -124.5
c0 -82 -10.5 -162.333 -31.5 -241s-50.833 -157.334 -89.5 -236.001h67z" />
    <glyph glyph-name="asterisk" unicode="*" horiz-adv-x="304" 
d="M187 557c15.333 3.33301 30.499 7.33496 45.499 12.002s31.167 10.667 48.5 18l-17 67c-17.333 -7.33301 -32.833 -14.333 -46.5 -21s-27.167 -13.667 -40.5 -21c2 19.333 3.66699 39 5 59s2.33301 41.667 3 65h-68c0.666992 -23.333 1.5 -45 2.5 -65
s2.5 -39.667 4.5 -59c-13.333 7.33301 -27.166 14.333 -41.499 21l-45.5 21l-18 -67c18.667 -6.66699 35.5 -12.334 50.5 -17.001s30.167 -9 45.5 -13c-11.333 -14 -21.833 -28.333 -31.5 -43l-28.5 -45l51 -46c10 16.667 18.333 32.167 25 46.5l19 41.5l21 -43l25 -48
l54 49l-31.5 46.5c-9.66699 14.333 -20.167 28.166 -31.5 41.499z" />
    <glyph glyph-name="plus" unicode="+" horiz-adv-x="457" 
d="M267 312h154v82h-154v195h-77v-195h-154v-82h154v-196h77v196z" />
    <glyph glyph-name="comma" unicode="," horiz-adv-x="217" 
d="M79 -148c15.333 8 27.833 17.333 37.5 28s17.167 22 22.5 34s9 24.5 11 37.5s3 26.5 3 40.5v99h-89v-99h40c-1.33301 -19.333 -4.83301 -37.5 -10.5 -54.5s-18.167 -30.833 -37.5 -41.5z" />
    <glyph glyph-name="hyphen" unicode="-" horiz-adv-x="260" 
d="M-7 269h225v88h-225v-88z" />
    <glyph glyph-name="period" unicode="." horiz-adv-x="217" 
d="M65 -8h90v99h-90v-99z" />
    <glyph glyph-name="slash" unicode="/" horiz-adv-x="216" 
d="M59 -20l167 756h-68l-168 -756h69z" />
    <glyph glyph-name="zero" unicode="0" 
d="M215 -20c30 0 55.499 6.49902 76.499 19.499s38.5 30 52.5 51s25 45 33 72s14.167 54.333 18.5 82s7 54.5 8 80.5s1.5 48.667 1.5 68s-0.5 42 -1.5 68s-3.66699 53 -8 81s-10.666 55.333 -18.999 82s-19.5 50.667 -33.5 72s-31.333 38.5 -52 51.5s-46 19.5 -76 19.5
s-55.5 -6.5 -76.5 -19.5s-38.5 -30 -52.5 -51s-25 -45 -33 -72s-14.167 -54.333 -18.5 -82s-7 -54.667 -8 -81s-1.5 -49.166 -1.5 -68.499s0.5 -42 1.5 -68s3.5 -52.833 7.5 -80.5s10.167 -55 18.5 -82s19.5 -51 33.5 -72s31.5 -38 52.5 -51s46.5 -19.5 76.5 -19.5z
M321.999 432.999c1.33301 -16.667 1.83301 -31.833 1.5 -45.5s-0.5 -25.167 -0.5 -34.5c0 -12.667 -0.166992 -28.834 -0.5 -48.501s-1.33301 -40.667 -3 -63s-4.66699 -44.666 -9 -66.999s-10.5 -42.5 -18.5 -60.5s-18.333 -32.667 -31 -44s-28 -17 -46 -17
c-18.667 0 -34.167 5.66699 -46.5 17s-22.5 26 -30.5 44s-14 38.167 -18 60.5s-6.83301 44.666 -8.5 66.999s-2.66699 43.333 -3 63s-0.5 35.834 -0.5 48.501s0.166992 28.834 0.5 48.501s1.33301 40.5 3 62.5s4.66699 44.167 9 66.5s10.333 42.5 18 60.5
s17.667 32.667 30 44s27.5 17 45.5 17c22.667 0 41 -8.33301 55 -25s24.667 -36.667 32 -60s12.5 -47.333 15.5 -72s4.83301 -45.334 5.5 -62.001z" />
    <glyph glyph-name="one" unicode="1" 
d="M214 -8l84 0.000976562v735h-55c-14.667 -38.667 -37 -74.167 -67 -106.5s-62.667 -59.166 -98 -80.499v-90c26 11.333 50.833 25.166 74.5 41.499s44.167 33.166 61.5 50.499v-550z" />
    <glyph glyph-name="two" unicode="2" 
d="M14 -8l389 -0.000976562v87h-277c13.333 24 29.333 46.167 48 66.5l56 60.5l61 67.5c20.667 23 39.167 47.167 55.5 72.5s29.666 52 39.999 80s15.5 58 15.5 90c0 26.667 -3.83301 52.667 -11.5 78s-19 47.833 -34 67.5s-33.833 35.5 -56.5 47.5s-49 18 -79 18
c-31.333 0 -58.5 -5.33301 -81.5 -16s-42 -25.5 -57 -44.5s-26.333 -41.333 -34 -67s-12.5 -53.5 -14.5 -83.5l80 -10c0 20 1.83301 38.833 5.5 56.5s9.83398 33.167 18.501 46.5s19.5 24 32.5 32s29.167 12 48.5 12c16 0 30.167 -3.16699 42.5 -9.5s22.833 -15 31.5 -26
s15.167 -23.667 19.5 -38s6.5 -29.5 6.5 -45.5c0 -31.333 -7.5 -61 -22.5 -89s-33.833 -55.667 -56.5 -83s-47.167 -54.666 -73.5 -81.999s-50.833 -55.833 -73.5 -85.5s-41.5 -61.167 -56.5 -94.5s-22.5 -69.333 -22.5 -108z" />
    <glyph glyph-name="three" unicode="3" 
d="M211 -21c31.333 0 59.001 6.66406 83.001 19.9971s44.167 30.833 60.5 52.5s28.666 46.167 36.999 73.5s12.5 55 12.5 83c0 17.333 -1.5 34.833 -4.5 52.5s-8.16699 34.5 -15.5 50.5s-17 30.333 -29 43s-27 22.667 -45 30c23.333 17.333 40.5 38.833 51.5 64.5
s16.5 52.5 16.5 80.5c0 24 -3.66699 47.833 -11 71.5s-18.166 44.834 -32.499 63.501s-32 33.834 -53 45.501s-45.167 17.5 -72.5 17.5c-26.667 0 -50 -4.83301 -70 -14.5s-37 -22.834 -51 -39.501s-25.333 -36 -34 -58s-15 -45.333 -19 -70l78 -18
c2 16.667 5.16699 32.5 9.5 47.5s10.333 28.333 18 40s17 20.834 28 27.501s24.5 10 40.5 10c14.667 0 27.334 -3.33301 38.001 -10s19.5 -15.334 26.5 -26.001s12.333 -22.667 16 -36s5.5 -27 5.5 -41c0 -38 -10.167 -68 -30.5 -90s-51.833 -33 -94.5 -33l-2 -76
c11.333 1.33301 21 2.33301 29 3s15.667 1 23 1c17.333 0 32.5 -4.16699 45.5 -12.5s23.667 -19.333 32 -33s14.5 -28.834 18.5 -45.501s6 -33 6 -49c0 -17.333 -2.33301 -34.833 -7 -52.5s-11.667 -33.667 -21 -48s-20.833 -26.166 -34.5 -35.499s-29.834 -14 -48.501 -14
c-17.333 0 -32 3.83301 -44 11.5s-22 18 -30 31s-14.333 27.667 -19 44s-8.33398 33.5 -11.001 51.5l-80 -12c2 -27.333 7.5 -53.166 16.5 -77.499s21.167 -45.666 36.5 -63.999s34 -32.833 56 -43.5s47 -16 75 -16z" />
    <glyph glyph-name="four" unicode="4" 
d="M328 172h76v80h-76v472h-64l-262 -470v-82h246v-180h80v180zM246 545v-291h-160z" />
    <glyph glyph-name="five" unicode="5" 
d="M212 -20c34.667 0 64.3311 8.17188 88.998 24.5049s45 37 61 62s27.833 52.833 35.5 83.5s11.5 60 11.5 88c0 26 -3.5 53 -10.5 81s-18 53.5 -33 76.5s-34 42 -57 57s-50.5 22.5 -82.5 22.5c-17.333 0 -34 -2.83301 -50 -8.5s-31 -13.167 -45 -22.5l29 188h224v82h-289
l-57 -374l76 -13c11.333 21.333 25.5 38 42.5 50s35.833 18 56.5 18s38.334 -5 53.001 -15s26.334 -22.833 35.001 -38.5s15 -33.334 19 -53.001s6 -38.834 6 -57.501s-2 -38.334 -6 -59.001s-10.5 -39.834 -19.5 -57.501s-20.833 -32.167 -35.5 -43.5
s-32.334 -17 -53.001 -17c-16.667 0 -31 3.66699 -43 11s-22 17.333 -30 30s-14.5 27.167 -19.5 43.5s-8.5 33.166 -10.5 50.499l-82 -9c2 -28 7.33301 -54.167 16 -78.5s20.834 -45.5 36.501 -63.5s34.5 -32.167 56.5 -42.5s47.333 -15.5 76 -15.5z" />
    <glyph glyph-name="six" unicode="6" 
d="M224 -20c32.667 0 60.6631 8.00684 83.9961 24.0068s42.166 36.167 56.499 60.5s24.833 51.166 31.5 80.499s10 57 10 83c0 24.667 -3.16699 50.834 -9.5 78.501s-16.5 53.167 -30.5 76.5s-32 42.833 -54 58.5s-48.667 23.5 -80 23.5
c-27.333 0 -51.666 -6.5 -72.999 -19.5s-39.666 -29.833 -54.999 -50.5c0.666992 22.667 2.66699 48.834 6 78.501s9.33301 57.667 18 84s20.834 48.666 36.501 66.999s36.167 27.5 61.5 27.5c14 0 26 -3 36 -9s18.5 -14.333 25.5 -25s12.5 -22.834 16.5 -36.501
s7.33301 -27.834 10 -42.501l80 8c-2.66699 24.667 -8 48 -16 70s-18.667 41.167 -32 57.5s-29.833 29.166 -49.5 38.499s-42.5 14 -68.5 14c-32 0 -59.167 -6.83301 -81.5 -20.5s-41.166 -31.5 -56.499 -53.5s-27.5 -47 -36.5 -75s-15.833 -56.5 -20.5 -85.5
s-7.66699 -57.333 -9 -85s-2 -51.834 -2 -72.501s0.833008 -43.834 2.5 -69.501s4.83398 -51.667 9.50098 -78s11.5 -51.833 20.5 -76.5s21 -46.834 36 -66.501s33.5 -35.334 55.5 -47.001s48 -17.5 78 -17.5zM220.996 385.007c20 0 36.668 -5.16211 50.001 -15.4951
s24 -23.5 32 -39.5s13.667 -33.5 17 -52.5s5 -37.167 5 -54.5s-1.66699 -35.833 -5 -55.5s-9 -37.834 -17 -54.501s-18.5 -30.667 -31.5 -42s-28.833 -17 -47.5 -17c-20 0 -37 5.66699 -51 17s-25.5 25.666 -34.5 42.999s-15.5 36.166 -19.5 56.499s-6 39.5 -6 57.5
c0 17.333 2 35.166 6 53.499s10.5 35.166 19.5 50.499s20.167 28 33.5 38s29.666 15 48.999 15z" />
    <glyph glyph-name="seven" unicode="7" 
d="M191 -8c2.66699 53.333 9.50098 109 20.501 167s25.833 115.333 44.5 172s40.5 111.167 65.5 163.5s52.833 99.5 83.5 141.5v79h-374v-84h275c-28 -42 -54 -89.333 -78 -142s-44.667 -107.167 -62 -163.5s-30.833 -113 -40.5 -170s-14.834 -111.5 -15.501 -163.5h81z" />
    <glyph glyph-name="eight" unicode="8" 
d="M216 -20c31.333 0 58.833 6.50098 82.5 19.501s43.334 30 59.001 51s27.5 44.833 35.5 71.5s12 54 12 82c0 38.667 -7.5 74.5 -22.5 107.5s-40.167 58.5 -75.5 76.5c26.667 15.333 46 35.333 58 60s18 52.334 18 83.001c0 24.667 -3.5 48.667 -10.5 72
s-17.5 44.166 -31.5 62.499s-31.5 33.166 -52.5 44.499s-45.5 17 -73.5 17c-27.333 0 -51.333 -5.5 -72 -16.5s-37.834 -25.5 -51.501 -43.5s-24 -38.667 -31 -62s-10.5 -47 -10.5 -71c0 -31.333 6 -59.5 18 -84.5s31.333 -45.167 58 -60.5c-18 -8 -33.333 -18.5 -46 -31.5
s-23 -27.5 -31 -43.5s-13.667 -33.167 -17 -51.5s-5 -36.833 -5 -55.5c0 -28 3.83301 -55.5 11.5 -82.5s19.167 -51.333 34.5 -73s35 -39 59 -52s52 -19.5 84 -19.5zM216 652.001c14.667 0 27.332 -3.49902 37.999 -10.499s19.667 -16 27 -27s12.833 -23.5 16.5 -37.5
s5.5 -27.667 5.5 -41c0 -14 -1.83301 -27.667 -5.5 -41s-9.16699 -25.166 -16.5 -35.499s-16.333 -18.833 -27 -25.5s-23 -10 -37 -10c-15.333 0 -28.333 3.5 -39 10.5s-19.667 16 -27 27s-12.666 23.5 -15.999 37.5s-5 28 -5 42c0 13.333 1.83301 26.666 5.5 39.999
s9.16699 25.166 16.5 35.499s16.333 18.833 27 25.5s23 10 37 10zM213.998 347.002c18.667 0 35.001 -4.5 49.001 -13.5s25.5 -20.5 34.5 -34.5s15.833 -29.833 20.5 -47.5s7 -35.167 7 -52.5s-2.16699 -34.666 -6.5 -51.999s-11 -32.833 -20 -46.5
s-20.333 -24.834 -34 -33.501s-29.834 -13 -48.501 -13s-34.834 4.5 -48.501 13.5s-25 20.5 -34 34.5s-15.667 29.833 -20 47.5s-6.5 35.167 -6.5 52.5c0 16.667 2.16699 33.667 6.5 51s10.833 33 19.5 47s19.834 25.333 33.501 34s29.5 13 47.5 13z" />
    <glyph glyph-name="nine" unicode="9" 
d="M201 -20c32 0 59.3271 6.83594 81.9941 20.5029s41.667 31.5 57 53.5s27.333 47 36 75s15.334 56.5 20.001 85.5s7.66699 57.333 9 85s2 52.167 2 73.5c0 25.333 -0.666992 52.5 -2 81.5s-5.16602 57.667 -11.499 86s-15.833 55.166 -28.5 80.499s-30 47.333 -52 66
c-15.333 12.667 -31.666 22.5 -48.999 29.5s-36 10.5 -56 10.5c-33.333 0 -61.5 -7.83301 -84.5 -23.5s-41.833 -35.5 -56.5 -59.5s-25.167 -50.5 -31.5 -79.5s-9.5 -56.833 -9.5 -83.5c0 -25.333 3.16699 -51.833 9.5 -79.5s16.333 -53.334 30 -77.001
s31.5 -43.167 53.5 -58.5s49 -23 81 -23c26 0 49.833 6.66699 71.5 20s39.834 29.666 54.501 48.999c-0.666992 -23.333 -2.66699 -49.833 -6 -79.5s-9.5 -57.667 -18.5 -84s-21.5 -48.5 -37.5 -66.5s-37 -27 -63 -27c-14.667 0 -27 2.83301 -37 8.5s-18.333 13.5 -25 23.5
s-12 21.833 -16 35.5s-7 28.5 -9 44.5l-78 -9c2.66699 -25.333 7.83398 -48.833 15.501 -70.5s18.334 -40.5 32.001 -56.5s30.167 -28.5 49.5 -37.5s42 -13.5 68 -13.5zM216.994 653.003c18.667 0 34.6641 -5.49902 47.9971 -16.499s24 -25 32 -42s13.833 -35.333 17.5 -55
s5.5 -37.834 5.5 -54.501c0 -18 -1.66699 -36.5 -5 -55.5s-9.16602 -36.5 -17.499 -52.5s-19.166 -29.167 -32.499 -39.5s-30 -15.5 -50 -15.5c-19.333 0 -35.666 4.83301 -48.999 14.5s-24.5 22 -33.5 37s-15.5 31.833 -19.5 50.5s-6 36.667 -6 54s2 36.166 6 56.499
s10.5 39.333 19.5 57s20.333 32.334 34 44.001s30.5 17.5 50.5 17.5z" />
    <glyph glyph-name="colon" unicode=":" horiz-adv-x="217" 
d="M65 427h89v100h-89v-100zM65 -8h89v99h-89v-99z" />
    <glyph glyph-name="semicolon" unicode=";" horiz-adv-x="217" 
d="M64 427h90v100h-90v-100zM79 -148c15.333 8 27.8311 17.333 37.498 28s17.167 22 22.5 34s9 24.5 11 37.5s3 26.5 3 40.5v99h-89v-99h39c-1.33301 -19.333 -4.66602 -37.5 -9.99902 -54.5s-17.666 -30.833 -36.999 -41.5z" />
    <glyph glyph-name="less" unicode="&#x3c;" horiz-adv-x="457" 
d="M36 318l385 -207v86l-300 156l297 153v89l-382 -203v-74z" />
    <glyph glyph-name="equal" unicode="=" horiz-adv-x="457" 
d="M36 421h385v82h-385v-82zM36 204h385v81h-385v-81z" />
    <glyph glyph-name="greater" unicode="&#x3e;" horiz-adv-x="457" 
d="M37 110l383 206v76l-383 203v-87l299 -155l-299 -156v-87z" />
    <glyph glyph-name="question" unicode="?" 
d="M315 353c24.667 27.333 45.0029 55.0029 61.0029 83.0029s24 61.667 24 101c0 26.667 -4.16699 52.167 -12.5 76.5s-20.5 45.5 -36.5 63.5s-35.5 32.333 -58.5 43s-48.833 16 -77.5 16c-30.667 0 -57 -5.33301 -79 -16s-40.5 -25.334 -55.5 -44.001
s-26.833 -40.5 -35.5 -65.5s-14.334 -51.833 -17.001 -80.5l82 -12c2 18.667 5.33301 36.5 10 53.5s11.167 32.167 19.5 45.5s18.833 24 31.5 32s28 12 46 12c16 0 30.167 -3.83301 42.5 -11.5s23 -17.834 32 -30.501s15.833 -26.667 20.5 -42s7 -30.333 7 -45
c0 -18 -3.33301 -34.5 -10 -49.5s-15 -29.333 -25 -43s-20.667 -27 -32 -40s-22 -25.833 -32 -38.5c-11.333 -15.333 -20 -29.5 -26 -42.5s-10.5 -26.167 -13.5 -39.5s-4.83301 -27.333 -5.5 -42s-1 -31.334 -1 -50.001h79c0 24 0.666992 43.167 2 57.5
s4.16602 27 8.49902 38s10.666 21.667 18.999 32zM169.003 -7.99707h89v99h-89v-99z" />
    <glyph glyph-name="at" unicode="@" horiz-adv-x="795" 
d="M679 92c26.667 38 46.501 78.668 59.501 122.001s19.5 88 19.5 134c0 49.333 -7.33301 97.333 -22 144s-36.167 88.167 -64.5 124.5s-63.333 65.5 -105 87.5s-89.834 33 -144.501 33c-46 0 -87.333 -7.16699 -124 -21.5s-69.334 -33.833 -98.001 -58.5
s-53.5 -53.667 -74.5 -87s-38.333 -68.833 -52 -106.5s-23.667 -76.5 -30 -116.5s-9.5 -79.333 -9.5 -118c0 -62 7.83301 -120.167 23.5 -174.5s40 -101.833 73 -142.5s75 -72.5 126 -95.5s111.5 -34.5 181.5 -34.5c-1.33301 10 -2 23 -2 39s1 28.333 3 37
c-59.333 0 -110.166 9.83301 -152.499 29.5s-77.166 46.5 -104.499 80.5s-47.333 74 -60 120s-19 95.667 -19 149c0 48 6.16699 97.333 18.5 148s31.333 96.5 57 137.5s58.334 74.667 98.001 101s87.167 39.5 142.5 39.5c42.667 0 80.834 -8.83301 114.501 -26.5
s62 -41.334 85 -71.001s40.667 -63.334 53 -101.001s18.5 -76.5 18.5 -116.5c0 -22 -2 -44.5 -6 -67.5s-10 -45.333 -18 -67s-18 -42.167 -30 -61.5s-26 -36.333 -42 -51l-23 -18.5c-8.66699 -7 -17.667 -10.5 -27 -10.5c-5.33301 0 -9.83301 3.16699 -13.5 9.5
s-5.5 13.5 -5.5 21.5c0 15.333 1.5 30.166 4.5 44.499s5.83301 29.166 8.5 44.499l54 331h-79l-10 -60c-12 19.333 -27.5 36.5 -46.5 51.5s-41.167 22.5 -66.5 22.5c-35.333 0 -66 -11.667 -92 -35s-47.667 -51.666 -65 -84.999s-30.333 -68.166 -39 -104.499
s-13 -67.833 -13 -94.5c0 -20 2.5 -43.167 7.5 -69.5s13.333 -51.166 25 -74.499s27 -43 46 -59s42.167 -24 69.5 -24c23.333 0 44.666 6.83301 63.999 20.5s35.666 29.167 48.999 46.5c3.33301 -20 10.833 -36.333 22.5 -49s30.5 -19 56.5 -19c17.333 0 33.666 3 48.999 9
s29.5 13.833 42.5 23.5s25 20.5 36 32.5s21.167 24.333 30.5 37zM393.001 463.001c16 0 29.167 -4.66797 39.5 -14.001s18.833 -21 25.5 -35s11.334 -29.333 14.001 -46s4 -32.334 4 -47.001c0 -19.333 -1.83301 -40.666 -5.5 -63.999s-9.16699 -46.166 -16.5 -68.499
s-17 -43 -29 -62s-26 -33.833 -42 -44.5c-7.33301 -4.66699 -14.5 -8.5 -21.5 -11.5s-14.167 -4.5 -21.5 -4.5c-16 0 -28.833 5.16699 -38.5 15.5s-17.334 23 -23.001 38s-9.5 30.5 -11.5 46.5s-3 30 -3 42c0 19.333 2.5 43.5 7.5 72.5s12.833 57 23.5 84
s24.167 50.167 40.5 69.5s35.5 29 57.5 29z" />
    <glyph glyph-name="A" unicode="A" horiz-adv-x="524" 
d="M437 -8h99l-237 732h-88l-222 -732h93l62 219h227zM254 600c13.333 -51.333 27.667 -102.333 43 -153l46 -152h-173l46 151.5c15.333 50.333 28 101.5 38 153.5z" />
    <glyph glyph-name="B" unicode="B" horiz-adv-x="521" 
d="M270 -8c70 0 124.501 17.833 163.501 53.5s58.5 89.5 58.5 161.5c0 36.667 -8.33301 71 -25 103s-42 56 -76 72c23.333 18 40.666 40.167 51.999 66.5s17 54.166 17 83.499c0 60.667 -17.333 107.834 -52 141.501s-81.667 50.5 -141 50.5h-218v-732h221zM243.001 639
c22 0 41.334 -1.5 58.001 -4.5s30.5 -8.5 41.5 -16.5s19.333 -19.5 25 -34.5s8.5 -34.5 8.5 -58.5c0 -22 -2.5 -40 -7.5 -54s-12.667 -25 -23 -33s-23.333 -13.667 -39 -17s-33.834 -5 -54.501 -5h-117v223h108zM260.002 330c45.333 0 80.667 -9.33301 106 -28
s38 -51.667 38 -99c0 -46 -11.167 -78.667 -33.5 -98s-55.5 -29 -99.5 -29h-136v254h125z" />
    <glyph glyph-name="C" unicode="C" horiz-adv-x="565" 
d="M302 -20c36 0 67.668 6.83594 95.001 20.5029s50.666 31.834 69.999 54.501s35.166 48.834 47.499 78.501s21.833 60.834 28.5 93.501l-83 27c-4.66699 -25.333 -11 -49.333 -19 -72s-18.5 -42.834 -31.5 -60.501s-28.833 -31.667 -47.5 -42s-40.334 -15.5 -65.001 -15.5
c-37.333 0 -67.5 9.83301 -90.5 29.5s-41 44.5 -54 74.5s-21.833 62.5 -26.5 97.5s-7 67.833 -7 98.5s2.5 63 7.5 97s14.167 65.333 27.5 94s31.666 52.167 54.999 70.5s53.333 27.5 90 27.5c21.333 0 39.833 -3.66699 55.5 -11s29.334 -17.5 41.001 -30.5
s21.334 -28.5 29.001 -46.5s14.167 -37.667 19.5 -59l85 23c-8 30 -18.5 57.667 -31.5 83s-29 47.166 -48 65.499s-40.833 32.666 -65.5 42.999s-52.667 15.5 -84 15.5c-51.333 0 -94 -11.833 -128 -35.5s-61.5 -53.834 -82.5 -90.501s-35.833 -76.834 -44.5 -120.501
s-13 -85.834 -13 -126.501c0 -42.667 4 -86.5 12 -131.5s22.333 -86.167 43 -123.5s48.334 -68 83.001 -92s78.667 -36 132 -36z" />
    <glyph glyph-name="D" unicode="D" horiz-adv-x="565" 
d="M424 42c21.333 18 38.833 40.165 52.5 66.498s24.5 54 32.5 83s13.667 58.333 17 88s5 57.167 5 82.5c0 30.667 -2.33301 64.334 -7 101.001s-13.5 71.667 -26.5 105s-31 63.333 -54 90s-52.5 45.334 -88.5 56.001c-16 5.33301 -33 8.33301 -51 9s-35 1 -51 1h-200v-732
h210c28 0 56.167 3.5 84.5 10.5s53.833 20.167 76.5 39.5zM347 623.998c20.667 -10.667 37.5049 -26.166 50.5049 -46.499s23 -42.666 30 -66.999s11.667 -49.5 14 -75.5s3.5 -50 3.5 -72c0 -23.333 -1.16699 -48.833 -3.5 -76.5s-7.33301 -54.334 -15 -80.001
s-18.334 -49 -32.001 -70s-31.834 -36.5 -54.501 -46.5c-13.333 -5.33301 -27.333 -8.83301 -42 -10.5s-29.334 -2.5 -44.001 -2.5h-114v562h112c15.333 0 31.666 -0.833008 48.999 -2.5s32.666 -5.83398 45.999 -12.501z" />
    <glyph glyph-name="E" unicode="E" horiz-adv-x="521" 
d="M54 -8h433v84h-347v252h289v84h-289v228h334v84h-420v-732z" />
    <glyph glyph-name="F" unicode="F" horiz-adv-x="478" 
d="M143 640h307v84h-393v-732h86v333h265v84h-265v231z" />
    <glyph glyph-name="G" unicode="G" horiz-adv-x="608" 
d="M559 89l9 -0.00195312v275l-253 -1v-82h167v-142c-18.667 -20.667 -42.834 -37.5 -72.501 -50.5s-58.5 -19.5 -86.5 -19.5c-39.333 0 -72 8.83301 -98 26.5s-46.667 40.5 -62 68.5s-26.166 59.167 -32.499 93.5s-9.5 68.5 -9.5 102.5s3.16699 68.333 9.5 103
s17.166 66 32.499 94s35.833 50.833 61.5 68.5s58.167 26.5 97.5 26.5c24.667 0 45.834 -4 63.501 -12s32.834 -19.333 45.501 -34s23 -32.167 31 -52.5s15 -42.833 21 -67.5l76 26c-6.66699 33.333 -16.167 63.833 -28.5 91.5s-28 51.334 -47 71.001
s-41.833 34.834 -68.5 45.501s-58 16 -94 16c-53.333 0 -98.333 -11.5 -135 -34.5s-66.334 -52.833 -89.001 -89.5s-38.834 -77.667 -48.501 -123s-14.5 -90.333 -14.5 -135s5.33301 -89.334 16 -134.001s27.834 -84.667 51.501 -120s54 -64.166 91 -86.499
s82.167 -33.5 135.5 -33.5c28 0 55 4.83301 81 14.5s50.667 21.5 74 35.5v-38h84v105z" />
    <glyph glyph-name="H" unicode="H" horiz-adv-x="565" 
d="M424 -8h86v732h-86v-302h-283v302h-86v-732h86v346h283v-346z" />
    <glyph glyph-name="I" unicode="I" horiz-adv-x="217" 
d="M67 -8h86v732h-86v-732z" />
    <glyph glyph-name="J" unicode="J" horiz-adv-x="391" 
d="M172 -20c36.667 0 65.833 8 87.5 24s38.334 36.167 50.001 60.5s19.167 51.166 22.5 80.499s5 57 5 83v496h-86v-514c0 -14.667 -0.333008 -30.5 -1 -47.5s-3.5 -32.667 -8.5 -47s-12.833 -26.333 -23.5 -36s-26 -14.5 -46 -14.5c-17.333 0 -31 4 -41 12
s-17.667 18.667 -23 32s-8.83301 28.5 -10.5 45.5s-2.83398 34.167 -3.50098 51.5l-79 -13v-14c0 -25.333 2.5 -50 7.5 -74s13.5 -45.167 25.5 -63.5s28 -33.166 48 -44.499s45.333 -17 76 -17z" />
    <glyph glyph-name="K" unicode="K" horiz-adv-x="521" 
d="M423 -8h111l-249 433l234 299h-98l-285 -355v355h-86v-732h88v254l87 102z" />
    <glyph glyph-name="L" unicode="L" 
d="M50 -8h365v84h-279v648h-86v-732z" />
    <glyph glyph-name="M" unicode="M" horiz-adv-x="651" 
d="M513 -8h88v732h-111l-27 -98.5l-31 -110l-31.5 -112l-29.5 -105l-25 -88.5l-18 -62l-17 62.5l-24.5 88.5l-28.5 105l-30 112l-29.5 110l-26.5 98h-123v-732h86v558l150 -558h81l147 538v-538z" />
    <glyph glyph-name="N" unicode="N" horiz-adv-x="565" 
d="M423 -8h86v732h-84v-544l-288 544h-85v-732h84v544z" />
    <glyph glyph-name="O" unicode="O" horiz-adv-x="608" 
d="M305 -20c34 0 64.499 5.50293 91.499 16.5029s50.667 26 71 45s37.833 40.833 52.5 65.5s26.5 51 35.5 79s15.667 56.667 20 86s6.5 57.666 6.5 84.999c0 40.667 -4.83301 83.5 -14.5 128.5s-25.334 86 -47.001 123s-50.167 67.667 -85.5 92s-78.333 36.5 -129 36.5
c-35.333 0 -66.666 -5.66699 -93.999 -17s-51.166 -26.833 -71.499 -46.5s-37.666 -42.334 -51.999 -68.001s-25.833 -52.834 -34.5 -81.501s-14.834 -58 -18.501 -88s-5.5 -59 -5.5 -87c0 -40.667 5.16699 -82.667 15.5 -126s26.5 -83 48.5 -119s50.333 -65.667 85 -89
s76.667 -35 126 -35zM306.999 653.003c36 0 66.001 -9.66602 90.001 -28.999s43.167 -43.833 57.5 -73.5s24.5 -61.834 30.5 -96.501s9 -67.334 9 -98.001c0 -31.333 -2.83301 -64.166 -8.5 -98.499s-15.834 -66 -30.501 -95s-34.167 -53 -58.5 -72
s-54.833 -28.5 -91.5 -28.5c-35.333 0 -65 9 -89 27s-43.333 41 -58 69s-25.167 58.667 -31.5 92s-9.5 65.333 -9.5 96c0 18.667 0.666992 38.834 2 60.501s4 43.167 8 64.5s9.66699 41.666 17 60.999s17 36.333 29 51c17.333 21.333 37 38.333 59 51s47 19 75 19z" />
    <glyph glyph-name="P" unicode="P" horiz-adv-x="521" 
d="M447 354c17.333 23.333 29.668 48.3311 37.001 74.998s11 54 11 82c0 34.667 -6 68 -18 100c-10 24.667 -21.833 44.5 -35.5 59.5s-29.334 26.5 -47.001 34.5s-36.834 13.167 -57.501 15.5s-42.667 3.5 -66 3.5h-218v-732h86v297h112
c14.667 0 31.334 0.833008 50.001 2.5s37.167 4.83398 55.5 9.50098s35.5 11.334 51.5 20.001s29 19.667 39 33zM347.002 632.998c11.333 -4 20.835 -10.334 28.502 -19.001s14 -18.667 19 -30s8.5 -23.5 10.5 -36.5s3 -25.5 3 -37.5c0 -44 -13.833 -77.167 -41.5 -99.5
s-64.5 -33.5 -110.5 -33.5h-116v262h139c9.33301 0 20.666 -0.166992 33.999 -0.5s24.666 -2.16602 33.999 -5.49902z" />
    <glyph glyph-name="Q" unicode="Q" horiz-adv-x="608" 
d="M305 -20c34 0 64.499 5.50293 91.499 16.5029s50.667 26 71 45s37.833 40.833 52.5 65.5s26.5 51 35.5 79s15.667 56.667 20 86s6.5 57.666 6.5 84.999c0 40.667 -4.83301 83.5 -14.5 128.5s-25.334 86 -47.001 123s-50.167 67.667 -85.5 92s-78.333 36.5 -129 36.5
c-35.333 0 -66.666 -5.66699 -93.999 -17s-51.166 -26.833 -71.499 -46.5s-37.666 -42.334 -51.999 -68.001s-25.833 -52.834 -34.5 -81.501s-14.834 -58 -18.501 -88s-5.5 -59 -5.5 -87c0 -40.667 5.16699 -82.667 15.5 -126s26.5 -83 48.5 -119s50.333 -65.667 85 -89
s76.667 -35 126 -35zM478.999 -183.997l41 78l-200 103l-41 -78zM306.999 653.003c36 0 66.001 -9.66602 90.001 -28.999s43.167 -43.833 57.5 -73.5s24.5 -61.834 30.5 -96.501s9 -67.334 9 -98.001c0 -31.333 -2.83301 -64.166 -8.5 -98.499s-15.834 -66 -30.501 -95
s-34.167 -53 -58.5 -72s-54.833 -28.5 -91.5 -28.5c-35.333 0 -65 9 -89 27s-43.333 41 -58 69s-25.167 58.667 -31.5 92s-9.5 65.333 -9.5 96c0 18.667 0.666992 38.834 2 60.501s4 43.167 8 64.5s9.66699 41.666 17 60.999s17 36.333 29 51c17.333 21.333 37 38.333 59 51
s47 19 75 19z" />
    <glyph glyph-name="R" unicode="R" horiz-adv-x="565" 
d="M461 -8l106.999 0.00292969l-105 207c-12.667 25.333 -26.5 48.666 -41.5 69.999s-34.167 40.666 -57.5 57.999c48.667 11.333 86 33.833 112 67.5s39 76.5 39 128.5c0 39.333 -8.33301 76 -25 110c-10 20 -21.333 36 -34 48s-26.667 21.167 -42 27.5
s-31.666 10.5 -48.999 12.5s-36 3 -56 3h-255v-732h86v326h70c16 0 29.333 -1.33301 40 -4s21.667 -8.66699 33 -18c7.33301 -6.66699 16.333 -17.834 27 -33.501s22.167 -33.667 34.5 -54l37.5 -65l35 -65l27.5 -54c7.66699 -15.667 13.167 -26.5 16.5 -32.5z
M313.999 644.003c38 0 66.833 -10.5 86.5 -31.5s29.5 -50.5 29.5 -88.5c0 -44 -11.833 -75.5 -35.5 -94.5s-56.5 -28.5 -98.5 -28.5h-155v243h173z" />
    <glyph glyph-name="S" unicode="S" horiz-adv-x="521" 
d="M273 -20c32 0 60.9951 5.66699 86.9951 17s48.5 26.666 67.5 45.999s33.667 42.333 44 69s15.5 55.667 15.5 87c0 36 -5.33301 66 -16 90s-24.667 44 -42 60s-37 28.833 -59 38.5s-44.333 18.167 -67 25.5l-33.5 10l-31.5 10c-13.333 4.66699 -26.5 9.66699 -39.5 15
s-24.5 12.166 -34.5 20.499s-18.167 18.333 -24.5 30s-9.5 26.167 -9.5 43.5c0 37.333 11.667 64.5 35 81.5s52.666 25.5 87.999 25.5c42.667 0 74.334 -11.333 95.001 -34s33 -57 37 -103l81 9c-2 68.667 -22.5 121.667 -61.5 159s-90.5 56 -154.5 56
c-30 0 -57.333 -4.83301 -82 -14.5s-46 -23.5 -64 -41.5s-31.833 -39.5 -41.5 -64.5s-14.5 -52.5 -14.5 -82.5c0 -34 5.33301 -62.333 16 -85s24.834 -41.5 42.501 -56.5s37.5 -27 59.5 -36s44 -16.833 66 -23.5l33 -10c10.667 -3.33301 21.334 -7 32.001 -11
c14.667 -5.33301 28.5 -11.166 41.5 -17.499s24.333 -14.166 34 -23.499s17.334 -20.5 23.001 -33.5s8.5 -28.5 8.5 -46.5c0 -40 -12.667 -70.5 -38 -91.5s-57.666 -31.5 -96.999 -31.5c-50.667 0 -89.167 14.167 -115.5 42.5s-42.166 69.166 -47.499 122.499l-77 -9
c1.33301 -79.333 23.833 -139.666 67.5 -180.999s102.5 -62 176.5 -62z" />
    <glyph glyph-name="T" unicode="T" horiz-adv-x="478" 
d="M283 640h187v84h-459v-84h186v-648h86v648z" />
    <glyph glyph-name="U" unicode="U" horiz-adv-x="565" 
d="M282 -20c49.333 0 89.001 9.66504 119.001 28.998s53 44.333 69 75s26.5 65.167 31.5 103.5s7.5 76.5 7.5 114.5v422h-86v-431c0 -30 -1.16699 -58.667 -3.5 -86s-8.5 -51.333 -18.5 -72s-24.833 -37.167 -44.5 -49.5s-46.834 -18.5 -81.501 -18.5
c-32 0 -57.167 6.83301 -75.5 20.5s-32 31.167 -41 52.5s-14.5 45.5 -16.5 72.5s-3 53.833 -3 80.5v431h-85v-422c0 -39.333 2.33301 -78.166 7 -116.499s15 -72.666 31 -102.999s39 -55 69 -74s70.333 -28.5 121 -28.5z" />
    <glyph glyph-name="V" unicode="V" horiz-adv-x="521" 
d="M301 -8l226 732h-90l-154 -525c-4.66699 -15.333 -9 -30.333 -13 -45l-12 -45l-10.5 44c-3.66699 14.667 -7.5 29 -11.5 43l-150 528h-94l224 -732h85z" />
    <glyph glyph-name="W" unicode="W" horiz-adv-x="738" 
d="M582 -8l159.001 732h-89l-57 -286.5c-19.333 -93.667 -37 -188.167 -53 -283.5c-13.333 95.333 -31.333 190 -54 284l-67 286h-100l-66 -291.5c-22 -95 -42.667 -190.5 -62 -286.5c-14.667 96 -31.334 191.667 -50.001 287l-55 291h-90l154 -732h87l121 548
c2 8 3.66699 15.833 5 23.5l4 22.5l65 -297l64 -297h84z" />
    <glyph glyph-name="X" unicode="X" horiz-adv-x="522" 
d="M422 -8h108.999l-219 386l203 346h-95l-81 -132c-27.333 -43.333 -52.333 -87.333 -75 -132c-20.667 44 -44 87.833 -70 131.5l-76 132.5h-103l198 -351l-224 -381h107l84.5 147.5c28.333 48.333 54.833 97.5 79.5 147.5c24.667 -50 50.834 -99.167 78.501 -147.5z" />
    <glyph glyph-name="Y" unicode="Y" horiz-adv-x="521" 
d="M299 302l229 422h-99l-87.5 -165c-29 -53.333 -56.167 -108 -81.5 -164c-25.333 56 -52.333 110.667 -81 164l-87 165h-103l223 -422v-310h87v310z" />
    <glyph glyph-name="Z" unicode="Z" horiz-adv-x="478" 
d="M8 -8h458v87h-364l64 92.5l66.5 101l66 103.5l61.5 98.5l54 87l43 68.5v94h-416v-85h320c-11.333 -14 -22 -28.5 -32 -43.5l-30 -45.5l-291 -461v-97z" />
    <glyph glyph-name="bracketleft" unicode="[" horiz-adv-x="217" 
d="M48 -207h164v72h-83v787h83v72h-164v-931z" />
    <glyph glyph-name="backslash" unicode="\" horiz-adv-x="216" 
d="M158 -20h68l-167 756h-69z" />
    <glyph glyph-name="bracketright" unicode="]" horiz-adv-x="217" 
d="M8 -207h164v931h-164v-72h83v-787h-83v-72z" />
    <glyph glyph-name="asciicircum" unicode="^" horiz-adv-x="367" 
d="M267 347h84l-136 389h-63l-136 -392h86l81 259z" />
    <glyph glyph-name="underscore" unicode="_" 
d="M-19 -236h470v65h-470v-65z" />
    <glyph glyph-name="grave" unicode="`" horiz-adv-x="261" 
d="M110 592h73l-52 136h-109z" />
    <glyph glyph-name="a" unicode="a" 
d="M327 -8l86.0029 -0.000976562c-9.33301 22 -15.833 47.833 -19.5 77.5s-6 60.167 -7 91.5s-1.16699 62.5 -0.5 93.5s1 58.5 1 82.5c0 29.333 -1.5 56.5 -4.5 81.5s-10 46.833 -21 65.5s-27.333 33.167 -49 43.5s-50.834 15.5 -87.501 15.5
c-52.667 0 -94.834 -12.167 -126.501 -36.5s-52.167 -65.166 -61.5 -122.499l76 -14c3.33301 17.333 7.5 32.166 12.5 44.499s11.167 22.5 18.5 30.5s16.666 13.833 27.999 17.5s25.333 5.5 42 5.5c36 0 60.167 -10.833 72.5 -32.5s18.5 -49.5 18.5 -83.5v-21
c-23.333 -9.33301 -48.166 -15.666 -74.499 -18.999s-52 -8 -77 -14s-48 -15.5 -69 -28.5s-37.5 -33.833 -49.5 -62.5c-5.33301 -11.333 -9 -23.166 -11 -35.499s-3 -24.5 -3 -36.5c0 -46 12.667 -83.167 38 -111.5s61.666 -42.5 108.999 -42.5
c30.667 0 57.334 5.66699 80.001 17s44 26.666 64 45.999c1.33301 -8 3.16602 -16.333 5.49902 -25s5.5 -17.667 9.5 -27zM305.003 252.999v-23.001c0 -21.333 -1.83301 -42.666 -5.5 -63.999s-10.167 -40.333 -19.5 -57s-21.833 -30.167 -37.5 -40.5
s-35.834 -15.5 -60.501 -15.5c-24 0 -42.5 7.5 -55.5 22.5s-19.5 34.5 -19.5 58.5c0 26 6.33301 44.833 19 56.5s29.667 20.5 51 26.5s42.833 11 64.5 15s42.834 11 63.501 21z" />
    <glyph glyph-name="b" unicode="b" 
d="M226 -19c36.667 0 67.001 9.99902 91.001 29.999s42.833 44.833 56.5 74.5s23.167 61.167 28.5 94.5s8 63.333 8 90s-2.83301 55.834 -8.5 87.501s-15.334 61.167 -29.001 88.5s-32.167 50.333 -55.5 69s-52.666 28 -87.999 28c-22.667 0 -42.334 -5 -59.001 -15
s-31.667 -23 -45 -39v235h-81v-732h76v47c12 -17.333 26.833 -31.333 44.5 -42s38.167 -16 61.5 -16zM226.001 468.999c22.667 0 40.8369 -7.66699 54.5039 -23s24.167 -33.833 31.5 -55.5s12 -44.167 14 -67.5s3 -43.333 3 -60c0 -18 -1.5 -39 -4.5 -63
s-8.33301 -46.833 -16 -68.5s-18.334 -39.834 -32.001 -54.501s-31.5 -22 -53.5 -22c-24.667 0 -43.834 7.83301 -57.501 23.5s-23.834 34.5 -30.501 56.5s-10.834 45 -12.501 69s-2.5 44.667 -2.5 62c0 18 1.5 38.833 4.5 62.5s8.5 45.834 16.5 66.501
s18.833 38.167 32.5 52.5s31.167 21.5 52.5 21.5z" />
    <glyph glyph-name="c" unicode="c" horiz-adv-x="392" 
d="M216 -19c27.333 0 51.166 5.16895 71.499 15.502s37.833 24.166 52.5 41.499s26.167 37.666 34.5 60.999s14.166 47.666 17.499 72.999l-78 11c-2 -17.333 -5.16699 -33.666 -9.5 -48.999s-10.166 -29 -17.499 -41s-16.833 -21.5 -28.5 -28.5s-25.5 -10.5 -41.5 -10.5
c-24 0 -43 7.16699 -57 21.5s-24.667 32.166 -32 53.499s-12.166 44 -14.499 68s-3.5 46 -3.5 66s1.33301 42 4 66s7.83398 46.5 15.501 67.5s18.667 38.5 33 52.5s33.5 21 57.5 21c12.667 0 24 -2.83301 34 -8.5s18.5 -13.5 25.5 -23.5s12.833 -21.333 17.5 -34
s8.33398 -26 11.001 -40l76 14c-4 24.667 -10.333 47 -19 67s-20 37.333 -34 52s-30.5 26 -49.5 34s-40.833 12 -65.5 12c-38.667 0 -70.167 -9.33301 -94.5 -28s-43.5 -42.167 -57.5 -70.5s-23.667 -59.166 -29 -92.499s-8 -64.333 -8 -93s2.66699 -59.167 8 -91.5
s15.166 -62.333 29.499 -90s33.666 -50.667 57.999 -69s55.5 -27.5 93.5 -27.5z" />
    <glyph glyph-name="d" unicode="d" 
d="M308 -8l78.0029 0.000976562v732h-80v-236c-12.667 16.667 -27.834 30 -45.501 40s-37.834 15 -60.501 15c-36.667 0 -66.667 -9.66699 -90 -29s-41.833 -43.333 -55.5 -72s-23 -59.334 -28 -92.001s-7.5 -62.334 -7.5 -89.001c0 -26 2.83301 -55.333 8.5 -88
s15.5 -63.167 29.5 -91.5s32.833 -52.166 56.5 -71.499s53.167 -29 88.5 -29c23.333 0 43.666 4.83301 60.999 14.5s32.333 23.167 45 40.5v-44zM204.003 469.001c24 0 43.168 -8.00098 57.501 -24.001s25.166 -35.333 32.499 -58s12 -46.5 14 -71.5s3 -46.167 3 -63.5
c0 -18 -1.33301 -38.5 -4 -61.5s-7.83398 -44.5 -15.501 -64.5s-18.167 -37 -31.5 -51s-30.666 -21 -51.999 -21c-22 0 -40 7.33301 -54 22s-24.833 32.667 -32.5 54s-13 44 -16 68s-4.5 45 -4.5 63c0 16.667 1 36.834 3 60.501s6.5 46.5 13.5 68.5s17.333 40.667 31 56
s32.167 23 55.5 23z" />
    <glyph glyph-name="e" unicode="e" horiz-adv-x="436" 
d="M100 237l310 0.00195312v31c0 28.667 -3 59.167 -9 91.5s-16.333 62 -31 89s-34.334 49.5 -59.001 67.5s-55.667 27 -93 27c-38.667 0 -70.667 -9.33301 -96 -28s-45.5 -42.167 -60.5 -70.5s-25.5 -59.333 -31.5 -93s-9 -65.167 -9 -94.5c0 -30.667 3 -62.167 9 -94.5
s16.5 -62 31.5 -89s35.167 -49.167 60.5 -66.5s57.666 -26 96.999 -26c51.333 0 92 15.167 122 45.5s51 71.166 63 122.499l-82 11c-9.33301 -30 -21.833 -55 -37.5 -75s-38.167 -30 -67.5 -30c-21.333 0 -39.166 5.83301 -53.499 17.5s-26 26.5 -35 44.5
s-15.667 37.667 -20 59s-7.16602 41.666 -8.49902 60.999zM218 468.002c18.667 0 34.6689 -4.83301 48.002 -14.5s24.166 -22 32.499 -37s14.666 -31.667 18.999 -50s7.16602 -35.833 8.49902 -52.5h-220c1.33301 17.333 4.33301 35 9 53s11.5 34.5 20.5 49.5
s20.333 27.333 34 37s29.834 14.5 48.501 14.5z" />
    <glyph glyph-name="f" unicode="f" horiz-adv-x="212" 
d="M237 641l11.001 85.001c-26.667 6.66699 -50.334 10 -71.001 10c-31.333 0 -55 -6.66699 -71 -20s-27.5 -30.166 -34.5 -50.499s-10.667 -42.5 -11 -66.5s-0.5 -46.667 -0.5 -68h-61v-68h61v-471h81v471h79v68h-78c0 5.33301 -0.166992 10.666 -0.5 15.999
s-0.5 11 -0.5 17c0 8.66699 0.166992 17.834 0.5 27.501s2 18.667 5 27s8 15.166 15 20.499s16.5 8 28.5 8c6.66699 0 13.5 -0.333008 20.5 -1s15.833 -2.33398 26.5 -5.00098z" />
    <glyph glyph-name="g" unicode="g" 
d="M199 -218c44.667 0 79.6689 8.99805 105.002 26.998s44.333 41.167 57 69.5s20.667 59.5 24 93.5s5 67 5 99v460h-75v-47c-13.333 17.333 -29.333 31.5 -48 42.5s-40 16.5 -64 16.5c-36 0 -66 -9.33301 -90 -28s-43.167 -42 -57.5 -70s-24.333 -58.167 -30 -90.5
s-8.5 -62.166 -8.5 -89.499s3 -56.833 9 -88.5s16.167 -61.167 30.5 -88.5s33.333 -50.166 57 -68.499s53.167 -27.5 88.5 -27.5c22 0 41.667 4.66699 59 14s32.666 21.666 45.999 36.999c0 -19.333 -0.666992 -40 -2 -62s-5.33301 -42.333 -12 -61s-17.334 -34 -32.001 -46
s-35.667 -18 -63 -18c-25.333 0 -45.333 6 -60 18s-23.667 32 -27 60l-79 8v-14c0 -25.333 4.5 -47.166 13.5 -65.499s21.167 -33.5 36.5 -45.5s33 -20.833 53 -26.5s41.333 -8.5 64 -8.5zM206.002 468.998c22 0 40.001 -7.00293 54.001 -21.0029s25 -31.333 33 -52
s13.5 -42.5 16.5 -65.5s4.5 -43.833 4.5 -62.5c0 -19.333 -1.33301 -40.666 -4 -63.999s-7.83398 -45.166 -15.501 -65.499s-18.5 -37.5 -32.5 -51.5s-32.333 -21 -55 -21c-23.333 0 -41.833 7.16699 -55.5 21.5s-24.334 31.833 -32.001 52.5s-12.667 42.834 -15 66.501
s-3.5 45.167 -3.5 64.5c0 18 1.5 38.5 4.5 61.5s8.33301 44.667 16 65s18.334 37.333 32.001 51s31.167 20.5 52.5 20.5z" />
    <glyph glyph-name="h" unicode="h" 
d="M308 -8l81.002 0.00195312v340c0 24 -1.66699 48.5 -5 73.5s-10.333 47.667 -21 68s-25.834 37 -45.501 50s-45.834 19.5 -78.501 19.5c-24 0 -45.5 -5.33301 -64.5 -16s-35.5 -24.667 -49.5 -42v239h-81v-732h83v303c0 14 0.333008 28.333 1 43s2.66699 28.667 6 42
s8 25.666 14 36.999s14.667 21.333 26 30c16.667 12.667 34.667 19 54 19c16.667 0 30.167 -3.66699 40.5 -11s18.5 -16.833 24.5 -28.5s10 -24.834 12 -39.501s3 -29.667 3 -45v-350z" />
    <glyph glyph-name="i" unicode="i" horiz-adv-x="174" 
d="M46 628h81v96h-81v-96zM46 -8h81v539h-81v-539z" />
    <glyph glyph-name="j" unicode="j" horiz-adv-x="169" 
d="M42 627h81v97h-81v-97zM16 -218c26 0 45.999 6.50098 59.999 19.501s24.5 29 31.5 48s11.167 39.667 12.5 62s2 42.833 2 61.5v558h-80v-568c0 -6.66699 0.166992 -15.834 0.5 -27.501s-0.333984 -23 -2.00098 -34s-5 -20.5 -10 -28.5s-12.833 -12 -23.5 -12
c-5.33301 0 -10.666 0.666992 -15.999 2s-12.666 3.33301 -21.999 6l-14 -74c12 -5.33301 22.833 -8.83301 32.5 -10.5s19.167 -2.5 28.5 -2.5z" />
    <glyph glyph-name="k" unicode="k" horiz-adv-x="391" 
d="M297 -8h104l-181 344l156 195h-95l-157 -204v397h-81v-732h83v222l36 44z" />
    <glyph glyph-name="l" unicode="l" horiz-adv-x="174" 
d="M44 -8h81v732h-81v-732z" />
    <glyph glyph-name="m" unicode="m" horiz-adv-x="651" 
d="M529 -8l80.999 -0.00195312v367c0 21.333 -1.83301 42.833 -5.5 64.5s-10.334 41.334 -20.001 59.001s-23.167 32.167 -40.5 43.5s-39.666 17 -66.999 17c-29.333 0 -54 -7.66699 -74 -23s-36.667 -34 -50 -56c-10.667 25.333 -25.834 44.833 -45.501 58.5
s-44.167 20.5 -73.5 20.5c-25.333 0 -47.833 -6.16699 -67.5 -18.5s-36.167 -28.166 -49.5 -47.499v54h-74v-539h83v288c0 16.667 0.666992 35.667 2 57s5 41.5 11 60.5s15.333 35 28 48s30.334 19.5 53.001 19.5c14 0 25.333 -3.5 34 -10.5s15.334 -16 20.001 -27
s7.66699 -23.167 9 -36.5s2 -26.666 2 -39.999v-359h84v321c0 16.667 1.33301 34.167 4 52.5s7.5 34.833 14.5 49.5s16.5 26.834 28.5 36.501s27.333 14.5 46 14.5c16.667 0 29.5 -4.33301 38.5 -13s15.667 -19.334 20 -32.001s6.83301 -26.334 7.5 -41.001s1 -28 1 -40
v-348z" />
    <glyph glyph-name="n" unicode="n" 
d="M306 -8l83.0029 -0.00195312v338c0 24 -1.5 48.667 -4.5 74s-9.66699 48.333 -20 69s-25.333 37.5 -45 50.5s-45.834 19.5 -78.501 19.5c-28 0 -52 -6 -72 -18s-37 -28 -51 -48v54h-74v-539h83v303c0 18.667 1.16699 38 3.5 58s7 38.333 14 55s17.167 30.334 30.5 41.001
s31 16 53 16c17.333 0 31.166 -4.16699 41.499 -12.5s18.166 -19.166 23.499 -32.499s8.83301 -28 10.5 -44s2.5 -31.667 2.5 -47v-337z" />
    <glyph glyph-name="o" unicode="o" 
d="M319 14c20.667 14.667 37.166 31.998 49.499 51.998s21.833 41.167 28.5 63.5s11.167 45.5 13.5 69.5s3.5 47.333 3.5 70c0 30 -3.16699 61 -9.5 93s-17.166 61.5 -32.499 88.5s-35.666 49.167 -60.999 66.5s-57 26 -95 26c-39.333 0 -71.666 -9 -96.999 -27
s-45.5 -40.667 -60.5 -68s-25.5 -57.666 -31.5 -90.999s-9 -65 -9 -95s3 -61.667 9 -95s16.5 -63.666 31.5 -90.999s35.167 -50 60.5 -68s57.666 -27 96.999 -27c37.333 0 71.666 11 102.999 33zM216.999 468.998c22.667 0 41.501 -7.00195 56.501 -21.002
s26.667 -31.167 35 -51.5s14.166 -42.333 17.499 -66s5 -45.5 5 -65.5s-1.5 -42.167 -4.5 -66.5s-8.66699 -47.166 -17 -68.499s-19.833 -39.166 -34.5 -53.499s-34 -21.5 -58 -21.5s-43.333 7 -58 21s-26.334 31.5 -35.001 52.5s-14.5 43.5 -17.5 67.5s-4.5 46 -4.5 66
s1.5 42 4.5 66s8.83301 46.5 17.5 67.5s20.334 38.5 35.001 52.5s34 21 58 21z" />
    <glyph glyph-name="p" unicode="p" 
d="M225 -19c36 0 65.998 9.83301 89.998 29.5s43 44 57 73s24 60 30 93s9 62.833 9 89.5s-2.66699 56 -8 88s-14.833 62 -28.5 90s-32.167 51.5 -55.5 70.5s-53 28.5 -89 28.5c-25.333 0 -46.666 -5.33301 -63.999 -16s-32.666 -25 -45.999 -43v47h-76v-738h82v237
c12 -15.333 26.5 -27.333 43.5 -36s35.5 -13 55.5 -13zM225.998 471c22.667 0 40.834 -7.66895 54.501 -23.002s24 -33.666 31 -54.999s11.667 -43.833 14 -67.5s3.5 -43.5 3.5 -59.5c0 -17.333 -1 -38 -3 -62s-6.66699 -47.167 -14 -69.5s-18 -41.333 -32 -57
s-33 -23.5 -57 -23.5c-22 0 -39.667 7.16699 -53 21.5s-23.833 31.833 -31.5 52.5s-12.834 42.834 -15.501 66.501s-4 44.5 -4 62.5s1.5 39.333 4.5 64s8.5 48 16.5 70s19 40.833 33 56.5s31.667 23.5 53 23.5z" />
    <glyph glyph-name="q" unicode="q" 
d="M319 14c20.667 14.667 37.166 31.998 49.499 51.998s21.833 41.167 28.5 63.5s11.167 45.5 13.5 69.5s3.5 47.333 3.5 70c0 30 -3.16699 61 -9.5 93s-17.166 61.5 -32.499 88.5s-35.666 49.167 -60.999 66.5s-57 26 -95 26c-39.333 0 -71.666 -9 -96.999 -27
s-45.5 -40.667 -60.5 -68s-25.5 -57.666 -31.5 -90.999s-9 -65 -9 -95s3 -61.667 9 -95s16.5 -63.666 31.5 -90.999s35.167 -50 60.5 -68s57.666 -27 96.999 -27c37.333 0 71.666 11 102.999 33zM370.999 -184.002l41 78l-201 103l-39 -79zM216.999 468.998
c22.667 0 41.501 -7.00195 56.501 -21.002s26.667 -31.167 35 -51.5s14.166 -42.333 17.499 -66s5 -45.5 5 -65.5s-1.5 -42.167 -4.5 -66.5s-8.66699 -47.166 -17 -68.499s-19.833 -39.166 -34.5 -53.499s-34 -21.5 -58 -21.5s-43.333 7 -58 21s-26.334 31.5 -35.001 52.5
s-14.5 43.5 -17.5 67.5s-4.5 46 -4.5 66s1.5 42 4.5 66s8.83301 46.5 17.5 67.5s20.334 38.5 35.001 52.5s34 21 58 21z" />
    <glyph glyph-name="r" unicode="r" horiz-adv-x="256" 
d="M251 425l24.002 83c-12.667 10.667 -25.334 19.167 -38.001 25.5s-26.334 9.5 -41.001 9.5c-8 0 -15.667 -2.16699 -23 -6.5s-14.333 -9.66602 -21 -15.999s-12.834 -13.333 -18.501 -21s-10.5 -14.834 -14.5 -21.501v53h-76v-539h82v291c0 12 0.333008 27.5 1 46.5
s3.33398 37.5 8.00098 55.5s11.834 33.5 21.501 46.5s23.167 19.5 40.5 19.5c8.66699 0 17.167 -2 25.5 -6s18.166 -10.667 29.499 -20z" />
    <glyph glyph-name="s" unicode="s" horiz-adv-x="391" 
d="M197 -19c24.667 0 47.3291 4.16309 67.9961 12.4961s38.334 20 53.001 35s26 32.833 34 53.5s12 43.334 12 68.001c0 26 -4 47.833 -12 65.5s-18.5 32.334 -31.5 44.001s-27.5 21 -43.5 28s-32.333 13.167 -49 18.5c-8 2.66699 -16.167 5.16699 -24.5 7.5
s-16.166 4.83301 -23.499 7.5c-9.33301 2.66699 -18.5 6 -27.5 10s-17.167 8.83301 -24.5 14.5s-13.333 12.667 -18 21s-7 18.5 -7 30.5c0 25.333 7.66699 43.666 23 54.999s35 17 59 17c49.333 0 77.333 -28.333 84 -85l76 12c-7.33301 52 -24.5 89.5 -51.5 112.5
s-64.833 34.5 -113.5 34.5c-23.333 0 -44.333 -3.83301 -63 -11.5s-34.667 -18.5 -48 -32.5s-23.666 -30.5 -30.999 -49.5s-11 -39.833 -11 -62.5c0 -26 4 -47.667 12 -65s18.167 -31.666 30.5 -42.999s26.5 -20.666 42.5 -27.999s32 -13.666 48 -18.999
c8 -2.66699 16 -5.16699 24 -7.5s15.667 -4.83301 23 -7.5c9.33301 -3.33301 18.5 -7 27.5 -11s17 -8.83301 24 -14.5s12.667 -12.5 17 -20.5s6.5 -18 6.5 -30c0 -27.333 -7.83301 -48.5 -23.5 -63.5s-37.167 -22.5 -64.5 -22.5c-31.333 0 -54.666 9 -69.999 27
s-25.333 44.667 -30 80l-76 -17c8.66699 -56 27.167 -97.333 55.5 -124s69.5 -40 123.5 -40z" />
    <glyph glyph-name="t" unicode="t" horiz-adv-x="217" 
d="M160 -14c9.33301 0 18.665 0.667969 27.998 2.00098s19.666 3.66602 30.999 6.99902l-11 85c-9.33301 -2 -16.666 -3.33301 -21.999 -4s-10.666 -1 -15.999 -1c-8.66699 0 -15 1.83301 -19 5.5s-7 8.16699 -9 13.5c-2 7.33301 -3 15 -3 23v23v326h70v65h-70v128l-81 -3
v-125h-50v-68h52v-304c0 -18.667 0.166992 -38.167 0.5 -58.5s3.5 -39 9.5 -56s15.833 -31 29.5 -42s33.834 -16.5 60.501 -16.5z" />
    <glyph glyph-name="u" unicode="u" horiz-adv-x="436" 
d="M310 -8h75.999v539h-81v-298c0 -19.333 -1.16699 -39.333 -3.5 -60s-7.16602 -39.5 -14.499 -56.5s-17.666 -31.167 -30.999 -42.5s-31.333 -17 -54 -17c-22 0 -38.333 5.83301 -49 17.5s-18.334 26 -23.001 43s-7 35.167 -7 54.5v51v308h-80v-340
c0 -17.333 0.5 -35.166 1.5 -53.499s3.83301 -36.166 8.5 -53.499s12.167 -33.333 22.5 -48s24.5 -27 42.5 -37c11.333 -6.66699 23 -11.334 35 -14.001s24 -4 36 -4c26.667 0 50 6.16699 70 18.5s37 28.166 51 47.499v-55z" />
    <glyph glyph-name="v" unicode="v" horiz-adv-x="391" 
d="M233 -8l159 539h-84l-59 -199.5c-20 -65 -38 -130.5 -54 -196.5c-16 66 -33.5 131.5 -52.5 196.5l-57.5 199.5h-86l161 -539h73z" />
    <glyph glyph-name="w" unicode="w" horiz-adv-x="565" 
d="M438 -8l132 538.999h-80l-44.5 -192.5l-43.5 -187.5l-39 188l-39 192h-81l-43.5 -193.5c-14.333 -63 -27.5 -126.5 -39.5 -190.5l-84 384h-84l129 -539h86l73 359c10 -59.333 21.5 -118.666 34.5 -177.999l39.5 -181h84z" />
    <glyph glyph-name="x" unicode="x" horiz-adv-x="392" 
d="M297 -8l102 0.000976562l-158 284l147 255h-97l-49.5 -89.5l-47.5 -85.5c-14 29.333 -28.5 58.166 -43.5 86.499l-45.5 88.5h-101l143 -260l-155 -279h102l102 196l50.5 -96.5z" />
    <glyph glyph-name="y" unicode="y" horiz-adv-x="391" 
d="M237 -4l157 534.999h-82l-90 -310l-11.5 -42l-10.5 -42c-16 65.333 -33.5 130.5 -52.5 195.5l-56.5 198.5h-87l158 -532c-3.33301 -11.333 -6.5 -25.166 -9.5 -41.499s-7.33301 -32 -13 -47s-13.167 -28 -22.5 -39s-22 -16.5 -38 -16.5c-6 0 -12.667 0.833008 -20 2.5
s-16.666 4.16699 -27.999 7.5l-1 -67c11.333 -6 22.166 -9.83301 32.499 -11.5s20.166 -2.5 29.499 -2.5c24 0 44.167 7.66699 60.5 23s29.833 34 40.5 56s19.334 45.167 26.001 69.5z" />
    <glyph glyph-name="z" unicode="z" horiz-adv-x="391" 
d="M7 -8h376v74l-281 -2c47.333 64.667 92.833 130.667 136.5 198l131.5 201v68h-346v-70h195h51l-263 -387v-82z" />
    <glyph glyph-name="braceleft" unicode="{" horiz-adv-x="261" 
d="M219 -218l30 0.00683594v79c-4 0 -9 -0.166992 -15 -0.5s-12 -0.166016 -18 0.500977s-11.833 1.66699 -17.5 3s-9.83398 3.66602 -12.501 6.99902c-7.33301 8 -11.833 21.333 -13.5 40s-2.33398 40 -2.00098 64s0.666016 49.667 0.999023 77s-1.5 54 -5.5 80
s-11 50.167 -21 72.5s-25.333 40.5 -46 54.5c22.667 17.333 39.167 38.666 49.5 63.999s17 52.333 20 81s3.83301 57.5 2.5 86.5s-2 56.167 -2 81.5c0 34.667 4.66699 58.667 14 72c6 9.33301 16 14.333 30 15s26 1 36 1v76h-40c-15.333 0 -28.333 -2 -39 -6
c-20 -8 -35.167 -20.5 -45.5 -37.5s-17.833 -36.5 -22.5 -58.5c-5.33301 -24 -8 -48.333 -8 -73v-73c0 -26 -0.5 -50.5 -1.5 -73.5s-4 -43 -9 -60s-12.833 -30.333 -23.5 -40s-25.334 -14.834 -44.001 -15.501v-80c18.667 -0.666992 33.167 -5.83398 43.5 -15.501
s18 -22.834 23 -39.501s8 -36 9 -58s1.5 -46 1.5 -72c0 -12 -0.166992 -24.167 -0.5 -36.5s-0.166016 -24.833 0.500977 -37.5c0.666992 -14.667 1.83398 -30.334 3.50098 -47.001s4.83398 -32.834 9.50098 -48.501s11.5 -30 20.5 -43s21.167 -23.167 36.5 -30.5
c9.33301 -4.66699 18.833 -7.33398 28.5 -8.00098s18.834 -1 27.501 -1z" />
    <glyph glyph-name="bar" unicode="|" horiz-adv-x="204" 
d="M66 -218h72v954h-72v-954z" />
    <glyph glyph-name="braceright" unicode="}" horiz-adv-x="261" 
d="M168 29c0 26 0.338867 50.3271 1.00586 72.9941s3.5 42.334 8.5 59.001s12.667 30 23 40s24.833 15.333 43.5 16v84c-18.667 0.666992 -33.167 5.66699 -43.5 15s-18 22.333 -23 39s-7.83301 36 -8.5 58s-1 45.667 -1 71v37c0 12.667 -0.333008 25.334 -1 38.001
c-0.666992 14.667 -1.83398 30.334 -3.50098 47.001s-4.83398 32.834 -9.50098 48.501s-11.5 29.834 -20.5 42.501s-21.167 22.667 -36.5 30c-8.66699 4 -18 6.5 -28 7.5s-19.333 1.5 -28 1.5h-29v-76c8.66699 0 19.667 -0.166992 33 -0.5s23.333 -3.83301 30 -10.5
c5.33301 -6 9.16602 -14.667 11.499 -26s3.83301 -25.333 4.5 -42c0 -16.667 -0.333008 -34.5 -1 -53.5s-1 -38.833 -1 -59.5c0 -19.333 0.833008 -38.833 2.5 -58.5s5.16699 -38.667 10.5 -57s12.833 -35.666 22.5 -51.999s22.5 -30.5 38.5 -42.5
c-23.333 -15.333 -40.166 -35.666 -50.499 -60.999s-17 -52.5 -20 -81.5s-4 -58.333 -3 -88s1.5 -56.834 1.5 -81.501c-0.666992 -17.333 -1.83398 -32 -3.50098 -44s-5.16699 -21.333 -10.5 -28c-6.66699 -9.33301 -16.667 -14.333 -30 -15s-25 -1 -35 -1v-76h39
c15.333 0 28.666 2 39.999 6c20.667 8 36.167 20.5 46.5 37.5s17.833 36.5 22.5 58.5c5.33301 23.333 8.16602 47.333 8.49902 72s0.166016 49 -0.500977 73z" />
    <glyph glyph-name="asciitilde" unicode="~" horiz-adv-x="458" 
d="M317 568c23.333 0 46.166 4.83301 68.499 14.5s42.166 23.834 59.499 42.501l-19 105c-16 -21.333 -32.667 -38.5 -50 -51.5s-34.666 -19.5 -51.999 -19.5c-13.333 0 -26.833 3.33301 -40.5 10l-43 21.5c-15 7.66699 -30.667 14.834 -47 21.501s-33.833 10 -52.5 10
c-21.333 0 -44 -4.33301 -68 -13s-44 -22.667 -60 -42l19 -100c18.667 21.333 35.5 37.333 50.5 48s32.5 16 52.5 16c14.667 0 29 -3.33301 43 -10s28.167 -13.834 42.5 -21.501s29.333 -14.834 45 -21.501s32.834 -10 51.501 -10z" />
    <glyph glyph-name="exclamdown" unicode="&#xa1;" horiz-adv-x="260" 
d="M85 427h92v100h-92v-100zM82 -205l98.001 -0.000976562v168c0 23.333 -0.833008 43.333 -2.5 60s-3.16699 36.667 -4.5 60l-14 246h-58l-12 -246c-0.666992 -11.333 -1.33398 -21.833 -2.00098 -31.5l-2 -28l-2 -27.5c-0.666992 -9.33301 -1 -19.666 -1 -30.999v-170z
" />
    <glyph glyph-name="cent" unicode="&#xa2;" 
d="M222 -22c26.667 0 50.3301 5.5 70.9971 16.5s38.334 25.667 53.001 44s26.5 39.333 35.5 63s15.5 47.834 19.5 72.501l-79 11c-2 -17.333 -5.5 -33.833 -10.5 -49.5s-11.5 -29.5 -19.5 -41.5s-17.833 -21.667 -29.5 -29s-25.5 -11 -41.5 -11
c-2.66699 0 -5 0.166992 -7 0.5s-4.33301 0.833008 -7 1.5l83 368c6 -8 10.833 -17 14.5 -27s6.83398 -21.333 9.50098 -34l77 15c-5.33301 31.333 -13.833 58.333 -25.5 81s-30.167 41.334 -55.5 56.001l43 182l-55 21l-41 -178c-11.333 2 -22.333 3 -33 3
c-17.333 0 -34.166 -3 -50.499 -9s-31.5 -13.667 -45.5 -23c-19.333 -14 -35 -30.833 -47 -50.5s-21.333 -40.834 -28 -63.501s-11.167 -45.667 -13.5 -69s-3.5 -45.333 -3.5 -66s1.5 -42.834 4.5 -66.501s8.16699 -47 15.5 -70s17.333 -44.5 30 -64.5s29 -36.333 49 -49
l-43 -191l54 -21l44 183c11.333 -3.33301 22 -5 32 -5zM227.996 471h10.001l-86 -374c-7.33301 10.667 -13.333 23.167 -18 37.5s-8.16699 29 -10.5 44s-3.83301 30.167 -4.5 45.5s-1 29.333 -1 42c0 19.333 1.33301 41 4 65s8 46.333 16 67s19.167 38 33.5 52
s33.166 21 56.499 21z" />
    <glyph glyph-name="sterling" unicode="&#xa3;" 
d="M317 -20c18 0 35.167 3.49902 51.5 10.499s33.166 15.167 50.499 24.5l-22 82c-15.333 -9.33301 -29.666 -16.666 -42.999 -21.999s-26 -8 -38 -8c-14 0 -27.833 1.83301 -41.5 5.5s-27.167 7.5 -40.5 11.5s-26.833 7.83301 -40.5 11.5s-27.834 5.5 -42.501 5.5
c-6.66699 0 -13 -0.333008 -19 -1s-12 -1.66699 -18 -3c18 28 32.667 57.667 44 89s17 64 17 98c0 10.667 -1.66699 23.334 -5 38.001h106v74h-120c-5.33301 23.333 -10.333 47.166 -15 71.499s-7 48.833 -7 73.5c0 14 2 28.167 6 42.5s9.83301 27.166 17.5 38.499
s17.167 20.666 28.5 27.999s24.666 11 39.999 11c14.667 0 27.667 -3.33301 39 -10s21 -15.667 29 -27s14.333 -24.333 19 -39s8 -30 10 -46l80 13c-3.33301 26 -9.33301 50.167 -18 72.5s-20.167 41.833 -34.5 58.5s-31.833 29.667 -52.5 39s-44.334 14 -71.001 14
c-31.333 0 -58.166 -6.33301 -80.499 -19s-40.666 -29.334 -54.999 -50.001s-25 -44 -32 -70s-10.5 -52.333 -10.5 -79c0 -21.333 1.66699 -42.166 5 -62.499s7.33301 -40.833 12 -61.5h-56v-71h75c4 -18 6 -36.333 6 -55c0 -37.333 -6.83301 -73.666 -20.5 -108.999
s-36.167 -64.666 -67.5 -87.999l29 -89c19.333 15.333 39 27 59 35s39.667 12 59 12c14.667 0 28.834 -2.5 42.501 -7.5s27.167 -10.667 40.5 -17s26.833 -12 40.5 -17s28.167 -7.5 43.5 -7.5z" />
    <glyph glyph-name="currency" unicode="&#xa4;" horiz-adv-x="432" 
d="M410 598l34.0039 76.0039c-20 17.333 -43.167 32 -69.5 44s-51.166 18 -74.499 18c-40 0 -75.167 -7.83301 -105.5 -23.5s-56.333 -36.334 -78 -62.001s-39.167 -55 -52.5 -88s-23 -66.833 -29 -101.5h-42l-11 -71h48
c-0.666992 -10.667 -0.833984 -21.167 -0.500977 -31.5s0.833008 -20.833 1.5 -31.5h-40l-10 -66h58c6 -36 14.833 -70.833 26.5 -104.5s27.5 -63.667 47.5 -90s45.167 -47.333 75.5 -63s67.166 -23.5 110.499 -23.5c19.333 0 41.5 4 66.5 12s47.167 16.667 66.5 26l-23 83
c-2 -1.33301 -7.33301 -3.83301 -16 -7.5s-18.834 -7.5 -30.501 -11.5s-23.834 -7.66699 -36.501 -11s-24.334 -5 -35.001 -5c-26 0 -48.667 5.66699 -68 17s-35.666 26.166 -48.999 44.499s-23.833 39.166 -31.5 62.499s-13.5 46.666 -17.5 69.999h231l10 64h-247
c-0.666992 8 -1 16 -1 24v25v16h260l10 69h-265c2.66699 24 8.66699 47.667 18 71s21.333 44 36 62s32.167 32.667 52.5 44s43.166 17 68.499 17c38.667 0 76 -18 112 -54z" />
    <glyph glyph-name="currency" unicode="&#x20ac;" horiz-adv-x="432" 
d="M410 598l34.0039 76.0039c-20 17.333 -43.167 32 -69.5 44s-51.166 18 -74.499 18c-40 0 -75.167 -7.83301 -105.5 -23.5s-56.333 -36.334 -78 -62.001s-39.167 -55 -52.5 -88s-23 -66.833 -29 -101.5h-42l-11 -71h48
c-0.666992 -10.667 -0.833984 -21.167 -0.500977 -31.5s0.833008 -20.833 1.5 -31.5h-40l-10 -66h58c6 -36 14.833 -70.833 26.5 -104.5s27.5 -63.667 47.5 -90s45.167 -47.333 75.5 -63s67.166 -23.5 110.499 -23.5c19.333 0 41.5 4 66.5 12s47.167 16.667 66.5 26l-23 83
c-2 -1.33301 -7.33301 -3.83301 -16 -7.5s-18.834 -7.5 -30.501 -11.5s-23.834 -7.66699 -36.501 -11s-24.334 -5 -35.001 -5c-26 0 -48.667 5.66699 -68 17s-35.666 26.166 -48.999 44.499s-23.833 39.166 -31.5 62.499s-13.5 46.666 -17.5 69.999h231l10 64h-247
c-0.666992 8 -1 16 -1 24v25v16h260l10 69h-265c2.66699 24 8.66699 47.667 18 71s21.333 44 36 62s32.167 32.667 52.5 44s43.166 17 68.499 17c38.667 0 76 -18 112 -54z" />
    <glyph glyph-name="yen" unicode="&#xa5;" horiz-adv-x="434" 
d="M286 374l157 350.001h-93l-107 -252l-27 -63c-4 11.333 -8.33301 22.166 -13 32.499l-14 31.5l-112 251h-89l159 -356h-130v-71h160v-70h-160v-68h160v-167h81v167h158v68h-158v70h159v77h-131z" />
    <glyph glyph-name="brokenbar" unicode="&#xa6;" horiz-adv-x="204" 
d="M66 351h72v385h-72v-385zM66 -218h72v385h-72v-385z" />
    <glyph glyph-name="section" unicode="&#xa7;" 
d="M326 87c27.333 16 47.335 34.6641 60.002 55.9971s19 49 19 83c0 28 -6 53.5 -18 76.5s-27.333 44.167 -46 63.5s-38.834 37.333 -60.501 54s-41.834 33 -60.501 49l-27 24c-9.33301 8.66699 -18 17.834 -26 27.501s-14.667 20.167 -20 31.5s-8 23 -8 35
c0 20.667 6.83301 38.334 20.5 53.001s30.5 22 50.5 22c14 0 25.5 -2.83301 34.5 -8.5s16.333 -13.167 22 -22.5s10 -20.666 13 -33.999s5.5 -27.333 7.5 -42l84 10c-5.33301 52 -21 93.5 -47 124.5s-65.333 46.5 -118 46.5c-23.333 0 -43.833 -4.66699 -61.5 -14
s-32.667 -21.666 -45 -36.999s-21.666 -32.833 -27.999 -52.5s-9.5 -39.834 -9.5 -60.501c0 -24 3.83301 -45.5 11.5 -64.5s18.167 -37.5 31.5 -55.5c-26.667 -12.667 -46.834 -31.667 -60.501 -57s-20.5 -52.333 -20.5 -81c0 -25.333 3.83301 -47.5 11.5 -66.5
s17.667 -36.167 30 -51.5s26.5 -29.5 42.5 -42.5l50 -40.5l42 -34c16 -13.333 31.5 -27.5 46.5 -42.5s27.667 -30.667 38 -47s15.5 -32.5 15.5 -48.5c0 -24 -7 -44 -21 -60s-32.667 -24 -56 -24c-15.333 0 -28.333 2.83301 -39 8.5s-19.5 13.5 -26.5 23.5
s-12.667 21.833 -17 35.5s-8.16602 28.834 -11.499 45.501l-78 -13c5.33301 -54 22.166 -96.667 50.499 -128s68.833 -47 121.5 -47c24 0 45.833 4.5 65.5 13.5s36.167 21.333 49.5 37s23.666 33.667 30.999 54s11 41.833 11 64.5c0 26.667 -4.66699 51.167 -14 73.5
s-22.666 43.166 -39.999 62.499zM256.002 319.997c20 -18 36.832 -36.1689 50.499 -54.502s20.5 -36.833 20.5 -55.5c0 -16.667 -4.16699 -32.167 -12.5 -46.5s-19.166 -26.5 -32.499 -36.5c-13.333 12.667 -27.333 24.5 -42 35.5l-44 33.5l-33 25
c-11.333 8.66699 -21.833 18.334 -31.5 29.001s-17.5 22 -23.5 34s-9 25.667 -9 41c0 18.667 4.16699 34.834 12.5 48.501s19.833 26.167 34.5 37.5c17.333 -16 35.5 -31.333 54.5 -46s37.5 -29.667 55.5 -45z" />
    <glyph glyph-name="dieresis" unicode="&#xa8;" horiz-adv-x="260" 
d="M160 629h84v99h-84v-99zM16 629h85v99h-85v-99z" />
    <glyph glyph-name="copyright" unicode="&#xa9;" horiz-adv-x="580" 
d="M291 -17c48.667 0 91.501 11.833 128.501 35.5s68 53.834 93 90.501s43.833 77.167 56.5 121.5s19 87.166 19 128.499c0 42 -6.33301 85.167 -19 129.5s-31.334 84.833 -56.001 121.5s-55.667 66.834 -93 90.501s-80.333 35.5 -129 35.5
c-49.333 0 -92.5 -11.833 -129.5 -35.5s-68 -53.834 -93 -90.501s-43.833 -77.167 -56.5 -121.5s-19 -87.5 -19 -129.5c0 -41.333 6.33301 -84.166 19 -128.499s31.5 -84.833 56.5 -121.5s56 -66.834 93 -90.501s80.167 -35.5 129.5 -35.5zM291.001 669
c38.667 0 72.666 -9.66699 101.999 -29s54 -44 74 -74s35.167 -63.333 45.5 -100s15.5 -72.334 15.5 -107.001s-5.16699 -70.334 -15.5 -107.001s-25.5 -70 -45.5 -100s-44.833 -54.5 -74.5 -73.5s-63.5 -28.5 -101.5 -28.5c-38.667 0 -72.667 9.5 -102 28.5
s-54 43.5 -74 73.5s-35.167 63.333 -45.5 100s-15.5 72.334 -15.5 107.001s5 70.334 15 107.001s25 70 45 100s44.833 54.667 74.5 74s63.834 29 102.501 29zM290 148c40.667 0 73.166 12.834 97.499 38.501s40.833 58.5 49.5 98.5l-58 22
c-5.33301 -28.667 -15.666 -52.334 -30.999 -71.001s-35.333 -28 -60 -28c-18 0 -32.833 4.66699 -44.5 14s-21 21.333 -28 36s-11.833 30.834 -14.5 48.501s-4 34.5 -4 50.5c0 16.667 1.5 34 4.5 52s8 34.5 15 49.5s16.667 27.333 29 37s27.5 14.5 45.5 14.5
c20 0 36.833 -6.5 50.5 -19.5s24.167 -31.167 31.5 -54.5l56 16c-9.33301 36.667 -25.833 65.167 -49.5 85.5s-52.834 30.5 -87.501 30.5c-30.667 0 -56.167 -6.5 -76.5 -19.5s-36.666 -29.5 -48.999 -49.5s-21 -42.5 -26 -67.5s-7.5 -49.5 -7.5 -73.5
c0 -23.333 2.66699 -47.333 8 -72s14 -47.334 26 -68.001s28 -37.5 48 -50.5s45 -19.5 75 -19.5z" />
    <glyph glyph-name="ordfeminine" unicode="&#xaa;" horiz-adv-x="290" 
d="M211 372l75.001 0.00195312c-7.33301 13.333 -12.5 30.333 -15.5 51s-4.83301 42.5 -5.5 65.5s-0.5 45.5 0.5 67.5s1.5 40.667 1.5 56c0 41.333 -9.33301 72.333 -28 93s-49.334 31 -92.001 31c-14 0 -27.833 -1.83301 -41.5 -5.5s-26.167 -9.5 -37.5 -17.5
s-20.833 -18.333 -28.5 -31s-12.5 -28 -14.5 -46l63 -20c2.66699 22 8.5 37.167 17.5 45.5s22.167 12.5 39.5 12.5c12 0 21.5 -2 28.5 -6s12.333 -9.33301 16 -16s6 -14.667 7 -24s1.5 -19.333 1.5 -30c-19.333 -6 -40 -10.5 -62 -13.5s-42.167 -8 -60.5 -15
s-33.5 -17.833 -45.5 -32.5s-18 -36.334 -18 -65.001c0 -30 8.5 -55.833 25.5 -77.5s42.167 -32.5 75.5 -32.5c18 0 34.5 3.66699 49.5 11s28.833 16.666 41.5 27.999c0.666992 -4 1.66699 -8.5 3 -13.5zM126.001 515.002c11.333 3.33301 23.3301 6 35.9971 8
s24.667 4.66699 36 8c-0.666992 -12.667 -2.16699 -25.167 -4.5 -37.5s-6.16602 -23.5 -11.499 -33.5s-12.666 -18 -21.999 -24s-21 -9 -35 -9c-13.333 0 -23.666 3.83301 -30.999 11.5s-11 18.167 -11 31.5c0 12 3.83301 21.5 11.5 28.5s18.167 12.5 31.5 16.5z" />
    <glyph glyph-name="guillemotleft" unicode="&#xab;" 
d="M316 37h71l-100 220l100 221h-71l-119 -219zM165 37h73l-100 222l99 219h-69l-123 -223z" />
    <glyph glyph-name="logicalnot" unicode="&#xac;" horiz-adv-x="458" 
d="M344 207h77v296h-385v-82h308v-214z" />
    <glyph glyph-name="registered" unicode="&#xae;" horiz-adv-x="580" 
d="M291 -17c48.667 0 91.501 11.833 128.501 35.5s68 53.834 93 90.501s43.833 77.167 56.5 121.5s19 87.166 19 128.499c0 42 -6.33301 85.167 -19 129.5s-31.334 84.833 -56.001 121.5s-55.667 66.834 -93 90.501s-80.333 35.5 -129 35.5
c-49.333 0 -92.5 -11.833 -129.5 -35.5s-68 -53.834 -93 -90.501s-43.833 -77.167 -56.5 -121.5s-19 -87.5 -19 -129.5c0 -41.333 6.33301 -84.166 19 -128.499s31.5 -84.833 56.5 -121.5s56 -66.834 93 -90.501s80.167 -35.5 129.5 -35.5zM291.001 669
c38.667 0 72.666 -9.66699 101.999 -29s54 -44 74 -74s35.167 -63.333 45.5 -100s15.5 -72.334 15.5 -107.001s-5.16699 -70.334 -15.5 -107.001s-25.5 -70 -45.5 -100s-44.833 -54.5 -74.5 -73.5s-63.5 -28.5 -101.5 -28.5c-38.667 0 -72.667 9.5 -102 28.5
s-54 43.5 -74 73.5s-35.167 63.333 -45.5 100s-15.5 72.334 -15.5 107.001s5 70.334 15 107.001s25 70 45 100s44.833 54.667 74.5 74s63.834 29 102.501 29zM355 158l80.001 0.00292969l-20 43c-7.33301 16 -15.333 32.167 -24 48.5s-17.667 31.666 -27 45.999
s-19 26.166 -29 35.499c24.667 7.33301 43.167 21.666 55.5 42.999s18.5 44.333 18.5 69c0 22.667 -3.83301 41.334 -11.5 56.001s-17.834 26 -30.501 34s-27.5 13.5 -44.5 16.5s-34.5 4.5 -52.5 4.5h-113v-397h63v166h17c12.667 0 24 -4 34 -12
c6 -5.33301 13 -14.833 21 -28.5s16 -28.334 24 -44.001l22.5 -46zM271.001 496.003c22 0 39.667 -3.5 53 -10.5s20 -22.167 20 -45.5c0 -22 -6.16699 -37 -18.5 -45s-29.5 -12 -51.5 -12h-54v113h51z" />
    <glyph glyph-name="macron" unicode="&#xaf;" horiz-adv-x="261" 
d="M5 599h251v72h-251v-72z" />
    <glyph glyph-name="degree" unicode="&#xb0;" horiz-adv-x="313" 
d="M155 461c22 0 41.5 4.16504 58.5 12.498s31.333 19.166 43 32.499s20.5 28.166 26.5 44.499s9 32.5 9 48.5s-3 32 -9 48s-14.833 30.667 -26.5 44s-26 24.166 -43 32.499s-36.5 12.5 -58.5 12.5s-41.5 -4.16699 -58.5 -12.5s-31.333 -19.166 -43 -32.499
s-20.5 -28.166 -26.5 -44.499s-9 -32.166 -9 -47.499c0 -16 3 -32.167 9 -48.5s14.833 -31.166 26.5 -44.499s26 -24.166 43 -32.499s36.5 -12.5 58.5 -12.5zM155 677.998c12 0 22.667 -2.50098 32 -7.50098s17.166 -11.5 23.499 -19.5s11 -16.667 14 -26
s4.5 -18.333 4.5 -27s-1.5 -17.667 -4.5 -27s-7.66699 -18 -14 -26s-14.166 -14.5 -23.499 -19.5s-20 -7.5 -32 -7.5s-22.5 2.5 -31.5 7.5s-16.667 11.333 -23 19s-11 16.167 -14 25.5s-4.5 18.666 -4.5 27.999c0 8.66699 1.5 17.834 4.5 27.501s7.66699 18.334 14 26.001
s14 14 23 19s19.5 7.5 31.5 7.5z" />
    <glyph glyph-name="plusminus" unicode="&#xb1;" horiz-adv-x="430" 
d="M253 324h154v81h-154v195h-77v-195h-153v-81h153v-197h77v197zM23 -8h384v81h-384v-81z" />
    <glyph glyph-name="twosuperior" unicode="&#xb2;" horiz-adv-x="261" 
d="M1 356l255.001 0.00195312v65h-141c13.333 16 28 31 44 45s31 28.667 45 44s25.667 32.166 35 50.499s14 39.5 14 63.5c0 36 -10.667 63.167 -32 81.5s-49 27.5 -83 27.5c-34.667 0 -61.667 -8.33301 -81 -25s-33.333 -44 -42 -82l69 -10
c5.33301 20 11.166 33.833 17.499 41.5s17.833 11.5 34.5 11.5c30 0 45 -15.333 45 -46c0 -7.33301 -1.83301 -14.5 -5.5 -21.5s-8.16699 -14 -13.5 -21s-11 -13.5 -17 -19.5l-16 -16l-42.5 -40c-14.333 -13.333 -27.5 -27.5 -39.5 -42.5s-22.167 -31.333 -30.5 -49
s-13.5 -36.834 -15.5 -57.501z" />
    <glyph glyph-name="threesuperior" unicode="&#xb3;" horiz-adv-x="260" 
d="M130 348c34.667 0 63.501 10.332 86.501 30.999s34.5 49 34.5 85c0 42.667 -17.667 72.667 -53 90c28 17.333 42 43.333 42 78c0 34 -10.167 59.333 -30.5 76s-46.5 25 -78.5 25s-56.333 -7.16699 -73 -21.5s-30.667 -38.166 -42 -71.499l65 -13
c6 16.667 12.167 28.334 18.5 35.001s16.166 10 29.499 10c11.333 0 20.333 -3.83301 27 -11.5s10 -17.834 10 -30.501c0 -32.667 -19.667 -49 -59 -49l-9 -58c8.66699 -2 15.667 -3.33301 21 -4s10.333 -1 15 -1c16 -1.33301 27.667 -4.83301 35 -10.5s11 -18.167 11 -37.5
c0 -16 -4.83301 -30.167 -14.5 -42.5s-22.5 -18.5 -38.5 -18.5c-14.667 0 -25.834 3.83301 -33.501 11.5s-14.167 20.5 -19.5 38.5l-67 -9c6.66699 -38 20.834 -64.5 42.501 -79.5s48.5 -22.5 80.5 -22.5z" />
    <glyph glyph-name="acute" unicode="&#xb4;" horiz-adv-x="260" 
d="M153 591l84 137h-107l-51 -137h74z" />
    <glyph glyph-name="mu" unicode="&#xb5;" horiz-adv-x="644" 
d="M500 -114l167 785l-524 112l-167 -785zM546 511l-64 -303l-81 17l-45 134zM548 521l-63 14l-72 -60l-124 191l278 -59zM262 672l135 -209l-140 -115l48 225l-61 12l-31 -144l-53 11l49 231zM447 42l-12 -56l-182 39l57 266l75 -236zM452 68l-43 135l69 -15zM240 263
l53 43l-58 -277l-158 34l79 370l53 -11l-67 -315l62 -13z" />
    <glyph glyph-name="paragraph" unicode="&#xb6;" horiz-adv-x="418" 
d="M373 640l55.001 -0.000976562v84h-248c-32 0 -59.833 -5.16699 -83.5 -15.5s-43.334 -24.833 -59.001 -43.5s-27.167 -40.5 -34.5 -65.5s-11 -52.5 -11 -82.5c0 -24 3 -47.167 9 -69.5s15.167 -42.666 27.5 -60.999s28 -33.5 47 -45.5s41.5 -19.333 67.5 -22v-526h79v847
h74v-847h77v847z" />
    <glyph glyph-name="periodcentered" unicode="&#xb7;" horiz-adv-x="217" 
d="M65 303h89v99h-89v-99z" />
    <glyph glyph-name="periodcentered" unicode="&#x2219;" horiz-adv-x="217" 
d="M65 303h89v99h-89v-99z" />
    <glyph glyph-name="cedilla" unicode="&#xb8;" horiz-adv-x="260" 
d="M96 -214c14.667 0 28.833 2.00195 42.5 6.00195s26 10.167 37 18.5s19.833 18.666 26.5 30.999s10 27.166 10 44.499c0 20.667 -6.16699 37.5 -18.5 50.5s-27.5 21.5 -45.5 25.5l10 46h-62l-21 -89c15.333 0 29.333 -1.33301 42 -4s19 -10.667 19 -24
c0 -10.667 -4 -18.334 -12 -23.001s-17.333 -7.66699 -28 -9s-21.334 -1.66602 -32.001 -0.999023s-19 1 -25 1l-5 -63c12.667 -4 23.834 -6.66699 33.501 -8s19.167 -2 28.5 -2z" />
    <glyph glyph-name="onesuperior" unicode="&#xb9;" horiz-adv-x="260" 
d="M117 367l70 0.000976562v366h-51c-10.667 -19.333 -25.334 -38 -44.001 -56s-38 -31.333 -58 -40v-63c19.333 6.66699 35.333 13.667 48 21s24.334 15.666 35.001 24.999v-253z" />
    <glyph glyph-name="ordmasculine" unicode="&#xba;" horiz-adv-x="286" 
d="M143 363c25.333 0 46.333 5.99902 63 17.999s30 27.333 40 46s17.167 38.834 21.5 60.501s6.5 42.167 6.5 61.5c0 18.667 -2 39 -6 61s-11 42.333 -21 61s-23.5 34.167 -40.5 46.5s-38.167 18.5 -63.5 18.5c-26 0 -47.5 -6.16699 -64.5 -18.5s-30.5 -28 -40.5 -47
s-17 -39.5 -21 -61.5s-6 -42.667 -6 -62s2 -39.833 6 -61.5s11 -41.5 21 -59.5s23.5 -33 40.5 -45s38.5 -18 64.5 -18zM143 667.999c14 0 25.168 -4.16309 33.501 -12.4961s14.666 -18.5 18.999 -30.5s7.16602 -24.833 8.49902 -38.5s2 -25.834 2 -36.501s-0.5 -23 -1.5 -37
s-3.66699 -27.333 -8 -40s-10.666 -23.334 -18.999 -32.001s-19.833 -13 -34.5 -13s-26.167 4.16699 -34.5 12.5s-14.666 18.666 -18.999 30.999s-7 25.5 -8 39.5s-1.5 26.333 -1.5 37s0.5 23 1.5 37s3.66699 27.167 8 39.5s10.666 22.666 18.999 30.999
s19.833 12.5 34.5 12.5z" />
    <glyph glyph-name="guillemotright" unicode="&#xbb;" 
d="M266 38l120 218l-121 222h-69l98 -221l-98 -219h70zM116 37l119 220l-120 220h-70l100 -219l-100 -221h71z" />
    <glyph glyph-name="onequarter" unicode="&#xbc;" horiz-adv-x="652" 
d="M163 -23l427 759h-76l-428 -759h77zM610 58h39v57h-39v236h-62l-154 -228v-65h148v-73h68v73zM116 367l70 0.000976562v366h-51c-10.667 -19.333 -25.334 -38 -44.001 -56s-38 -31.333 -58 -40v-63c19.333 6.66699 35.333 13.667 48 21s24.334 15.666 35.001 24.999v-253
zM539 214.001v-96h-67z" />
    <glyph glyph-name="onehalf" unicode="&#xbd;" horiz-adv-x="652" 
d="M393 -17h253.998v64h-142c14 14.667 29 29 45 43s30.833 28.667 44.5 44s25.167 31.833 34.5 49.5s14 38.167 14 61.5c0 36 -11 62.833 -33 80.5s-49.667 26.5 -83 26.5c-34 0 -60.667 -8 -80 -24s-33.333 -43 -42 -81l69 -8c5.33301 19.333 11.333 32.833 18 40.5
s18.334 11.5 35.001 11.5c30 0 45 -15 45 -45c0 -12 -4.16699 -23.667 -12.5 -35s-18.833 -23.166 -31.5 -35.499l-41.5 -39c-15 -13.667 -29.167 -28.334 -42.5 -44.001s-24.666 -32.5 -33.999 -50.5s-15 -37.667 -17 -59zM151.998 -28l429 764h-76l-430 -764h77z
M115.998 367l68.998 -0.000976562v366h-50c-11.333 -19.333 -26.166 -38 -44.499 -56s-37.5 -31.333 -57.5 -40v-63c18.667 6.66699 34.334 13.834 47.001 21.501s24.667 16.167 36 25.5v-254z" />
    <glyph glyph-name="threequarters" unicode="&#xbe;" horiz-adv-x="652" 
d="M609 58h39v57h-39v245h-55l-160 -237v-65h147v-73h68v73zM161 -28l429 764h-75l-431 -764h77zM128 348c16.667 0 32.5 2.66699 47.5 8s27.833 13 38.5 23s19.167 22.167 25.5 36.5s9.5 30.5 9.5 48.5c0 42 -17.667 72 -53 90c27.333 18 41 44 41 78
s-10.167 59.333 -30.5 76s-46.166 25 -77.499 25c-32.667 0 -57.167 -7.16699 -73.5 -21.5s-29.833 -38.166 -40.5 -71.499l63 -13c6 16.667 12.167 28.334 18.5 35.001s16.166 10 29.499 10c12.667 0 22.167 -3.83301 28.5 -11.5s9.5 -17.834 9.5 -30.501
c0 -32 -19.667 -48 -59 -48l-11 -61c28 1.33301 48.833 -0.833984 62.5 -6.50098s20.5 -20.167 20.5 -43.5c0 -16.667 -4.66699 -31 -14 -43s-22 -18 -38 -18c-15.333 0 -26.833 3.83301 -34.5 11.5s-13.834 20.167 -18.501 37.5l-67 -9
c6.66699 -38 20.834 -64.5 42.501 -79.5s48.5 -22.5 80.5 -22.5zM538 215v-98h-67z" />
    <glyph glyph-name="questiondown" unicode="&#xbf;" horiz-adv-x="479" 
d="M198 427h89v100h-89v-100zM241 -217c30 0 56 5.33105 78 15.998s40.5 25.334 55.5 44.001s26.667 40.5 35 65.5s14.166 51.833 17.499 80.5l-81 11c-2.66699 -18 -6.33398 -35.667 -11.001 -53s-11.167 -32.666 -19.5 -45.999s-18.666 -24 -30.999 -32
s-27.5 -12 -45.5 -12c-16 0 -30.333 3.83301 -43 11.5s-23.167 17.667 -31.5 30s-14.833 26.166 -19.5 41.499s-7 30.666 -7 45.999c0 14.667 2.16699 28.167 6.5 40.5s9.83301 23.833 16.5 34.5s14.334 21 23.001 31l27 30c9.33301 10.667 18.333 22 27 34s16.5 25 23.5 39
s12.333 29.667 16 47s5.16699 37 4.5 59l-1 30h-77c0 -23.333 -1 -44.5 -3 -63.5s-7.66699 -36.167 -17 -51.5c-5.33301 -9.33301 -12 -18.166 -20 -26.499s-15.667 -16.833 -23 -25.5c-12.667 -13.333 -24.167 -26.666 -34.5 -39.999s-19.333 -27.333 -27 -42
s-13.5 -30.167 -17.5 -46.5s-6 -34.5 -6 -54.5c0 -27.333 4.16699 -53 12.5 -77s20.5 -45 36.5 -63s35.5 -32.167 58.5 -42.5s48.833 -15.5 77.5 -15.5z" />
    <glyph glyph-name="Agrave" unicode="&#xc0;" horiz-adv-x="521" 
d="M248 769h74l-54 135h-108zM437 -8h99l-237 732h-88l-222 -732h93l62 219h227zM254 600c13.333 -51.333 27.667 -102.333 43 -153l46 -152h-173l46 151.5c15.333 50.333 28 101.5 38 153.5z" />
    <glyph glyph-name="Aacute" unicode="&#xc1;" horiz-adv-x="521" 
d="M276 768l84 136h-107l-51 -136h74zM437 -8h99l-237 732h-88l-222 -732h93l62 219h227zM254 600c13.333 -51.333 27.667 -102.333 43 -153l46 -152h-173l46 151.5c15.333 50.333 28 101.5 38 153.5z" />
    <glyph glyph-name="Acircumflex" unicode="&#xc2;" horiz-adv-x="521" 
d="M280 770h95l-87 134h-77l-83 -135h94l30 57zM437 -8h99l-237 732h-88l-222 -732h93l62 219h227zM254 600c13.333 -51.333 27.667 -102.333 43 -153l46 -152h-173l46 151.5c15.333 50.333 28 101.5 38 153.5z" />
    <glyph glyph-name="Atilde" unicode="&#xc3;" horiz-adv-x="521" 
d="M312 761c16.667 0 30.333 3.66895 41 11.002s19 16.666 25 27.999s10.333 24.166 13 38.499s4 28.5 4 42.5h-62c-0.666992 -11.333 -1.83398 -21.333 -3.50098 -30s-7.16699 -13 -16.5 -13c-7.33301 0 -14.833 2.16699 -22.5 6.5s-15.5 9 -23.5 14
s-16.5 9.66699 -25.5 14s-18.5 6.5 -28.5 6.5c-15.333 0 -28.5 -3.5 -39.5 -10.5s-19.833 -16.167 -26.5 -27.5s-11.5 -24 -14.5 -38s-4.5 -28 -4.5 -42h62c0 26.667 7 40 21 40c6 0 12.667 -2.16699 20 -6.5l24 -14c8.66699 -5 17.834 -9.5 27.501 -13.5s19.5 -6 29.5 -6z
M436.999 -7.99805h99l-237 732h-88l-222 -732h93l62 219h227zM253.999 600.002c13.333 -51.333 27.667 -102.333 43 -153l46 -152h-173l46 151.5c15.333 50.333 28 101.5 38 153.5z" />
    <glyph glyph-name="Adieresis" unicode="&#xc4;" horiz-adv-x="521" 
d="M283 768h84v100h-84v-100zM139 768h84v100h-84v-100zM437 -8h99l-237 732h-88l-222 -732h93l62 219h227zM254 600c13.333 -51.333 27.667 -102.333 43 -153l46 -152h-173l46 151.5c15.333 50.333 28 101.5 38 153.5z" />
    <glyph glyph-name="Aring" unicode="&#xc5;" horiz-adv-x="521" 
d="M437 -8l99.001 0.000976562l-233 719c9.33301 9.33301 18.5 20.166 27.5 32.499s13.5 25.166 13.5 38.499c0 10.667 -2 21.5 -6 32.5s-9.66699 21.167 -17 30.5s-16.833 17 -28.5 23s-24.834 9 -39.501 9s-27.667 -3 -39 -9s-20.833 -13.5 -28.5 -22.5
s-13.5 -19 -17.5 -30s-6 -21.5 -6 -31.5c0 -14.667 5 -28.667 15 -42s20 -24.666 30 -33.999l-218 -716h93l62 219h227zM255.001 831.001c14.667 0 25.499 -5.33398 32.499 -16.001s10.5 -21.667 10.5 -33c0 -10.667 -4.5 -21.5 -13.5 -32.5s-19.167 -16.5 -30.5 -16.5
s-21.166 5.5 -29.499 16.5s-12.5 22.167 -12.5 33.5c0 10.667 3.66699 21.334 11 32.001s18 16 32 16zM254 600c13.333 -51.333 27.667 -102.333 43 -153l46 -152h-173l46 151.5c15.333 50.333 28 101.5 38 153.5z" />
    <glyph glyph-name="AE" unicode="&#xc6;" horiz-adv-x="783" 
d="M369 -8h381v84h-294v251h264v84h-264v229h284v84h-474l-278 -732h96l78 208h207v-208zM368 637v-344h-171l132 344h39z" />
    <glyph glyph-name="Ccedilla" unicode="&#xc7;" horiz-adv-x="565" 
d="M307 -20c35.333 0.666992 66.3311 7.83691 92.998 21.5039s49.5 31.834 68.5 54.501s34.5 48.834 46.5 78.501s21.333 60.5 28 92.5l-83 27c-4.66699 -24.667 -11 -48.5 -19 -71.5s-18.5 -43.167 -31.5 -60.5s-28.833 -31.333 -47.5 -42s-40.334 -16 -65.001 -16
c-37.333 0 -67.5 9.83301 -90.5 29.5s-41 44.5 -54 74.5s-21.833 62.5 -26.5 97.5s-7 67.833 -7 98.5s2.5 63 7.5 97s14.167 65.333 27.5 94s31.666 52.167 54.999 70.5s53.333 27.5 90 27.5c21.333 0 39.833 -3.66699 55.5 -11s29.334 -17.5 41.001 -30.5
s21.334 -28.5 29.001 -46.5s14.167 -37.667 19.5 -59l85 23c-8 30 -18.5 57.667 -31.5 83s-29 47.166 -48 65.499s-40.833 32.666 -65.5 42.999s-52.667 15.5 -84 15.5c-51.333 0 -94 -11.833 -128 -35.5s-61.5 -53.834 -82.5 -90.501s-35.833 -76.834 -44.5 -120.501
s-13 -85.834 -13 -126.501c0 -35.333 3.16699 -73.333 9.5 -114s17.5 -79.167 33.5 -115.5s37.833 -68.166 65.5 -95.499s62.834 -45 105.501 -53l-15 -66c15.333 0 29.166 -1.33301 41.499 -4s18.5 -10.667 18.5 -24c0 -10.667 -4 -18.334 -12 -23.001
s-17.167 -7.66699 -27.5 -9s-20.833 -1.66602 -31.5 -0.999023s-19 1 -25 1l-5 -63c12.667 -4 23.834 -6.66699 33.501 -8s19.167 -2 28.5 -2c14.667 0 28.834 2 42.501 6s26 10.167 37 18.5s19.833 18.666 26.5 30.999s10 27.166 10 44.499
c0 20.667 -6.16699 37.5 -18.5 50.5s-27.5 21.5 -45.5 25.5z" />
    <glyph glyph-name="Egrave" unicode="&#xc8;" horiz-adv-x="521" 
d="M258 769h74l-54 135h-108zM54 -8h433v84h-347v252h289v84h-289v228h334v84h-420v-732z" />
    <glyph glyph-name="Eacute" unicode="&#xc9;" horiz-adv-x="521" 
d="M284 768l84 136h-107l-51 -136h74zM54 -8h433v84h-347v252h289v84h-289v228h334v84h-420v-732z" />
    <glyph glyph-name="Ecircumflex" unicode="&#xca;" horiz-adv-x="521" 
d="M297 770h95l-87 134h-77l-83 -135h94l30 57zM54 -8h433v84h-347v252h289v84h-289v228h334v84h-420v-732z" />
    <glyph glyph-name="Edieresis" unicode="&#xcb;" horiz-adv-x="521" 
d="M301 768h83v100h-83v-100zM157 768h84v100h-84v-100zM54 -8h433v84h-347v252h289v84h-289v228h334v84h-420v-732z" />
    <glyph glyph-name="Igrave" unicode="&#xcc;" horiz-adv-x="217" 
d="M97 769h73l-53 135h-109zM67 -8h86v732h-86v-732z" />
    <glyph glyph-name="Iacute" unicode="&#xcd;" horiz-adv-x="217" 
d="M122 768l84 136h-107l-51 -136h74zM67 -8h86v732h-86v-732z" />
    <glyph glyph-name="Icircumflex" unicode="&#xce;" horiz-adv-x="217" 
d="M135 770h95l-87 134h-77l-83 -135h94l30 57zM67 -8h86v732h-86v-732z" />
    <glyph glyph-name="Idieresis" unicode="&#xcf;" horiz-adv-x="217" 
d="M138 768h84v100h-84v-100zM-6 768h85v100h-85v-100zM67 -8h86v732h-86v-732z" />
    <glyph glyph-name="Eth" unicode="&#xd0;" horiz-adv-x="565" 
d="M347 0c38 11.333 69.167 30.3311 93.5 56.998s43.166 57 56.499 91s22.5 69.833 27.5 107.5s7.5 73.167 7.5 106.5c0 30.667 -2.33301 64.334 -7 101.001s-13.5 71.667 -26.5 105s-31 63.333 -54 90s-52.5 45.334 -88.5 56.001c-16 5.33301 -33.167 8.33301 -51.5 9
s-35.166 1 -50.499 1h-201v-333h-61v-66h61v-333h210c13.333 0 27.333 0.333008 42 1s28.667 3 42 7zM341 626.998c22 -9.33301 39.833 -24.334 53.5 -45.001s24.167 -43.5 31.5 -68.5s12.333 -51 15 -78s4 -51.5 4 -73.5c0 -23.333 -1.16699 -48.666 -3.5 -75.999
s-7.16602 -54 -14.499 -80s-18 -49.5 -32 -70.5s-32.333 -36.5 -55 -46.5c-13.333 -5.33301 -27.333 -8.83301 -42 -10.5s-29.334 -2.5 -44.001 -2.5h-115v249h156v68h-155v245h113c14 0 29.167 -0.5 45.5 -1.5s30.5 -4.16699 42.5 -9.5z" />
    <glyph glyph-name="Ntilde" unicode="&#xd1;" horiz-adv-x="565" 
d="M343 761c16.667 0 30.334 3.66895 41.001 11.002s19.167 16.666 25.5 27.999s10.666 24.166 12.999 38.499s3.5 28.5 3.5 42.5h-60c-1.33301 -11.333 -2.83301 -21.333 -4.5 -30s-7.16699 -13 -16.5 -13c-8 0 -15.833 2.16699 -23.5 6.5s-15.5 9 -23.5 14
s-16.333 9.66699 -25 14s-18 6.5 -28 6.5c-15.333 0 -28.5 -3.5 -39.5 -10.5s-20 -16.167 -27 -27.5s-12 -24 -15 -38s-4.5 -28 -4.5 -42h62c0 26.667 7 40 21 40c6 0 12.833 -2.16699 20.5 -6.5l24 -14c8.33301 -5 17.333 -9.5 27 -13.5s19.5 -6 29.5 -6zM423 -7.99805h86
v732h-84v-544l-288 544h-85v-732h84v544z" />
    <glyph glyph-name="Ograve" unicode="&#xd2;" horiz-adv-x="608" 
d="M284 769h73l-53 135h-109zM305 -20c34 0 64.499 5.50293 91.499 16.5029s50.667 26 71 45s37.833 40.833 52.5 65.5s26.5 51 35.5 79s15.667 56.667 20 86s6.5 57.666 6.5 84.999c0 40.667 -4.83301 83.5 -14.5 128.5s-25.334 86 -47.001 123s-50.167 67.667 -85.5 92
s-78.333 36.5 -129 36.5c-35.333 0 -66.666 -5.66699 -93.999 -17s-51.166 -26.833 -71.499 -46.5s-37.666 -42.334 -51.999 -68.001s-25.833 -52.834 -34.5 -81.501s-14.834 -58 -18.501 -88s-5.5 -59 -5.5 -87c0 -40.667 5.16699 -82.667 15.5 -126s26.5 -83 48.5 -119
s50.333 -65.667 85 -89s76.667 -35 126 -35zM306.999 653.003c36 0 66.001 -9.66602 90.001 -28.999s43.167 -43.833 57.5 -73.5s24.5 -61.834 30.5 -96.501s9 -67.334 9 -98.001c0 -31.333 -2.83301 -64.166 -8.5 -98.499s-15.834 -66 -30.501 -95s-34.167 -53 -58.5 -72
s-54.833 -28.5 -91.5 -28.5c-35.333 0 -65 9 -89 27s-43.333 41 -58 69s-25.167 58.667 -31.5 92s-9.5 65.333 -9.5 96c0 18.667 0.666992 38.834 2 60.501s4 43.167 8 64.5s9.66699 41.666 17 60.999s17 36.333 29 51c17.333 21.333 37 38.333 59 51s47 19 75 19z" />
    <glyph glyph-name="Oacute" unicode="&#xd3;" horiz-adv-x="608" 
d="M328 768l84 136h-106l-52 -136h74zM305 -20c34 0 64.499 5.50293 91.499 16.5029s50.667 26 71 45s37.833 40.833 52.5 65.5s26.5 51 35.5 79s15.667 56.667 20 86s6.5 57.666 6.5 84.999c0 40.667 -4.83301 83.5 -14.5 128.5s-25.334 86 -47.001 123
s-50.167 67.667 -85.5 92s-78.333 36.5 -129 36.5c-35.333 0 -66.666 -5.66699 -93.999 -17s-51.166 -26.833 -71.499 -46.5s-37.666 -42.334 -51.999 -68.001s-25.833 -52.834 -34.5 -81.501s-14.834 -58 -18.501 -88s-5.5 -59 -5.5 -87
c0 -40.667 5.16699 -82.667 15.5 -126s26.5 -83 48.5 -119s50.333 -65.667 85 -89s76.667 -35 126 -35zM306.999 653.003c36 0 66.001 -9.66602 90.001 -28.999s43.167 -43.833 57.5 -73.5s24.5 -61.834 30.5 -96.501s9 -67.334 9 -98.001
c0 -31.333 -2.83301 -64.166 -8.5 -98.499s-15.834 -66 -30.501 -95s-34.167 -53 -58.5 -72s-54.833 -28.5 -91.5 -28.5c-35.333 0 -65 9 -89 27s-43.333 41 -58 69s-25.167 58.667 -31.5 92s-9.5 65.333 -9.5 96c0 18.667 0.666992 38.834 2 60.501s4 43.167 8 64.5
s9.66699 41.666 17 60.999s17 36.333 29 51c17.333 21.333 37 38.333 59 51s47 19 75 19z" />
    <glyph glyph-name="Ocircumflex" unicode="&#xd4;" horiz-adv-x="608" 
d="M332 770h95l-87 134h-77l-83 -135h94l30 57zM305 -20c34 0 64.499 5.50293 91.499 16.5029s50.667 26 71 45s37.833 40.833 52.5 65.5s26.5 51 35.5 79s15.667 56.667 20 86s6.5 57.666 6.5 84.999c0 40.667 -4.83301 83.5 -14.5 128.5s-25.334 86 -47.001 123
s-50.167 67.667 -85.5 92s-78.333 36.5 -129 36.5c-35.333 0 -66.666 -5.66699 -93.999 -17s-51.166 -26.833 -71.499 -46.5s-37.666 -42.334 -51.999 -68.001s-25.833 -52.834 -34.5 -81.501s-14.834 -58 -18.501 -88s-5.5 -59 -5.5 -87
c0 -40.667 5.16699 -82.667 15.5 -126s26.5 -83 48.5 -119s50.333 -65.667 85 -89s76.667 -35 126 -35zM306.999 653.003c36 0 66.001 -9.66602 90.001 -28.999s43.167 -43.833 57.5 -73.5s24.5 -61.834 30.5 -96.501s9 -67.334 9 -98.001
c0 -31.333 -2.83301 -64.166 -8.5 -98.499s-15.834 -66 -30.501 -95s-34.167 -53 -58.5 -72s-54.833 -28.5 -91.5 -28.5c-35.333 0 -65 9 -89 27s-43.333 41 -58 69s-25.167 58.667 -31.5 92s-9.5 65.333 -9.5 96c0 18.667 0.666992 38.834 2 60.501s4 43.167 8 64.5
s9.66699 41.666 17 60.999s17 36.333 29 51c17.333 21.333 37 38.333 59 51s47 19 75 19z" />
    <glyph glyph-name="Otilde" unicode="&#xd5;" horiz-adv-x="608" 
d="M357 761c16 0 29.333 3.66895 40 11.002s19.167 16.666 25.5 27.999s10.833 24.166 13.5 38.499s4 28.5 4 42.5h-62c-0.666992 -11.333 -1.83398 -21.333 -3.50098 -30s-7.16699 -13 -16.5 -13c-7.33301 0 -14.833 2.16699 -22.5 6.5s-15.5 9 -23.5 14
s-16.5 9.66699 -25.5 14s-18.5 6.5 -28.5 6.5c-15.333 0 -28.5 -3.5 -39.5 -10.5s-19.833 -16.167 -26.5 -27.5s-11.5 -24 -14.5 -38s-4.5 -28 -4.5 -42h62c0 26.667 7 40 21 40c6 0 12.667 -2.16699 20 -6.5l24 -14c8.66699 -5 17.834 -9.5 27.501 -13.5s19.5 -6 29.5 -6z
M305 -19.998c34 0 64.499 5.50293 91.499 16.5029s50.667 26 71 45s37.833 40.833 52.5 65.5s26.5 51 35.5 79s15.667 56.667 20 86s6.5 57.666 6.5 84.999c0 40.667 -4.83301 83.5 -14.5 128.5s-25.334 86 -47.001 123s-50.167 67.667 -85.5 92s-78.333 36.5 -129 36.5
c-35.333 0 -66.666 -5.66699 -93.999 -17s-51.166 -26.833 -71.499 -46.5s-37.666 -42.334 -51.999 -68.001s-25.833 -52.834 -34.5 -81.501s-14.834 -58 -18.501 -88s-5.5 -59 -5.5 -87c0 -40.667 5.16699 -82.667 15.5 -126s26.5 -83 48.5 -119s50.333 -65.667 85 -89
s76.667 -35 126 -35zM306.999 653.005c36 0 66.001 -9.66602 90.001 -28.999s43.167 -43.833 57.5 -73.5s24.5 -61.834 30.5 -96.501s9 -67.334 9 -98.001c0 -31.333 -2.83301 -64.166 -8.5 -98.499s-15.834 -66 -30.501 -95s-34.167 -53 -58.5 -72
s-54.833 -28.5 -91.5 -28.5c-35.333 0 -65 9 -89 27s-43.333 41 -58 69s-25.167 58.667 -31.5 92s-9.5 65.333 -9.5 96c0 18.667 0.666992 38.834 2 60.501s4 43.167 8 64.5s9.66699 41.666 17 60.999s17 36.333 29 51c17.333 21.333 37 38.333 59 51s47 19 75 19z" />
    <glyph glyph-name="Odieresis" unicode="&#xd6;" horiz-adv-x="608" 
d="M336 768h84v100h-84v-100zM192 768h84v100h-84v-100zM305 -20c34 0 64.499 5.50293 91.499 16.5029s50.667 26 71 45s37.833 40.833 52.5 65.5s26.5 51 35.5 79s15.667 56.667 20 86s6.5 57.666 6.5 84.999c0 40.667 -4.83301 83.5 -14.5 128.5s-25.334 86 -47.001 123
s-50.167 67.667 -85.5 92s-78.333 36.5 -129 36.5c-35.333 0 -66.666 -5.66699 -93.999 -17s-51.166 -26.833 -71.499 -46.5s-37.666 -42.334 -51.999 -68.001s-25.833 -52.834 -34.5 -81.501s-14.834 -58 -18.501 -88s-5.5 -59 -5.5 -87
c0 -40.667 5.16699 -82.667 15.5 -126s26.5 -83 48.5 -119s50.333 -65.667 85 -89s76.667 -35 126 -35zM306.999 653.003c36 0 66.001 -9.66602 90.001 -28.999s43.167 -43.833 57.5 -73.5s24.5 -61.834 30.5 -96.501s9 -67.334 9 -98.001
c0 -31.333 -2.83301 -64.166 -8.5 -98.499s-15.834 -66 -30.501 -95s-34.167 -53 -58.5 -72s-54.833 -28.5 -91.5 -28.5c-35.333 0 -65 9 -89 27s-43.333 41 -58 69s-25.167 58.667 -31.5 92s-9.5 65.333 -9.5 96c0 18.667 0.666992 38.834 2 60.501s4 43.167 8 64.5
s9.66699 41.666 17 60.999s17 36.333 29 51c17.333 21.333 37 38.333 59 51s47 19 75 19z" />
    <glyph glyph-name="multiply" unicode="&#xd7;" horiz-adv-x="457" 
d="M348 133l54 68l-121 153l119 152l-52 67l-119 -152l-121 152l-53 -69l119 -151l-120 -151l53 -69l121 153z" />
    <glyph glyph-name="Oslash" unicode="&#xd8;" horiz-adv-x="608" 
d="M521 603l64.002 91.001l-47 51l-59 -83c-25.333 24 -50.833 42.333 -76.5 55s-57.167 19 -94.5 19c-52 0 -95.667 -12 -131 -36s-63.833 -54.5 -85.5 -91.5s-37.334 -77.833 -47.001 -122.5s-14.5 -88 -14.5 -130c0 -25.333 1 -48.333 3 -69s5.5 -40.5 10.5 -59.5
s11.167 -38 18.5 -57s16.666 -39.5 27.999 -61.5l-63 -90l47 -52l60 86c25.333 -24.667 51 -43.167 77 -55.5s57.667 -18.5 95 -18.5c50.667 0 93.5 12.167 128.5 36.5s63.333 55 85 92s37.334 77.667 47.001 122s14.5 86.833 14.5 127.5c0 24 -1 46.5 -3 67.5
s-5.5 41.167 -10.5 60.5s-11.333 38.666 -19 57.999s-16.834 39.333 -27.501 60zM309.002 652.001c26 0 47.832 -5.16895 65.499 -15.502s35.834 -24.5 54.501 -42.5l-283 -400c-11.333 28.667 -19 55.834 -23 81.501s-6 54.834 -6 87.501c0 32 3 65 9 99
s16.167 65.167 30.5 93.5s33.833 51.5 58.5 69.5s56 27 94 27zM465.001 517.999c9.33301 -27.333 16.166 -55 20.499 -83s6.5 -56.333 6.5 -85c0 -31.333 -3.16699 -63.833 -9.5 -97.5s-16.833 -64.5 -31.5 -92.5s-34.167 -51 -58.5 -69s-54.833 -27 -91.5 -27
c-25.333 0 -47.166 4.5 -65.499 13.5s-36.5 22.167 -54.5 39.5z" />
    <glyph glyph-name="Ugrave" unicode="&#xd9;" horiz-adv-x="565" 
d="M260 769h73l-53 135h-108zM282 -20c49.333 0 89.001 9.66504 119.001 28.998s53 44.333 69 75s26.5 65.167 31.5 103.5s7.5 76.5 7.5 114.5v422h-86v-431c0 -30 -1.16699 -58.667 -3.5 -86s-8.5 -51.333 -18.5 -72s-24.833 -37.167 -44.5 -49.5
s-46.834 -18.5 -81.501 -18.5c-32 0 -57.167 6.83301 -75.5 20.5s-32 31.167 -41 52.5s-14.5 45.5 -16.5 72.5s-3 53.833 -3 80.5v431h-85v-422c0 -39.333 2.33301 -78.166 7 -116.499s15 -72.666 31 -102.999s39 -55 69 -74s70.333 -28.5 121 -28.5z" />
    <glyph glyph-name="Uacute" unicode="&#xda;" horiz-adv-x="565" 
d="M304 768l84 136h-107l-51 -136h74zM282 -20c49.333 0 89.001 9.66504 119.001 28.998s53 44.333 69 75s26.5 65.167 31.5 103.5s7.5 76.5 7.5 114.5v422h-86v-431c0 -30 -1.16699 -58.667 -3.5 -86s-8.5 -51.333 -18.5 -72s-24.833 -37.167 -44.5 -49.5
s-46.834 -18.5 -81.501 -18.5c-32 0 -57.167 6.83301 -75.5 20.5s-32 31.167 -41 52.5s-14.5 45.5 -16.5 72.5s-3 53.833 -3 80.5v431h-85v-422c0 -39.333 2.33301 -78.166 7 -116.499s15 -72.666 31 -102.999s39 -55 69 -74s70.333 -28.5 121 -28.5z" />
    <glyph glyph-name="Ucircumflex" unicode="&#xdb;" horiz-adv-x="565" 
d="M308 770h95l-87 134h-77l-83 -135h94l30 57zM282 -20c49.333 0 89.001 9.66504 119.001 28.998s53 44.333 69 75s26.5 65.167 31.5 103.5s7.5 76.5 7.5 114.5v422h-86v-431c0 -30 -1.16699 -58.667 -3.5 -86s-8.5 -51.333 -18.5 -72s-24.833 -37.167 -44.5 -49.5
s-46.834 -18.5 -81.501 -18.5c-32 0 -57.167 6.83301 -75.5 20.5s-32 31.167 -41 52.5s-14.5 45.5 -16.5 72.5s-3 53.833 -3 80.5v431h-85v-422c0 -39.333 2.33301 -78.166 7 -116.499s15 -72.666 31 -102.999s39 -55 69 -74s70.333 -28.5 121 -28.5z" />
    <glyph glyph-name="Udieresis" unicode="&#xdc;" horiz-adv-x="565" 
d="M312 768h84v100h-84v-100zM168 768h84v100h-84v-100zM282 -20c49.333 0 89.001 9.66504 119.001 28.998s53 44.333 69 75s26.5 65.167 31.5 103.5s7.5 76.5 7.5 114.5v422h-86v-431c0 -30 -1.16699 -58.667 -3.5 -86s-8.5 -51.333 -18.5 -72s-24.833 -37.167 -44.5 -49.5
s-46.834 -18.5 -81.501 -18.5c-32 0 -57.167 6.83301 -75.5 20.5s-32 31.167 -41 52.5s-14.5 45.5 -16.5 72.5s-3 53.833 -3 80.5v431h-85v-422c0 -39.333 2.33301 -78.166 7 -116.499s15 -72.666 31 -102.999s39 -55 69 -74s70.333 -28.5 121 -28.5z" />
    <glyph glyph-name="Yacute" unicode="&#xdd;" horiz-adv-x="521" 
d="M281 768l85 136h-107l-52 -136h74zM299 302l229 422h-99l-87.5 -165c-29 -53.333 -56.167 -108 -81.5 -164c-25.333 56 -52.333 110.667 -81 164l-87 165h-103l223 -422v-310h87v310z" />
    <glyph glyph-name="Thorn" unicode="&#xde;" horiz-adv-x="521" 
d="M447 207c17.333 22.667 29.666 47.168 36.999 73.501s11 53.166 11 80.499c0 33.333 -6 65.666 -18 96.999c-10 24.667 -22.167 44.334 -36.5 59.001s-30.166 26 -47.499 34s-36.5 13.167 -57.5 15.5s-42.833 3.5 -65.5 3.5h-130v154h-86v-732h86v151h136
c14.667 0 30 0.833008 46 2.5s31.5 4.83398 46.5 9.50098s29.333 11.167 43 19.5s25.5 19.166 35.5 32.499zM347 480.001c10.667 -4.66699 20.001 -11.334 28.001 -20.001s14.5 -18.5 19.5 -29.5s8.66699 -22.5 11 -34.5s3.5 -24 3.5 -36c0 -44 -10.333 -76.5 -31 -97.5
s-53.334 -31.5 -98.001 -31.5h-140v255h139c10.667 0 22.667 -0.166992 36 -0.5s24 -2.16602 32 -5.49902z" />
    <glyph glyph-name="germandbls" unicode="&#xdf;" horiz-adv-x="478" 
d="M315 -20c23.333 0 44.166 4.83105 62.499 14.498s33.666 22.334 45.999 38.001s21.666 33.5 27.999 53.5s9.5 40.667 9.5 62s-3.66699 40.166 -11 56.499s-16.833 31 -28.5 44s-25 24.833 -40 35.5l-44.5 32c-10.667 7.33301 -22 16.5 -34 27.5s-18 23.833 -18 38.5
c0 12 4.5 25.5 13.5 40.5l30 48c11 17 21 35.167 30 54.5s13.5 39.333 13.5 60c0 21.333 -3.66699 41.166 -11 59.499s-17.666 34.333 -30.999 48s-29.166 24.334 -47.499 32.001s-38.5 11.5 -60.5 11.5c-37.333 0 -67.166 -7.83301 -89.499 -23.5s-39.5 -35.5 -51.5 -59.5
s-20 -50.667 -24 -80s-6 -57.666 -6 -84.999v-496h83v504c0 15.333 0.333008 32.833 1 52.5s3.66699 38 9 55s13.833 31.333 25.5 43s28.5 17.5 50.5 17.5c20.667 0 37.5 -6.66699 50.5 -20s19.5 -30 19.5 -50c0 -17.333 -4.66699 -34.166 -14 -50.499
s-19.666 -33 -30.999 -50s-21.666 -34.167 -30.999 -51.5s-14 -35.666 -14 -54.999c0 -20 4.5 -37.5 13.5 -52.5s20.167 -28.667 33.5 -41s27.666 -23.833 42.999 -34.5s29.666 -21.667 42.999 -33s24.5 -23.5 33.5 -36.5s13.5 -27.833 13.5 -44.5
c0 -10 -1.5 -20.333 -4.5 -31s-7.33301 -20.334 -13 -29.001s-12.667 -15.834 -21 -21.501s-17.833 -8.5 -28.5 -8.5c-10 0 -19 2.83301 -27 8.5s-15.167 13 -21.5 22s-12 18.667 -17 29s-9.5 20.5 -13.5 30.5l-65 -37c6 -17.333 13.5 -33.666 22.5 -48.999
s19.5 -28.833 31.5 -40.5s25.667 -21 41 -28s32.333 -10.5 51 -10.5z" />
    <glyph glyph-name="agrave" unicode="&#xe0;" 
d="M206 592h74l-54 136h-108zM327 -8l86.0029 -0.000976562c-9.33301 22 -15.833 47.833 -19.5 77.5s-6 60.167 -7 91.5s-1.16699 62.5 -0.5 93.5s1 58.5 1 82.5c0 29.333 -1.5 56.5 -4.5 81.5s-10 46.833 -21 65.5s-27.333 33.167 -49 43.5s-50.834 15.5 -87.501 15.5
c-52.667 0 -94.834 -12.167 -126.501 -36.5s-52.167 -65.166 -61.5 -122.499l76 -14c3.33301 17.333 7.5 32.166 12.5 44.499s11.167 22.5 18.5 30.5s16.666 13.833 27.999 17.5s25.333 5.5 42 5.5c36 0 60.167 -10.833 72.5 -32.5s18.5 -49.5 18.5 -83.5v-21
c-23.333 -9.33301 -48.166 -15.666 -74.499 -18.999s-52 -8 -77 -14s-48 -15.5 -69 -28.5s-37.5 -33.833 -49.5 -62.5c-5.33301 -11.333 -9 -23.166 -11 -35.499s-3 -24.5 -3 -36.5c0 -46 12.667 -83.167 38 -111.5s61.666 -42.5 108.999 -42.5
c30.667 0 57.334 5.66699 80.001 17s44 26.666 64 45.999c1.33301 -8 3.16602 -16.333 5.49902 -25s5.5 -17.667 9.5 -27zM305.003 252.999v-23.001c0 -21.333 -1.83301 -42.666 -5.5 -63.999s-10.167 -40.333 -19.5 -57s-21.833 -30.167 -37.5 -40.5
s-35.834 -15.5 -60.501 -15.5c-24 0 -42.5 7.5 -55.5 22.5s-19.5 34.5 -19.5 58.5c0 26 6.33301 44.833 19 56.5s29.667 20.5 51 26.5s42.833 11 64.5 15s42.834 11 63.501 21z" />
    <glyph glyph-name="aacute" unicode="&#xe1;" 
d="M246 591l84 137h-107l-51 -137h74zM327 -8l86.0029 -0.000976562c-9.33301 22 -15.833 47.833 -19.5 77.5s-6 60.167 -7 91.5s-1.16699 62.5 -0.5 93.5s1 58.5 1 82.5c0 29.333 -1.5 56.5 -4.5 81.5s-10 46.833 -21 65.5s-27.333 33.167 -49 43.5
s-50.834 15.5 -87.501 15.5c-52.667 0 -94.834 -12.167 -126.501 -36.5s-52.167 -65.166 -61.5 -122.499l76 -14c3.33301 17.333 7.5 32.166 12.5 44.499s11.167 22.5 18.5 30.5s16.666 13.833 27.999 17.5s25.333 5.5 42 5.5c36 0 60.167 -10.833 72.5 -32.5
s18.5 -49.5 18.5 -83.5v-21c-23.333 -9.33301 -48.166 -15.666 -74.499 -18.999s-52 -8 -77 -14s-48 -15.5 -69 -28.5s-37.5 -33.833 -49.5 -62.5c-5.33301 -11.333 -9 -23.166 -11 -35.499s-3 -24.5 -3 -36.5c0 -46 12.667 -83.167 38 -111.5s61.666 -42.5 108.999 -42.5
c30.667 0 57.334 5.66699 80.001 17s44 26.666 64 45.999c1.33301 -8 3.16602 -16.333 5.49902 -25s5.5 -17.667 9.5 -27zM305.003 252.999v-23.001c0 -21.333 -1.83301 -42.666 -5.5 -63.999s-10.167 -40.333 -19.5 -57s-21.833 -30.167 -37.5 -40.5
s-35.834 -15.5 -60.501 -15.5c-24 0 -42.5 7.5 -55.5 22.5s-19.5 34.5 -19.5 58.5c0 26 6.33301 44.833 19 56.5s29.667 20.5 51 26.5s42.833 11 64.5 15s42.834 11 63.501 21z" />
    <glyph glyph-name="acircumflex" unicode="&#xe2;" 
d="M243 593h95l-87 135h-77l-84 -135h95l29 57zM327 -8l86.0029 -0.000976562c-9.33301 22 -15.833 47.833 -19.5 77.5s-6 60.167 -7 91.5s-1.16699 62.5 -0.5 93.5s1 58.5 1 82.5c0 29.333 -1.5 56.5 -4.5 81.5s-10 46.833 -21 65.5s-27.333 33.167 -49 43.5
s-50.834 15.5 -87.501 15.5c-52.667 0 -94.834 -12.167 -126.501 -36.5s-52.167 -65.166 -61.5 -122.499l76 -14c3.33301 17.333 7.5 32.166 12.5 44.499s11.167 22.5 18.5 30.5s16.666 13.833 27.999 17.5s25.333 5.5 42 5.5c36 0 60.167 -10.833 72.5 -32.5
s18.5 -49.5 18.5 -83.5v-21c-23.333 -9.33301 -48.166 -15.666 -74.499 -18.999s-52 -8 -77 -14s-48 -15.5 -69 -28.5s-37.5 -33.833 -49.5 -62.5c-5.33301 -11.333 -9 -23.166 -11 -35.499s-3 -24.5 -3 -36.5c0 -46 12.667 -83.167 38 -111.5s61.666 -42.5 108.999 -42.5
c30.667 0 57.334 5.66699 80.001 17s44 26.666 64 45.999c1.33301 -8 3.16602 -16.333 5.49902 -25s5.5 -17.667 9.5 -27zM305.003 252.999v-23.001c0 -21.333 -1.83301 -42.666 -5.5 -63.999s-10.167 -40.333 -19.5 -57s-21.833 -30.167 -37.5 -40.5
s-35.834 -15.5 -60.501 -15.5c-24 0 -42.5 7.5 -55.5 22.5s-19.5 34.5 -19.5 58.5c0 26 6.33301 44.833 19 56.5s29.667 20.5 51 26.5s42.833 11 64.5 15s42.834 11 63.501 21z" />
    <glyph glyph-name="atilde" unicode="&#xe3;" 
d="M266 596c16 0 29.332 3.66602 39.999 10.999s19.167 16.833 25.5 28.5s10.833 24.5 13.5 38.5s4 28 4 42h-61c-0.666992 -3.33301 -1.16699 -7.5 -1.5 -12.5s-1.16602 -9.66699 -2.49902 -14s-3.33301 -8 -6 -11s-6.33398 -4.5 -11.001 -4.5
c-7.33301 0 -14.833 2.16699 -22.5 6.5s-15.5 9 -23.5 14s-16.5 9.66699 -25.5 14s-18.5 6.5 -28.5 6.5c-15.333 0 -28.5 -3.5 -39.5 -10.5s-19.833 -16.167 -26.5 -27.5s-11.5 -24.166 -14.5 -38.499s-4.5 -28.5 -4.5 -42.5h61c0 27.333 7.33301 41 22 41
c6 0 12.667 -2.16699 20 -6.5l24 -14c8.66699 -5 17.834 -9.66699 27.501 -14s19.5 -6.5 29.5 -6.5zM326.999 -8.00098l86.0029 -0.000976562c-9.33301 22 -15.833 47.833 -19.5 77.5s-6 60.167 -7 91.5s-1.16699 62.5 -0.5 93.5s1 58.5 1 82.5
c0 29.333 -1.5 56.5 -4.5 81.5s-10 46.833 -21 65.5s-27.333 33.167 -49 43.5s-50.834 15.5 -87.501 15.5c-52.667 0 -94.834 -12.167 -126.501 -36.5s-52.167 -65.166 -61.5 -122.499l76 -14c3.33301 17.333 7.5 32.166 12.5 44.499s11.167 22.5 18.5 30.5
s16.666 13.833 27.999 17.5s25.333 5.5 42 5.5c36 0 60.167 -10.833 72.5 -32.5s18.5 -49.5 18.5 -83.5v-21c-23.333 -9.33301 -48.166 -15.666 -74.499 -18.999s-52 -8 -77 -14s-48 -15.5 -69 -28.5s-37.5 -33.833 -49.5 -62.5c-5.33301 -11.333 -9 -23.166 -11 -35.499
s-3 -24.5 -3 -36.5c0 -46 12.667 -83.167 38 -111.5s61.666 -42.5 108.999 -42.5c30.667 0 57.334 5.66699 80.001 17s44 26.666 64 45.999c1.33301 -8 3.16602 -16.333 5.49902 -25s5.5 -17.667 9.5 -27zM305.002 252.998v-23.001c0 -21.333 -1.83301 -42.666 -5.5 -63.999
s-10.167 -40.333 -19.5 -57s-21.833 -30.167 -37.5 -40.5s-35.834 -15.5 -60.501 -15.5c-24 0 -42.5 7.5 -55.5 22.5s-19.5 34.5 -19.5 58.5c0 26 6.33301 44.833 19 56.5s29.667 20.5 51 26.5s42.833 11 64.5 15s42.834 11 63.501 21z" />
    <glyph glyph-name="adieresis" unicode="&#xe4;" 
d="M246 629h84v99h-84v-99zM102 629h84v99h-84v-99zM327 -8l86.0029 -0.000976562c-9.33301 22 -15.833 47.833 -19.5 77.5s-6 60.167 -7 91.5s-1.16699 62.5 -0.5 93.5s1 58.5 1 82.5c0 29.333 -1.5 56.5 -4.5 81.5s-10 46.833 -21 65.5s-27.333 33.167 -49 43.5
s-50.834 15.5 -87.501 15.5c-52.667 0 -94.834 -12.167 -126.501 -36.5s-52.167 -65.166 -61.5 -122.499l76 -14c3.33301 17.333 7.5 32.166 12.5 44.499s11.167 22.5 18.5 30.5s16.666 13.833 27.999 17.5s25.333 5.5 42 5.5c36 0 60.167 -10.833 72.5 -32.5
s18.5 -49.5 18.5 -83.5v-21c-23.333 -9.33301 -48.166 -15.666 -74.499 -18.999s-52 -8 -77 -14s-48 -15.5 -69 -28.5s-37.5 -33.833 -49.5 -62.5c-5.33301 -11.333 -9 -23.166 -11 -35.499s-3 -24.5 -3 -36.5c0 -46 12.667 -83.167 38 -111.5s61.666 -42.5 108.999 -42.5
c30.667 0 57.334 5.66699 80.001 17s44 26.666 64 45.999c1.33301 -8 3.16602 -16.333 5.49902 -25s5.5 -17.667 9.5 -27zM305.003 252.999v-23.001c0 -21.333 -1.83301 -42.666 -5.5 -63.999s-10.167 -40.333 -19.5 -57s-21.833 -30.167 -37.5 -40.5
s-35.834 -15.5 -60.501 -15.5c-24 0 -42.5 7.5 -55.5 22.5s-19.5 34.5 -19.5 58.5c0 26 6.33301 44.833 19 56.5s29.667 20.5 51 26.5s42.833 11 64.5 15s42.834 11 63.501 21z" />
    <glyph glyph-name="aring" unicode="&#xe5;" 
d="M215 559c15.333 0 28.667 3 40 9s20.833 13.667 28.5 23s13.334 19.5 17.001 30.5s5.5 21.833 5.5 32.5s-2 21.5 -6 32.5s-9.66699 21.167 -17 30.5s-16.833 17 -28.5 23s-24.834 9 -39.501 9s-27.667 -3 -39 -9s-20.833 -13.5 -28.5 -22.5s-13.5 -19 -17.5 -30
s-6 -21.5 -6 -31.5c0 -10.667 1.83301 -21.667 5.5 -33s9.16699 -21.833 16.5 -31.5s16.833 -17.5 28.5 -23.5s25.167 -9 40.5 -9zM327.001 -8l86.0029 -0.000976562c-9.33301 22 -15.833 47.833 -19.5 77.5s-6 60.167 -7 91.5s-1.16699 62.5 -0.5 93.5s1 58.5 1 82.5
c0 29.333 -1.5 56.5 -4.5 81.5s-10 46.833 -21 65.5s-27.333 33.167 -49 43.5s-50.834 15.5 -87.501 15.5c-52.667 0 -94.834 -12.167 -126.501 -36.5s-52.167 -65.166 -61.5 -122.499l76 -14c3.33301 17.333 7.5 32.166 12.5 44.499s11.167 22.5 18.5 30.5
s16.666 13.833 27.999 17.5s25.333 5.5 42 5.5c36 0 60.167 -10.833 72.5 -32.5s18.5 -49.5 18.5 -83.5v-21c-23.333 -9.33301 -48.166 -15.666 -74.499 -18.999s-52 -8 -77 -14s-48 -15.5 -69 -28.5s-37.5 -33.833 -49.5 -62.5c-5.33301 -11.333 -9 -23.166 -11 -35.499
s-3 -24.5 -3 -36.5c0 -46 12.667 -83.167 38 -111.5s61.666 -42.5 108.999 -42.5c30.667 0 57.334 5.66699 80.001 17s44 26.666 64 45.999c1.33301 -8 3.16602 -16.333 5.49902 -25s5.5 -17.667 9.5 -27zM217.004 702.999c14 0 24.667 -5.5 32 -16.5s11 -22.167 11 -33.5
c0 -10.667 -3.66699 -21.5 -11 -32.5s-18 -16.5 -32 -16.5c-14.667 0 -25.5 5.66699 -32.5 17s-10.5 22.333 -10.5 33c0 11.333 3.5 22.333 10.5 33s17.833 16 32.5 16zM305.004 252.999v-23.001c0 -21.333 -1.83301 -42.666 -5.5 -63.999s-10.167 -40.333 -19.5 -57
s-21.833 -30.167 -37.5 -40.5s-35.834 -15.5 -60.501 -15.5c-24 0 -42.5 7.5 -55.5 22.5s-19.5 34.5 -19.5 58.5c0 26 6.33301 44.833 19 56.5s29.667 20.5 51 26.5s42.833 11 64.5 15s42.834 11 63.501 21z" />
    <glyph glyph-name="ae" unicode="&#xe6;" horiz-adv-x="695" 
d="M375 239h296.999v37c0 28 -3.16699 57.667 -9.5 89s-16.666 60.166 -30.999 86.499s-33.5 48.166 -57.5 65.499s-54 26 -90 26c-28 0 -52.333 -5.16699 -73 -15.5s-39.334 -25.5 -56.001 -45.5c-15.333 24.667 -35.666 41 -60.999 49s-51.333 12 -78 12
c-54 0 -95.167 -13.667 -123.5 -41s-47.833 -68.666 -58.5 -123.999l75 -11c2.66699 18.667 6.33398 34.5 11.001 47.5s10.834 23.5 18.501 31.5s17.5 13.833 29.5 17.5s26.667 5.5 44 5.5c18.667 0 33.667 -3.16699 45 -9.5s19.833 -15 25.5 -26s9.33398 -24 11.001 -39
s2.5 -31.167 2.5 -48.5v-17c-22 -7.33301 -45.5 -13 -70.5 -17s-49.5 -9.16699 -73.5 -15.5s-46.167 -15.333 -66.5 -27s-36.5 -29.5 -48.5 -53.5c-6.66699 -12.667 -11.5 -26 -14.5 -40s-4.5 -28 -4.5 -42c0 -44 12.833 -80.5 38.5 -109.5s61.5 -43.5 107.5 -43.5
c36 0 67.333 8.66699 94 26s50.667 38.666 72 63.999c17.333 -27.333 37.666 -49.166 60.999 -65.499s52.666 -24.5 87.999 -24.5c51.333 0 92.166 15.833 122.499 47.5s51.833 72.834 64.5 123.501l-81 11c-7.33301 -30.667 -18.833 -56.167 -34.5 -76.5
s-37.5 -30.5 -65.5 -30.5c-20.667 0 -40 7.33301 -58 22c-24 20 -38.667 44 -44 72s-8 57.667 -8 89zM483.999 468c19.333 0 35.502 -4.83398 48.502 -14.501s23.667 -22 32 -37s14.5 -31.667 18.5 -50s6.66699 -36.166 8 -53.499h-217
c1.33301 18 4.16602 36.167 8.49902 54.5s10.666 35 18.999 50s19.333 27.167 33 36.5s30.167 14 49.5 14zM103.001 133.999c0 23.333 8.33301 42.167 25 56.5s36 25.5 58 33.5s43.667 13.667 65 17s36.666 5.33301 45.999 6c0 -7.33301 -0.333008 -18.166 -1 -32.499
s-2.5 -29.833 -5.5 -46.5s-7.66699 -32.834 -14 -48.501s-15.166 -28.5 -26.499 -38.5c-22 -18.667 -46.667 -28 -74 -28c-23.333 0 -41.333 7.5 -54 22.5s-19 34.5 -19 58.5z" />
    <glyph glyph-name="ccedilla" unicode="&#xe7;" horiz-adv-x="391" 
d="M225 -19c26 1.33301 48.6621 7.3291 67.9951 17.9961s35.833 24.667 49.5 42s24.5 37.333 32.5 60s13.667 46.334 17 71.001l-78 11c-2 -17.333 -5.16699 -33.666 -9.5 -48.999s-10.166 -29 -17.499 -41s-16.833 -21.5 -28.5 -28.5s-25.5 -10.5 -41.5 -10.5
c-24 0 -43 7.16699 -57 21.5s-24.667 32 -32 53s-12.166 43.667 -14.499 68s-3.5 46.5 -3.5 66.5s1.33301 42 4 66s7.83398 46.5 15.501 67.5s18.667 38.5 33 52.5s33.5 21 57.5 21c12.667 0 24 -2.83301 34 -8.5s18.5 -13.5 25.5 -23.5s12.833 -21.333 17.5 -34
s8.33398 -26 11.001 -40l76 14c-4 24.667 -10.333 47 -19 67s-20 37.333 -34 52s-30.5 26 -49.5 34s-40.833 12 -65.5 12c-38.667 0 -70.167 -9.33301 -94.5 -28s-43.5 -42.167 -57.5 -70.5s-23.667 -59.166 -29 -92.499s-8 -64.333 -8 -93c0 -24 1.83301 -50 5.5 -78
s10.667 -54.667 21 -80s24.333 -48.333 42 -69s40.5 -35.334 68.5 -44.001l-14 -59c15.333 0 29.333 -1.33301 42 -4s19 -10.667 19 -24s-5.5 -22.166 -16.5 -26.499s-23.5 -6.5 -37.5 -6.5h-44l-3 -62c11.333 -4 22 -6.66699 32 -8s19.667 -2 29 -2
c14.667 0 28.834 2 42.501 6s26 10 37 18s19.833 18.333 26.5 31s10 27.667 10 45c0 20.667 -6.16699 37.334 -18.5 50.001s-27.5 21 -45.5 25z" />
    <glyph glyph-name="egrave" unicode="&#xe8;" 
d="M195 592h73l-52 136h-109zM100 237l310 0.00195312v31c0 28.667 -3 59.167 -9 91.5s-16.333 62 -31 89s-34.334 49.5 -59.001 67.5s-55.667 27 -93 27c-38.667 0 -70.667 -9.33301 -96 -28s-45.5 -42.167 -60.5 -70.5s-25.5 -59.333 -31.5 -93s-9 -65.167 -9 -94.5
c0 -30.667 3 -62.167 9 -94.5s16.5 -62 31.5 -89s35.167 -49.167 60.5 -66.5s57.666 -26 96.999 -26c51.333 0 92 15.167 122 45.5s51 71.166 63 122.499l-82 11c-9.33301 -30 -21.833 -55 -37.5 -75s-38.167 -30 -67.5 -30c-21.333 0 -39.166 5.83301 -53.499 17.5
s-26 26.5 -35 44.5s-15.667 37.667 -20 59s-7.16602 41.666 -8.49902 60.999zM218 468.002c18.667 0 34.6689 -4.83301 48.002 -14.5s24.166 -22 32.499 -37s14.666 -31.667 18.999 -50s7.16602 -35.833 8.49902 -52.5h-220c1.33301 17.333 4.33301 35 9 53
s11.5 34.5 20.5 49.5s20.333 27.333 34 37s29.834 14.5 48.501 14.5z" />
    <glyph glyph-name="eacute" unicode="&#xe9;" 
d="M247 591l84 137h-107l-51 -137h74zM100 237l310 0.00195312v31c0 28.667 -3 59.167 -9 91.5s-16.333 62 -31 89s-34.334 49.5 -59.001 67.5s-55.667 27 -93 27c-38.667 0 -70.667 -9.33301 -96 -28s-45.5 -42.167 -60.5 -70.5s-25.5 -59.333 -31.5 -93
s-9 -65.167 -9 -94.5c0 -30.667 3 -62.167 9 -94.5s16.5 -62 31.5 -89s35.167 -49.167 60.5 -66.5s57.666 -26 96.999 -26c51.333 0 92 15.167 122 45.5s51 71.166 63 122.499l-82 11c-9.33301 -30 -21.833 -55 -37.5 -75s-38.167 -30 -67.5 -30
c-21.333 0 -39.166 5.83301 -53.499 17.5s-26 26.5 -35 44.5s-15.667 37.667 -20 59s-7.16602 41.666 -8.49902 60.999zM218 468.002c18.667 0 34.6689 -4.83301 48.002 -14.5s24.166 -22 32.499 -37s14.666 -31.667 18.999 -50s7.16602 -35.833 8.49902 -52.5h-220
c1.33301 17.333 4.33301 35 9 53s11.5 34.5 20.5 49.5s20.333 27.333 34 37s29.834 14.5 48.501 14.5z" />
    <glyph glyph-name="ecircumflex" unicode="&#xea;" 
d="M243 593h95l-87 135h-77l-83 -135h94l30 57zM100 237l310 0.00195312v31c0 28.667 -3 59.167 -9 91.5s-16.333 62 -31 89s-34.334 49.5 -59.001 67.5s-55.667 27 -93 27c-38.667 0 -70.667 -9.33301 -96 -28s-45.5 -42.167 -60.5 -70.5s-25.5 -59.333 -31.5 -93
s-9 -65.167 -9 -94.5c0 -30.667 3 -62.167 9 -94.5s16.5 -62 31.5 -89s35.167 -49.167 60.5 -66.5s57.666 -26 96.999 -26c51.333 0 92 15.167 122 45.5s51 71.166 63 122.499l-82 11c-9.33301 -30 -21.833 -55 -37.5 -75s-38.167 -30 -67.5 -30
c-21.333 0 -39.166 5.83301 -53.499 17.5s-26 26.5 -35 44.5s-15.667 37.667 -20 59s-7.16602 41.666 -8.49902 60.999zM218 468.002c18.667 0 34.6689 -4.83301 48.002 -14.5s24.166 -22 32.499 -37s14.666 -31.667 18.999 -50s7.16602 -35.833 8.49902 -52.5h-220
c1.33301 17.333 4.33301 35 9 53s11.5 34.5 20.5 49.5s20.333 27.333 34 37s29.834 14.5 48.501 14.5z" />
    <glyph glyph-name="edieresis" unicode="&#xeb;" 
d="M246 629h84v99h-84v-99zM102 629h85v99h-85v-99zM100 237l310 0.00195312v31c0 28.667 -3 59.167 -9 91.5s-16.333 62 -31 89s-34.334 49.5 -59.001 67.5s-55.667 27 -93 27c-38.667 0 -70.667 -9.33301 -96 -28s-45.5 -42.167 -60.5 -70.5s-25.5 -59.333 -31.5 -93
s-9 -65.167 -9 -94.5c0 -30.667 3 -62.167 9 -94.5s16.5 -62 31.5 -89s35.167 -49.167 60.5 -66.5s57.666 -26 96.999 -26c51.333 0 92 15.167 122 45.5s51 71.166 63 122.499l-82 11c-9.33301 -30 -21.833 -55 -37.5 -75s-38.167 -30 -67.5 -30
c-21.333 0 -39.166 5.83301 -53.499 17.5s-26 26.5 -35 44.5s-15.667 37.667 -20 59s-7.16602 41.666 -8.49902 60.999zM218 468.002c18.667 0 34.6689 -4.83301 48.002 -14.5s24.166 -22 32.499 -37s14.666 -31.667 18.999 -50s7.16602 -35.833 8.49902 -52.5h-220
c1.33301 17.333 4.33301 35 9 53s11.5 34.5 20.5 49.5s20.333 27.333 34 37s29.834 14.5 48.501 14.5z" />
    <glyph glyph-name="igrave" unicode="&#xec;" horiz-adv-x="217" 
d="M89 592h74l-54 136h-108zM70 -8h81v539h-81v-539z" />
    <glyph glyph-name="iacute" unicode="&#xed;" horiz-adv-x="217" 
d="M140 591l84 137h-106l-52 -137h74zM70 -8h81v539h-81v-539z" />
    <glyph glyph-name="icircumflex" unicode="&#xee;" horiz-adv-x="217" 
d="M141 593h95l-87 135h-77l-83 -135h94l30 57zM70 -8h81v539h-81v-539z" />
    <glyph glyph-name="idieresis" unicode="&#xef;" horiz-adv-x="217" 
d="M140 629h84v99h-84v-99zM-4 629h85v99h-85v-99zM70 -8h81v539h-81v-539z" />
    <glyph glyph-name="eth" unicode="&#xf0;" horiz-adv-x="436" 
d="M216 -20c36.667 0 67.501 9.00098 92.501 27.001s45.167 40.5 60.5 67.5s26.166 56.667 32.499 89s9.5 62.833 9.5 91.5c0 68.667 -10.667 133.667 -32 195s-51 120 -89 176l64 38l-20 56l-85 -52l-26.5 27.5l-29.5 28.5h-87c21.333 -18.667 38.666 -34.667 51.999 -48
s25.666 -26.333 36.999 -39l-95 -55l19 -54l105 61c16.667 -25.333 30.667 -51.333 42 -78c-9.33301 5.33301 -19.166 9.33301 -29.499 12s-22.166 4 -35.499 4c-36 0 -65.5 -9.33301 -88.5 -28s-41.333 -41.834 -55 -69.501s-23.167 -57.5 -28.5 -89.5s-8 -61.333 -8 -88
c0 -29.333 3 -60 9 -92s16.333 -61.333 31 -88s34.667 -48.667 60 -66s57 -26 95 -26zM213.001 456.001c22.667 0 41.502 -6.66602 56.502 -19.999s26.833 -30 35.5 -50s14.667 -41.5 18 -64.5s5 -44.5 5 -64.5c0 -19.333 -1.66699 -40.833 -5 -64.5
s-9.16602 -45.834 -17.499 -66.501s-19.833 -38 -34.5 -52s-33.334 -21 -56.001 -21s-41.334 6.5 -56.001 19.5s-26.167 29.333 -34.5 49s-14 41 -17 64s-4.5 44.167 -4.5 63.5s1.33301 41 4 65s8 46.5 16 67.5s19.167 38.667 33.5 53s33.166 21.5 56.499 21.5z" />
    <glyph glyph-name="ntilde" unicode="&#xf1;" 
d="M278 596c16.667 0 30.333 3.66699 41 11s19.167 16.833 25.5 28.5s10.833 24.5 13.5 38.5s4 28 4 42h-61c-1.33301 -10.667 -2.83301 -20.334 -4.5 -29.001s-7.16699 -13 -16.5 -13c-7.33301 0 -14.833 2.16699 -22.5 6.5s-15.5 9 -23.5 14s-16.5 9.66699 -25.5 14
s-18.5 6.5 -28.5 6.5c-15.333 0 -28.5 -3.5 -39.5 -10.5s-19.833 -16.167 -26.5 -27.5s-11.5 -24.166 -14.5 -38.499s-4.5 -28.5 -4.5 -42.5h61c0 27.333 7 41 21 41c6 0 12.833 -2.16699 20.5 -6.5l24 -14c8.33301 -5 17.333 -9.66699 27 -14s19.5 -6.5 29.5 -6.5z
M305.999 -8l83.0029 -0.00195312v338c0 24 -1.5 48.667 -4.5 74s-9.66699 48.333 -20 69s-25.333 37.5 -45 50.5s-45.834 19.5 -78.501 19.5c-28 0 -52 -6 -72 -18s-37 -28 -51 -48v54h-74v-539h83v303c0 18.667 1.16699 38 3.5 58s7 38.333 14 55
s17.167 30.334 30.5 41.001s31 16 53 16c17.333 0 31.166 -4.16699 41.499 -12.5s18.166 -19.166 23.499 -32.499s8.83301 -28 10.5 -44s2.5 -31.667 2.5 -47v-337z" />
    <glyph glyph-name="ograve" unicode="&#xf2;" 
d="M195 592h74l-54 136h-108zM319 14c20.667 14.667 37.166 31.998 49.499 51.998s21.833 41.167 28.5 63.5s11.167 45.5 13.5 69.5s3.5 47.333 3.5 70c0 30 -3.16699 61 -9.5 93s-17.166 61.5 -32.499 88.5s-35.666 49.167 -60.999 66.5s-57 26 -95 26
c-39.333 0 -71.666 -9 -96.999 -27s-45.5 -40.667 -60.5 -68s-25.5 -57.666 -31.5 -90.999s-9 -65 -9 -95s3 -61.667 9 -95s16.5 -63.666 31.5 -90.999s35.167 -50 60.5 -68s57.666 -27 96.999 -27c37.333 0 71.666 11 102.999 33zM216.999 468.998
c22.667 0 41.501 -7.00195 56.501 -21.002s26.667 -31.167 35 -51.5s14.166 -42.333 17.499 -66s5 -45.5 5 -65.5s-1.5 -42.167 -4.5 -66.5s-8.66699 -47.166 -17 -68.499s-19.833 -39.166 -34.5 -53.499s-34 -21.5 -58 -21.5s-43.333 7 -58 21s-26.334 31.5 -35.001 52.5
s-14.5 43.5 -17.5 67.5s-4.5 46 -4.5 66s1.5 42 4.5 66s8.83301 46.5 17.5 67.5s20.334 38.5 35.001 52.5s34 21 58 21z" />
    <glyph glyph-name="oacute" unicode="&#xf3;" 
d="M247 591l84 137h-107l-51 -137h74zM319 14c20.667 14.667 37.166 31.998 49.499 51.998s21.833 41.167 28.5 63.5s11.167 45.5 13.5 69.5s3.5 47.333 3.5 70c0 30 -3.16699 61 -9.5 93s-17.166 61.5 -32.499 88.5s-35.666 49.167 -60.999 66.5s-57 26 -95 26
c-39.333 0 -71.666 -9 -96.999 -27s-45.5 -40.667 -60.5 -68s-25.5 -57.666 -31.5 -90.999s-9 -65 -9 -95s3 -61.667 9 -95s16.5 -63.666 31.5 -90.999s35.167 -50 60.5 -68s57.666 -27 96.999 -27c37.333 0 71.666 11 102.999 33zM216.999 468.998
c22.667 0 41.501 -7.00195 56.501 -21.002s26.667 -31.167 35 -51.5s14.166 -42.333 17.499 -66s5 -45.5 5 -65.5s-1.5 -42.167 -4.5 -66.5s-8.66699 -47.166 -17 -68.499s-19.833 -39.166 -34.5 -53.499s-34 -21.5 -58 -21.5s-43.333 7 -58 21s-26.334 31.5 -35.001 52.5
s-14.5 43.5 -17.5 67.5s-4.5 46 -4.5 66s1.5 42 4.5 66s8.83301 46.5 17.5 67.5s20.334 38.5 35.001 52.5s34 21 58 21z" />
    <glyph glyph-name="ocircumflex" unicode="&#xf4;" 
d="M244 593h95l-87 135h-77l-84 -135h95l29 57zM319 14c20.667 14.667 37.166 31.998 49.499 51.998s21.833 41.167 28.5 63.5s11.167 45.5 13.5 69.5s3.5 47.333 3.5 70c0 30 -3.16699 61 -9.5 93s-17.166 61.5 -32.499 88.5s-35.666 49.167 -60.999 66.5s-57 26 -95 26
c-39.333 0 -71.666 -9 -96.999 -27s-45.5 -40.667 -60.5 -68s-25.5 -57.666 -31.5 -90.999s-9 -65 -9 -95s3 -61.667 9 -95s16.5 -63.666 31.5 -90.999s35.167 -50 60.5 -68s57.666 -27 96.999 -27c37.333 0 71.666 11 102.999 33zM216.999 468.998
c22.667 0 41.501 -7.00195 56.501 -21.002s26.667 -31.167 35 -51.5s14.166 -42.333 17.499 -66s5 -45.5 5 -65.5s-1.5 -42.167 -4.5 -66.5s-8.66699 -47.166 -17 -68.499s-19.833 -39.166 -34.5 -53.499s-34 -21.5 -58 -21.5s-43.333 7 -58 21s-26.334 31.5 -35.001 52.5
s-14.5 43.5 -17.5 67.5s-4.5 46 -4.5 66s1.5 42 4.5 66s8.83301 46.5 17.5 67.5s20.334 38.5 35.001 52.5s34 21 58 21z" />
    <glyph glyph-name="otilde" unicode="&#xf5;" 
d="M267 596c16 0 29.332 3.66602 39.999 10.999s19.167 16.833 25.5 28.5s10.833 24.5 13.5 38.5s4 28 4 42h-61c-0.666992 -3.33301 -1.16699 -7.5 -1.5 -12.5s-1.16602 -9.66699 -2.49902 -14s-3.33301 -8 -6 -11s-6.33398 -4.5 -11.001 -4.5
c-7.33301 0 -14.833 2.16699 -22.5 6.5s-15.5 9 -23.5 14s-16.5 9.66699 -25.5 14s-18.5 6.5 -28.5 6.5c-15.333 0 -28.5 -3.5 -39.5 -10.5s-19.833 -16.167 -26.5 -27.5s-11.5 -24.166 -14.5 -38.499s-4.5 -28.5 -4.5 -42.5h61c0 27.333 7.33301 41 22 41
c6 0 12.667 -2.16699 20 -6.5l24 -14c8.66699 -5 17.834 -9.66699 27.501 -14s19.5 -6.5 29.5 -6.5zM318.999 13.999c20.667 14.667 37.166 31.998 49.499 51.998s21.833 41.167 28.5 63.5s11.167 45.5 13.5 69.5s3.5 47.333 3.5 70c0 30 -3.16699 61 -9.5 93
s-17.166 61.5 -32.499 88.5s-35.666 49.167 -60.999 66.5s-57 26 -95 26c-39.333 0 -71.666 -9 -96.999 -27s-45.5 -40.667 -60.5 -68s-25.5 -57.666 -31.5 -90.999s-9 -65 -9 -95s3 -61.667 9 -95s16.5 -63.666 31.5 -90.999s35.167 -50 60.5 -68s57.666 -27 96.999 -27
c37.333 0 71.666 11 102.999 33zM216.998 468.997c22.667 0 41.501 -7.00195 56.501 -21.002s26.667 -31.167 35 -51.5s14.166 -42.333 17.499 -66s5 -45.5 5 -65.5s-1.5 -42.167 -4.5 -66.5s-8.66699 -47.166 -17 -68.499s-19.833 -39.166 -34.5 -53.499
s-34 -21.5 -58 -21.5s-43.333 7 -58 21s-26.334 31.5 -35.001 52.5s-14.5 43.5 -17.5 67.5s-4.5 46 -4.5 66s1.5 42 4.5 66s8.83301 46.5 17.5 67.5s20.334 38.5 35.001 52.5s34 21 58 21z" />
    <glyph glyph-name="odieresis" unicode="&#xf6;" 
d="M247 629h84v99h-84v-99zM103 629h84v99h-84v-99zM319 14c20.667 14.667 37.166 31.998 49.499 51.998s21.833 41.167 28.5 63.5s11.167 45.5 13.5 69.5s3.5 47.333 3.5 70c0 30 -3.16699 61 -9.5 93s-17.166 61.5 -32.499 88.5s-35.666 49.167 -60.999 66.5
s-57 26 -95 26c-39.333 0 -71.666 -9 -96.999 -27s-45.5 -40.667 -60.5 -68s-25.5 -57.666 -31.5 -90.999s-9 -65 -9 -95s3 -61.667 9 -95s16.5 -63.666 31.5 -90.999s35.167 -50 60.5 -68s57.666 -27 96.999 -27c37.333 0 71.666 11 102.999 33zM216.999 468.998
c22.667 0 41.501 -7.00195 56.501 -21.002s26.667 -31.167 35 -51.5s14.166 -42.333 17.499 -66s5 -45.5 5 -65.5s-1.5 -42.167 -4.5 -66.5s-8.66699 -47.166 -17 -68.499s-19.833 -39.166 -34.5 -53.499s-34 -21.5 -58 -21.5s-43.333 7 -58 21s-26.334 31.5 -35.001 52.5
s-14.5 43.5 -17.5 67.5s-4.5 46 -4.5 66s1.5 42 4.5 66s8.83301 46.5 17.5 67.5s20.334 38.5 35.001 52.5s34 21 58 21z" />
    <glyph glyph-name="divide" unicode="&#xf7;" horiz-adv-x="430" 
d="M170 450h89v100h-89v-100zM23 312h384v82h-384v-82zM170 156h89v100h-89v-100z" />
    <glyph glyph-name="oslash" unicode="&#xf8;" horiz-adv-x="478" 
d="M237 -20c39.333 0 71.833 8.83301 97.5 26.5s46 40.167 61 67.5s25.5 57.5 31.5 90.5s9 64.833 9 95.5c0 36.667 -2.83301 69.667 -8.5 99s-17.5 60.333 -35.5 93l39 64l-48 40l-34 -54c-17.333 12 -34.833 21.833 -52.5 29.5s-37.5 11.5 -59.5 11.5
c-28.667 0 -54.334 -6.33301 -77.001 -19s-42.667 -29.667 -60 -51c-12 -14.667 -21.833 -31 -29.5 -49s-13.667 -36.833 -18 -56.5s-7.16602 -39.334 -8.49902 -59.001s-2 -38.167 -2 -55.5c0 -33.333 3 -65.833 9 -97.5s18.333 -62.167 37 -91.5l-38 -61l44 -45l37 58
c15.333 -11.333 32 -20.166 50 -26.499s36.667 -9.5 56 -9.5zM242 468c12.667 0 24.501 -3 35.501 -9s21.167 -13.667 30.5 -23l-169 -281c-5.33301 17.333 -9 35.333 -11 54s-3 37.667 -3 57c0 20 1.66699 41.833 5 65.5s9.33301 45.5 18 65.5s20.667 36.833 36 50.5
s34.666 20.5 57.999 20.5zM341.001 360c8 -33.333 12 -67.333 12 -102c0 -21.333 -1.66699 -43.833 -5 -67.5s-9.5 -45.5 -18.5 -65.5s-21.333 -36.5 -37 -49.5s-35.5 -19.5 -59.5 -19.5c-22 0 -42 8 -60 24z" />
    <glyph glyph-name="ugrave" unicode="&#xf9;" 
d="M211 592h73l-52 136h-109zM310 -8h75.999v539h-81v-298c0 -19.333 -1.16699 -39.333 -3.5 -60s-7.16602 -39.5 -14.499 -56.5s-17.666 -31.167 -30.999 -42.5s-31.333 -17 -54 -17c-22 0 -38.333 5.83301 -49 17.5s-18.334 26 -23.001 43s-7 35.167 -7 54.5v51v308h-80
v-340c0 -17.333 0.5 -35.166 1.5 -53.499s3.83301 -36.166 8.5 -53.499s12.167 -33.333 22.5 -48s24.5 -27 42.5 -37c11.333 -6.66699 23 -11.334 35 -14.001s24 -4 36 -4c26.667 0 50 6.16699 70 18.5s37 28.166 51 47.499v-55z" />
    <glyph glyph-name="uacute" unicode="&#xfa;" 
d="M242 591l84 137h-107l-51 -137h74zM310 -8h75.999v539h-81v-298c0 -19.333 -1.16699 -39.333 -3.5 -60s-7.16602 -39.5 -14.499 -56.5s-17.666 -31.167 -30.999 -42.5s-31.333 -17 -54 -17c-22 0 -38.333 5.83301 -49 17.5s-18.334 26 -23.001 43s-7 35.167 -7 54.5v51
v308h-80v-340c0 -17.333 0.5 -35.166 1.5 -53.499s3.83301 -36.166 8.5 -53.499s12.167 -33.333 22.5 -48s24.5 -27 42.5 -37c11.333 -6.66699 23 -11.334 35 -14.001s24 -4 36 -4c26.667 0 50 6.16699 70 18.5s37 28.166 51 47.499v-55z" />
    <glyph glyph-name="ucircumflex" unicode="&#xfb;" 
d="M242 593h95l-87 135h-77l-83 -135h94l29 57zM310 -8h75.999v539h-81v-298c0 -19.333 -1.16699 -39.333 -3.5 -60s-7.16602 -39.5 -14.499 -56.5s-17.666 -31.167 -30.999 -42.5s-31.333 -17 -54 -17c-22 0 -38.333 5.83301 -49 17.5s-18.334 26 -23.001 43
s-7 35.167 -7 54.5v51v308h-80v-340c0 -17.333 0.5 -35.166 1.5 -53.499s3.83301 -36.166 8.5 -53.499s12.167 -33.333 22.5 -48s24.5 -27 42.5 -37c11.333 -6.66699 23 -11.334 35 -14.001s24 -4 36 -4c26.667 0 50 6.16699 70 18.5s37 28.166 51 47.499v-55z" />
    <glyph glyph-name="udieresis" unicode="&#xfc;" 
d="M245 629h84v99h-84v-99zM101 629h84v99h-84v-99zM310 -8h75.999v539h-81v-298c0 -19.333 -1.16699 -39.333 -3.5 -60s-7.16602 -39.5 -14.499 -56.5s-17.666 -31.167 -30.999 -42.5s-31.333 -17 -54 -17c-22 0 -38.333 5.83301 -49 17.5s-18.334 26 -23.001 43
s-7 35.167 -7 54.5v51v308h-80v-340c0 -17.333 0.5 -35.166 1.5 -53.499s3.83301 -36.166 8.5 -53.499s12.167 -33.333 22.5 -48s24.5 -27 42.5 -37c11.333 -6.66699 23 -11.334 35 -14.001s24 -4 36 -4c26.667 0 50 6.16699 70 18.5s37 28.166 51 47.499v-55z" />
    <glyph glyph-name="yacute" unicode="&#xfd;" horiz-adv-x="391" 
d="M229 591l84 137h-107l-51 -137h74zM237 -4l156.999 534.999h-82l-90 -310l-11.5 -42l-10.5 -42c-16 65.333 -33.5 130.5 -52.5 195.5l-56.5 198.5h-87l158 -532c-3.33301 -11.333 -6.5 -25.166 -9.5 -41.499s-7.33301 -32 -13 -47s-13.167 -28 -22.5 -39
s-22 -16.5 -38 -16.5c-6 0 -12.667 0.833008 -20 2.5s-17.333 4.16699 -30 7.5l12 -67c8.66699 -5.33301 17.167 -9 25.5 -11s16.833 -3 25.5 -3c24 0 44.167 7.66699 60.5 23s29.833 34 40.5 56s19.334 45.167 26.001 69.5z" />
    <glyph glyph-name="thorn" unicode="&#xfe;" 
d="M320 16c18 14 32.835 30.8311 44.502 50.498s21 40.667 28 63s11.833 45 14.5 68s4 44.833 4 65.5c0 26.667 -2.83301 56 -8.5 88s-15.334 61.833 -29.001 89.5s-32.167 50.834 -55.5 69.501s-53 28 -89 28c-24.667 0 -44.834 -4.66699 -60.501 -14
s-30.167 -22 -43.5 -38v238h-81v-931h83v236c12.667 -14.667 26.5 -26.5 41.5 -35.5s34.167 -13.5 57.5 -13.5c17.333 0 34 3.33301 50 10s30.667 15.334 44 26.001zM226.002 466.998c21.333 0 38.832 -7.33008 52.499 -21.9971s24.334 -32.5 32.001 -53.5
s12.834 -43.167 15.501 -66.5s4 -44 4 -62c0 -18.667 -1.33301 -40 -4 -64s-7.83398 -46.833 -15.501 -68.5s-18.5 -39.834 -32.5 -54.501s-32.333 -22 -55 -22c-22 0 -39.833 7.16699 -53.5 21.5s-24.167 31.666 -31.5 51.999s-12.333 42.166 -15 65.499s-4 44 -4 62
s1.5 39.167 4.5 63.5s8.5 47.5 16.5 69.5s19 40.667 33 56s31.667 23 53 23z" />
    <glyph glyph-name="ydieresis" unicode="&#xff;" horiz-adv-x="391" 
d="M230 629h84v99h-84v-99zM86 629h85v99h-85v-99zM237 -4l156.999 534.999h-82l-90 -310l-11.5 -42l-10.5 -42c-16 65.333 -33.5 130.5 -52.5 195.5l-56.5 198.5h-87l158 -532c-3.33301 -11.333 -6.5 -25.166 -9.5 -41.499s-7.33301 -32 -13 -47s-13.167 -28 -22.5 -39
s-22 -16.5 -38 -16.5c-6 0 -12.667 0.833008 -20 2.5s-17.333 4.16699 -30 7.5l12 -67c8.66699 -5.33301 17.167 -9 25.5 -11s16.833 -3 25.5 -3c24 0 44.167 7.66699 60.5 23s29.833 34 40.5 56s19.334 45.167 26.001 69.5z" />
    <glyph glyph-name="OE" unicode="&#x152;" horiz-adv-x="782" 
d="M421 -8l345.002 0.000976562v84h-262v253h231v83h-231v228h250v84h-332v-75c-16 26 -35.833 47 -59.5 63s-52.5 24 -86.5 24c-33.333 0 -62.166 -5.83301 -86.499 -17.5s-45.333 -27.5 -63 -47.5s-32 -42.833 -43 -68.5s-19.833 -52.5 -26.5 -80.5s-11.167 -56 -13.5 -84
s-3.5 -54.333 -3.5 -79c0 -24 1.33301 -50 4 -78s7.16699 -56 13.5 -84s15.166 -55.167 26.499 -81.5s25.666 -49.5 42.999 -69.5s38.166 -36 62.499 -48s52.833 -18 85.5 -18c34 0 62.833 8.16699 86.5 24.5s43.5 37.166 59.5 62.499v-75zM374.002 588.001
c9.33301 -14.667 16.999 -31.3359 22.999 -50.0029s10.5 -38 13.5 -58s5 -40.167 6 -60.5s1.5 -39.166 1.5 -56.499c0 -18 -0.5 -37.667 -1.5 -59s-3 -42.666 -6 -63.999s-7.5 -42 -13.5 -62s-13.667 -37.333 -23 -52c-12 -19.333 -26 -35.666 -42 -48.999
s-35.667 -20 -59 -20c-22.667 0 -42.167 6.66699 -58.5 20s-30.5 29.666 -42.5 48.999c-9.33301 14.667 -16.833 31.334 -22.5 50.001s-10.167 38 -13.5 58s-5.5 40 -6.5 60s-1.5 38.667 -1.5 56c0 22 0.666992 45.833 2 71.5s4.5 51.167 9.5 76.5s12.333 49.166 22 71.499
s22.834 40.833 39.501 55.5c10.667 9.33301 22 17 34 23s24.667 9 38 9c22.667 0 42.167 -6.66699 58.5 -20s30.5 -29.666 42.5 -48.999z" />
    <glyph glyph-name="oe" unicode="&#x153;" horiz-adv-x="738" 
d="M416 238h302.001c-1.33301 30.667 -5.16602 63.834 -11.499 99.501s-16.833 68.667 -31.5 99s-34.5 55.666 -59.5 75.999s-56.833 30.5 -95.5 30.5c-32.667 0 -61 -8.83301 -85 -26.5s-43.667 -39.167 -59 -64.5c-15.333 28 -36.166 50.167 -62.499 66.5
s-55.833 24.5 -88.5 24.5c-40 0 -73 -9.16699 -99 -27.5s-46.5 -41.666 -61.5 -69.999s-25.5 -59.5 -31.5 -93.5s-9 -66.333 -9 -97c0 -30 3.16699 -61.167 9.5 -93.5s17.166 -61.833 32.499 -88.5s35.666 -48.667 60.999 -66s57.333 -26 96 -26c34 0 63.5 8 88.5 24
s46.167 36.667 63.5 62c16.667 -28 38.334 -49.333 65.001 -64s56.334 -22 89.001 -22c51.333 0 91.666 15.667 120.999 47s49.666 72.333 60.999 123l-79 14c-7.33301 -31.333 -18.833 -57.666 -34.5 -78.999s-37.834 -32 -66.501 -32c-21.333 0 -39 6 -53 18
s-25.5 27.167 -34.5 45.5s-15.667 38.166 -20 59.499s-6.83301 41.666 -7.5 60.999zM531.001 468c18.667 0 34.6699 -4.83301 48.0029 -14.5s24.166 -22 32.499 -37s14.666 -31.667 18.999 -50s7.16602 -36.166 8.49902 -53.499h-219
c1.33301 17.333 4.33301 35.166 9 53.499s11.5 35 20.5 50s20.167 27.333 33.5 37s29.333 14.5 48 14.5zM221.004 468c23.333 0 42.499 -7.00098 57.499 -21.001s26.667 -31.167 35 -51.5s14.166 -42.333 17.499 -66s5 -45.5 5 -65.5s-1.66699 -42 -5 -66
s-9.33301 -46.667 -18 -68s-20.5 -39.166 -35.5 -53.499s-33.833 -21.5 -56.5 -21.5c-24 0 -43.333 7 -58 21s-26.167 31.5 -34.5 52.5s-14 43.667 -17 68s-4.5 46.5 -4.5 66.5c0 19.333 1.66699 40.833 5 64.5s9.33301 46 18 67s20.334 38.5 35.001 52.5
s33.334 21 56.001 21z" />
    <glyph glyph-name="Scaron" unicode="&#x160;" horiz-adv-x="521" 
d="M301 771l84 131h-93l-40 -79l-41 79h-91l78 -131h103zM273 -20c32 0 60.9951 5.66699 86.9951 17s48.5 26.666 67.5 45.999s33.667 42.333 44 69s15.5 55.667 15.5 87c0 36 -5.33301 66 -16 90s-24.667 44 -42 60s-37 28.833 -59 38.5s-44.333 18.167 -67 25.5l-33.5 10
l-31.5 10c-13.333 4.66699 -26.5 9.66699 -39.5 15s-24.5 12.166 -34.5 20.499s-18.167 18.333 -24.5 30s-9.5 26.167 -9.5 43.5c0 37.333 11.667 64.5 35 81.5s52.666 25.5 87.999 25.5c42.667 0 74.334 -11.333 95.001 -34s33 -57 37 -103l81 9
c-2 68.667 -22.5 121.667 -61.5 159s-90.5 56 -154.5 56c-30 0 -57.333 -4.83301 -82 -14.5s-46 -23.5 -64 -41.5s-31.833 -39.5 -41.5 -64.5s-14.5 -52.5 -14.5 -82.5c0 -34 5.33301 -62.333 16 -85s24.834 -41.5 42.501 -56.5s37.5 -27 59.5 -36s44 -16.833 66 -23.5
l33 -10c10.667 -3.33301 21.334 -7 32.001 -11c14.667 -5.33301 28.5 -11.166 41.5 -17.499s24.333 -14.166 34 -23.499s17.334 -20.5 23.001 -33.5s8.5 -28.5 8.5 -46.5c0 -40 -12.667 -70.5 -38 -91.5s-57.666 -31.5 -96.999 -31.5c-50.667 0 -89.167 14.167 -115.5 42.5
s-42.166 69.166 -47.499 122.499l-77 -9c1.33301 -79.333 23.833 -139.666 67.5 -180.999s102.5 -62 176.5 -62z" />
    <glyph glyph-name="scaron" unicode="&#x161;" horiz-adv-x="391" 
d="M244 597l84 131h-93l-40 -79l-41 79h-91l78 -131h103zM197 -19c24.667 0 47.3291 4.16309 67.9961 12.4961s38.334 20 53.001 35s26 32.833 34 53.5s12 43.334 12 68.001c0 26 -4 47.833 -12 65.5s-18.5 32.334 -31.5 44.001s-27.5 21 -43.5 28s-32.333 13.167 -49 18.5
c-8 2.66699 -16.167 5.16699 -24.5 7.5s-16.166 4.83301 -23.499 7.5c-9.33301 2.66699 -18.5 6 -27.5 10s-17.167 8.83301 -24.5 14.5s-13.333 12.667 -18 21s-7 18.5 -7 30.5c0 25.333 7.66699 43.666 23 54.999s35 17 59 17c49.333 0 77.333 -28.333 84 -85l76 12
c-7.33301 52 -24.5 89.5 -51.5 112.5s-64.833 34.5 -113.5 34.5c-23.333 0 -44.333 -3.83301 -63 -11.5s-34.667 -18.5 -48 -32.5s-23.666 -30.5 -30.999 -49.5s-11 -39.833 -11 -62.5c0 -26 4 -47.667 12 -65s18.167 -31.666 30.5 -42.999s26.5 -20.666 42.5 -27.999
s32 -13.666 48 -18.999c8 -2.66699 16 -5.16699 24 -7.5s15.667 -4.83301 23 -7.5c9.33301 -3.33301 18.5 -7 27.5 -11s17 -8.83301 24 -14.5s12.667 -12.5 17 -20.5s6.5 -18 6.5 -30c0 -27.333 -7.83301 -48.5 -23.5 -63.5s-37.167 -22.5 -64.5 -22.5
c-31.333 0 -54.666 9 -69.999 27s-25.333 44.667 -30 80l-76 -17c8.66699 -56 27.167 -97.333 55.5 -124s69.5 -40 123.5 -40z" />
    <glyph glyph-name="Ydieresis" unicode="&#x178;" horiz-adv-x="521" 
d="M290 768h84v100h-84v-100zM146 768h84v100h-84v-100zM299 302l229 422h-99l-87.5 -165c-29 -53.333 -56.167 -108 -81.5 -164c-25.333 56 -52.333 110.667 -81 164l-87 165h-103l223 -422v-310h87v310z" />
    <glyph glyph-name="florin" unicode="&#x192;" 
d="M407 638l13.998 77c-15.333 5.33301 -30.5 10.333 -45.5 15s-29.5 7 -43.5 7c-28 0 -49.667 -7.33301 -65 -22s-27 -32.667 -35 -54s-13.333 -44.166 -16 -68.499l-7 -65.5h-76l-10 -70h78l-69 -518l-2.5 -22.5c-1 -9 -3 -17.5 -6 -25.5s-7.16699 -14.833 -12.5 -20.5
s-12.333 -8.5 -21 -8.5c-9.33301 0 -19.333 1.16699 -30 3.5s-22.667 5.16602 -36 8.49902l-13 -76c17.333 -5.33301 33.333 -9.33301 48 -12s29.334 -4 44.001 -4c20.667 0 37.334 4.16699 50.001 12.5s22.667 19 30 32s12.833 27.5 16.5 43.5s6.5 31.333 8.5 46l74 544h79
l9 67h-78l7 46c0.666992 6.66699 1.66699 14.5 3 23.5s3.33301 17.833 6 26.5s6.5 16 11.5 22s12.167 9 21.5 9s19.333 -1.5 30 -4.5s22.667 -6.83301 36 -11.5z" />
    <glyph glyph-name="circumflex" unicode="&#x2c6;" horiz-adv-x="256" 
d="M157 593h95l-87 135h-77l-83 -135h94l30 57z" />
    <glyph glyph-name="tilde" unicode="&#x2dc;" horiz-adv-x="260" 
d="M180 596c16.667 0 30.332 3.66504 40.999 10.998s19 16.833 25 28.5s10.333 24.5 13 38.5s4 28 4 42h-62c-0.666992 -11.333 -1.66699 -21.166 -3 -29.499s-6.66602 -12.5 -15.999 -12.5c-8 0 -15.833 2.16699 -23.5 6.5s-15.5 9 -23.5 14s-16.333 9.66699 -25 14
s-18 6.5 -28 6.5c-15.333 0 -28.5 -3.5 -39.5 -10.5s-20 -16.167 -27 -27.5s-12 -24.166 -15 -38.499s-4.5 -28.5 -4.5 -42.5h62c0 27.333 7 41 21 41c6 0 12.833 -2.16699 20.5 -6.5l24 -14c8.33301 -5 17.333 -9.66699 27 -14s19.5 -6.5 29.5 -6.5z" />
    <glyph glyph-name="endash" unicode="&#x2013;" 
d="M-9 224h450v70h-450v-70z" />
    <glyph glyph-name="emdash" unicode="&#x2014;" horiz-adv-x="785" 
d="M-8 224h801v70h-801v-70z" />
    <glyph glyph-name="quoteleft" unicode="&#x2018;" horiz-adv-x="174" 
d="M93 598c1.33301 18.667 4.66699 36.501 10 53.501s17.333 30.833 36 41.5l-22 40c-17.333 -9.33301 -31 -19.833 -41 -31.5s-17.5 -24.167 -22.5 -37.5s-8.16699 -27.333 -9.5 -42s-2 -29.334 -2 -44.001v-84h88v104h-37z" />
    <glyph glyph-name="quoteright" unicode="&#x2019;" horiz-adv-x="174" 
d="M54 483c16.667 10 29.998 21.167 39.998 33.5s17.333 25.5 22 39.5s7.66699 28.5 9 43.5s2 29.833 2 44.5v87h-84v-101h34c-1.33301 -19.333 -4.66602 -38.833 -9.99902 -58.5s-16.666 -35.167 -33.999 -46.5z" />
    <glyph glyph-name="quotesinglbase" unicode="&#x201a;" horiz-adv-x="174" 
d="M53 -139c16.667 8.66699 29.833 18.832 39.5 30.499s17 24 22 37s8.16699 26.5 9.5 40.5s2 28 2 42v81h-86v-100h36c-1.33301 -17.333 -4.5 -34.166 -9.5 -50.499s-15.833 -29.5 -32.5 -39.5z" />
    <glyph glyph-name="quotedblleft" unicode="&#x201c;" horiz-adv-x="261" 
d="M195 598c1.33301 18.667 4.66797 36.334 10.001 53.001s16.666 30.667 33.999 42l-20 40c-17.333 -9.33301 -31 -19.833 -41 -31.5s-17.5 -24.167 -22.5 -37.5s-8.16699 -27.333 -9.5 -42s-2 -29.334 -2 -44.001v-84h87v104h-36zM75.002 598
c1.33301 18.667 4.66602 36.334 9.99902 53.001s17 30.667 35 42l-20 40c-17.333 -9.33301 -31 -19.833 -41 -31.5s-17.667 -24.167 -23 -37.5s-8.66602 -27.333 -9.99902 -42s-2 -29.334 -2 -44.001v-84h88v104h-37z" />
    <glyph glyph-name="quotedblright" unicode="&#x201d;" horiz-adv-x="261" 
d="M159 483c16.667 10 29.998 21.167 39.998 33.5s17.333 25.5 22 39.5s7.66699 28.5 9 43.5s2 29.833 2 44.5v87h-84v-101h34c-1.33301 -19.333 -4.66602 -38.833 -9.99902 -58.5s-16.666 -35.167 -33.999 -46.5zM37.998 483c17.333 10 30.833 21.167 40.5 33.5
s17 25.5 22 39.5s8.16699 28.5 9.5 43.5s2 29.833 2 44.5v87h-84v-101h34c-1.33301 -19.333 -4.5 -38.833 -9.5 -58.5s-16.167 -35.167 -33.5 -46.5z" />
    <glyph glyph-name="quotedblbase" unicode="&#x201e;" horiz-adv-x="261" 
d="M158 -139c16.667 8.66699 29.833 18.833 39.5 30.5s17 24 22 37s8.16699 26.5 9.5 40.5s2 28 2 42v81h-86v-100h36c-1.33301 -17.333 -4.5 -34.333 -9.5 -51s-15.833 -29.667 -32.5 -39zM37.999 -139.001c16.667 8.66699 29.833 18.833 39.5 30.5s17 24 22 37
s8.16699 26.5 9.5 40.5s2 28 2 42v81h-85v-100h35c-1.33301 -17.333 -4.5 -34.333 -9.5 -51s-15.833 -29.667 -32.5 -39z" />
    <glyph glyph-name="dagger" unicode="&#x2020;" 
d="M255 521h154v77h-154v207h-81v-207h-154v-77h154v-592h81v592z" />
    <glyph glyph-name="daggerdbl" unicode="&#x2021;" 
d="M257 4h154v78h-154v371h154v78h-154v183h-81v-183h-155v-78h155v-371h-155v-78h155v-173h81v173z" />
    <glyph glyph-name="bullet" unicode="&#x2022;" horiz-adv-x="274" 
d="M128 288c13.333 0 26.165 2.5 38.498 7.5s23 11.833 32 20.5s16.167 19 21.5 31s8 25 8 39s-2.66699 27 -8 39s-12.5 22.167 -21.5 30.5s-19.667 15 -32 20s-25.166 7.5 -38.499 7.5c-27.333 0 -50.666 -9.16699 -69.999 -27.5s-29 -41.5 -29 -69.5
c0 -14 2.66699 -27 8 -39s12.5 -22.333 21.5 -31s19.5 -15.5 31.5 -20.5s24.667 -7.5 38 -7.5z" />
    <glyph glyph-name="ellipsis" unicode="&#x2026;" horiz-adv-x="782" 
d="M610 -8h90v99h-90v-99zM346 -8h90v99h-90v-99zM83 -8h90v99h-90v-99z" />
    <glyph glyph-name="perthousand" unicode="&#x2030;" horiz-adv-x="782" 
d="M642 -34c26.667 0 47.667 6.83203 63 20.499s27 30.5 35 50.5s13 41.333 15 64s3 43 3 61c0 16.667 -1.33301 36 -4 58s-8.16699 42.5 -16.5 61.5s-20.166 35.167 -35.499 48.5s-35.666 20 -60.999 20c-26 0 -46.667 -6.66699 -62 -20s-27 -29.833 -35 -49.5
s-13.167 -40.5 -15.5 -62.5s-3.5 -41.333 -3.5 -58c0 -17.333 1.16699 -37.166 3.5 -59.499s7.66602 -43.5 15.999 -63.5s20.166 -36.833 35.499 -50.5s36 -20.5 62 -20.5zM121 345.999c26.667 0 47.666 7.00098 62.999 21.001s26.833 31 34.5 51s12.5 41.333 14.5 64
s3 42.667 3 60s-1.33301 36.833 -4 58.5s-8 42.167 -16 61.5s-19.667 35.5 -35 48.5s-35.666 19.5 -60.999 19.5c-26 0 -46.5 -6.66699 -61.5 -20s-26.5 -29.833 -34.5 -49.5s-13.167 -40.334 -15.5 -62.001s-3.5 -40.834 -3.5 -57.501
c0 -17.333 1.16699 -37.166 3.5 -59.499s7.5 -43.5 15.5 -63.5s19.667 -37 35 -51s36 -21 62 -21zM176.999 -28l234 764h-64l-235 -764h65zM400.999 -34c26.667 0 47.667 6.99805 63 20.998s27 31 35 51s13 41.333 15 64s3 42.667 3 60s-1.33301 36.833 -4 58.5
s-8.16699 42.167 -16.5 61.5s-20.166 35.5 -35.499 48.5s-35.666 19.5 -60.999 19.5c-26 0 -46.667 -6.66699 -62 -20s-27 -29.666 -35 -48.999s-13.167 -40 -15.5 -62s-3.5 -41.667 -3.5 -59s1.16699 -37.166 3.5 -59.499s7.66602 -43.5 15.999 -63.5
s20.166 -36.833 35.499 -50.5s36 -20.5 62 -20.5zM641.999 285.998c12.667 0 22.3291 -5.16797 28.9961 -15.501s11.334 -22.5 14.001 -36.5s4 -28.333 4 -43v-34c0 -8 -0.166992 -19.167 -0.5 -33.5s-1.83301 -28.5 -4.5 -42.5s-7.16699 -26.167 -13.5 -36.5
s-15.166 -15.5 -26.499 -15.5c-13.333 0 -23.5 5 -30.5 15s-12 21.833 -15 35.5s-4.5 27.5 -4.5 41.5v35c0 8.66699 0.166992 20.334 0.5 35.001s1.83301 29 4.5 43s7.33398 26.167 14.001 36.5s16.334 15.5 29.001 15.5zM120.994 665.997
c12.667 0 22.3301 -5.16699 28.9971 -15.5s11.334 -22.5 14.001 -36.5s4 -28.333 4 -43v-34c0 -8 -0.166992 -19.167 -0.5 -33.5s-1.83301 -28.5 -4.5 -42.5s-7.16699 -26.167 -13.5 -36.5s-15.166 -15.5 -26.499 -15.5c-12.667 0 -22.334 5 -29.001 15
s-11.5 21.833 -14.5 35.5s-4.66699 27.667 -5 42s-0.5 25.833 -0.5 34.5v35c0 14.667 1.33301 29 4 43s7.33398 26.167 14.001 36.5s16.334 15.5 29.001 15.5zM401.99 285.997c12.667 0 22.1689 -5.16699 28.502 -15.5s10.833 -22.5 13.5 -36.5s4.16699 -28.333 4.5 -43
s0.5 -26 0.5 -34s-0.166992 -19.167 -0.5 -33.5s-2 -28.5 -5 -42.5s-7.5 -26.167 -13.5 -36.5s-15 -15.5 -27 -15.5c-12.667 0 -22.334 5 -29.001 15s-11.5 21.833 -14.5 35.5s-4.66699 27.667 -5 42s-0.5 25.833 -0.5 34.5v35c0 14.667 1.5 29 4.5 43
s7.66699 26.167 14 36.5s16.166 15.5 29.499 15.5z" />
    <glyph glyph-name="guilsinglleft" unicode="&#x2039;" horiz-adv-x="260" 
d="M148 36h72l-101 222l100 220h-69l-121 -222z" />
    <glyph glyph-name="guilsinglright" unicode="&#x203a;" horiz-adv-x="260" 
d="M97 38l115 223l-115 217h-70l100 -220l-100 -220h70z" />
    <glyph glyph-name="trademark" unicode="&#x2122;" horiz-adv-x="782" 
d="M626 331h64v393h-88l-71 -294l-74 294h-89v-397h63v265l66 -265h68l61 252v-248zM243 662h101v62h-267v-62h101v-336h65v336z" />
    <glyph glyph-name="minus" unicode="&#xe000;" horiz-adv-x="644" 
d="M462 276h156v440h-386l200 -200l65 81h31l-148 -180zM191 289l151 188l-191 191h-131v-268h140v148h31v-259zM352 2h266v238h-163l87 -150h-42l-148 260v-348zM20 -47h247v345l-75 -93v-164h-32v323h-140v-411z" />
    <glyph glyph-name="notequal" unicode="&#xe001;" horiz-adv-x="430" 
d="M195 198h212v90h-181l47 133h134v85h-109l77 222h-63l-79 -225h-210v-82h183l-48 -136h-135v-82h107l-78 -225h68z" />
    <glyph glyph-name="infinity" unicode="&#xe002;" horiz-adv-x="557" 
d="M390 467c23.333 0 42.665 4.33008 57.998 12.9971s27.5 19.5 36.5 32.5s15.167 27.167 18.5 42.5s5 30 5 44s-2 28.333 -6 43s-10.667 28.334 -20 41.001s-21.666 23 -36.999 31s-34 12 -56 12c-30 0 -52.5 -7 -67.5 -21s-28.5 -31 -40.5 -51
c-6 8.66699 -12.5 17.167 -19.5 25.5s-14.833 15.833 -23.5 22.5s-18.167 12.167 -28.5 16.5s-21.5 6.5 -33.5 6.5c-16.667 0 -32.5 -4.16699 -47.5 -12.5s-28.333 -18.833 -40 -31.5s-20.834 -26.667 -27.501 -42s-10 -30.333 -10 -45s3.33301 -29.667 10 -45
s15.667 -29.333 27 -42s24.5 -23.167 39.5 -31.5s31.167 -12.5 48.5 -12.5c12 0 23.167 2.16699 33.5 6.5s19.833 10 28.5 17s16.667 14.833 24 23.5s14 17.334 20 26.001c6.66699 -11.333 13.334 -21.166 20.001 -29.499s14 -15.5 22 -21.5s17.333 -10.5 28 -13.5
s23.334 -4.5 38.001 -4.5zM387.999 674.997c12.667 0 23.001 -2.5 31.001 -7.5s14.5 -11.5 19.5 -19.5s8.5 -16.667 10.5 -26s3 -18.333 3 -27c0 -8 -1 -16.667 -3 -26s-5.33301 -17.833 -10 -25.5s-11.167 -14 -19.5 -19s-18.5 -7.5 -30.5 -7.5
c-11.333 0 -20.833 2.5 -28.5 7.5s-14.334 11.5 -20.001 19.5s-10.5 16.667 -14.5 26s-8 18 -12 26c4 7.33301 8.16699 15.5 12.5 24.5s9.5 17.5 15.5 25.5s12.667 14.833 20 20.5s16 8.5 26 8.5zM236 613.997l6 -9.99902l6 -10c-3.33301 -6 -7.5 -13 -12.5 -21
s-10.667 -15.833 -17 -23.5s-13 -14 -20 -19s-14.167 -7.5 -21.5 -7.5c-8.66699 0 -17.167 2.5 -25.5 7.5s-15.666 11 -21.999 18s-11.5 14.667 -15.5 23s-6 16.166 -6 23.499c0 6.66699 1.83301 14.167 5.5 22.5s8.66699 16 15 23s13.666 12.833 21.999 17.5
s16.833 7 25.5 7c13.333 0 25 -6 35 -18s18.333 -23 25 -33z" />
    <glyph glyph-name="lessequal" unicode="&#xe003;" horiz-adv-x="429" 
d="M23 376l384 -208v89l-299 156l298 153v88l-383 -204v-74zM22 52h384v81h-384v-81z" />
    <glyph glyph-name="greaterequal" unicode="&#xe004;" horiz-adv-x="429" 
d="M23 169l383 205v77l-384 204v-87l300 -156l-299 -157v-86zM23 52h384v81h-384v-81z" />
    <glyph glyph-name="partialdiff" unicode="&#xe005;" horiz-adv-x="387" 
d="M255 34c25.333 22.667 46 51.3311 62 85.998s28.667 71.334 38 110.001s15.833 77.5 19.5 116.5s5.5 74.167 5.5 105.5c0 13.333 -0.5 29.833 -1.5 49.5s-3.16699 40 -6.5 61s-7.83301 41.833 -13.5 62.5s-13.5 39.167 -23.5 55.5s-22 29.666 -36 39.999
s-30.667 15.5 -50 15.5c-20 0 -37.833 -5.16699 -53.5 -15.5s-29.5 -23.166 -41.5 -38.499s-22.333 -32.333 -31 -51s-15.667 -36 -21 -52l61 -33c3.33301 12 7.33301 25.167 12 39.5s10.334 27.833 17.001 40.5s14.5 23.334 23.5 32.001s19.833 13 32.5 13
c18 0 32 -9.16699 42 -27.5s17.333 -39.833 22 -64.5s7.5 -49 8.5 -73s1.5 -42 1.5 -54c-45.333 -2 -87 -9.5 -125 -22.5s-70.5 -31.667 -97.5 -56s-48 -54.833 -63 -91.5s-22.5 -79.334 -22.5 -128.001c0 -18.667 1.83301 -38.167 5.5 -58.5s10.334 -39 20.001 -56
s22.5 -31.167 38.5 -42.5s36.333 -17 61 -17c23.333 0 44.666 5.33301 63.999 16s36.666 23.334 51.999 38.001zM123 262.997c10.667 22.667 22.333 41.3291 35 55.9961s27 26.5 43 35.5s33.667 15.5 53 19.5s41 7 65 9c-2 -25.333 -5.33301 -52.666 -10 -81.999
s-11.167 -58.166 -19.5 -86.499s-18.833 -54.833 -31.5 -79.5s-28.334 -44.667 -47.001 -60c-9.33301 -7.33301 -18.666 -13.333 -27.999 -18s-19.333 -7 -30 -7c-10 0 -18.5 2.83301 -25.5 8.5s-13 12.834 -18 21.501s-8.66699 18.334 -11 29.001s-3.5 20.667 -3.5 30
c0 21.333 2.5 42.5 7.5 63.5s11.833 41.167 20.5 60.5z" />
    <glyph glyph-name="summation" unicode="&#xe006;" horiz-adv-x="558" 
d="M38 -218h499v80h-403l253 406l-242 391h388v77h-488v-94l232 -376l-239 -384v-100z" />
    <glyph glyph-name="product" unicode="&#xe007;" horiz-adv-x="644" 
d="M505 -218h85v954h-537v-954h86v870h366v-870z" />
    <glyph glyph-name="pi" unicode="&#xe008;" horiz-adv-x="436" 
d="M304 -207l83.001 -0.000976562v738h-75v-51c-13.333 18.667 -28.833 33.834 -46.5 45.501s-39.167 17.5 -64.5 17.5c-36 0 -65.667 -9.33301 -89 -28s-41.833 -42 -55.5 -70s-23.167 -58 -28.5 -90s-8 -61.333 -8 -88s2.83301 -56.5 8.5 -89.5s15.5 -64 29.5 -93
s33 -53.5 57 -73.5s54 -30 90 -30c19.333 0 37.666 4.33301 54.999 13s32 20 44 34v-235zM205.001 470.999c23.333 0 41.999 -8.16602 55.999 -24.499s24.833 -36 32.5 -59s12.667 -46.833 15 -71.5s3.5 -45.334 3.5 -62.001c0 -18 -1.33301 -38.333 -4 -61
s-7.66699 -44.334 -15 -65.001s-17.666 -38 -30.999 -52s-30.666 -21 -51.999 -21c-22 0 -40 7.33301 -54 22s-25 32.667 -33 54s-13.333 44 -16 68s-4 45.333 -4 64c0 16.667 1 36.834 3 60.501s6.5 46.5 13.5 68.5s17.167 40.667 30.5 56s31.666 23 54.999 23z" />
    <glyph glyph-name="integral" unicode="&#xe009;" horiz-adv-x="208" 
d="M173 808c14.667 0 25.4951 5.5 32.4951 16.5s10.5 22.167 10.5 33.5c0 14.667 -5.83301 26.834 -17.5 36.501s-24.167 14.5 -37.5 14.5c-18 0 -32.667 -7.83301 -44 -23.5s-20.333 -34.167 -27 -55.5s-11.167 -43 -13.5 -65s-3.5 -39.333 -3.5 -52
c-1.33301 -57.333 -2.83301 -114.833 -4.5 -172.5s-2.5 -115.5 -2.5 -173.5c0 -53.333 1.16699 -106.5 3.5 -159.5s5.83301 -105.833 10.5 -158.5c1.33301 -9.33301 2.33301 -18.833 3 -28.5s1 -19.167 1 -28.5v-13c0 -6 -2.33301 -9 -7 -9
c-1.33301 0 -2.66602 0.666992 -3.99902 2l-4 4l-5 5c-3.33301 4 -7.33301 7.83301 -12 11.5s-11 5.5 -19 5.5c-14 0 -24.333 -5 -31 -15s-10 -20.667 -10 -32c0 -14.667 4.33301 -27.834 13 -39.501s21.334 -17.5 38.001 -17.5c14.667 0 27 4.5 37 13.5
s18.5 20.667 25.5 35s12.333 30.333 16 48s6.33398 35.167 8.00098 52.5s2.83398 33.666 3.50098 48.999s1 27.666 1 36.999l4 143.5c1.33301 47.667 2 95.5 2 143.5c0 54 -1.5 108 -4.5 162s-6.16699 108 -9.5 162c-2 22.667 -3 46 -3 70c0 3.33301 -0.166992 8 -0.5 14
s1.83398 9 6.50098 9c1.33301 0 2.83301 -0.666992 4.5 -2s3.16699 -2.66602 4.5 -3.99902l5 -4c3.33301 -3.33301 7.33301 -6.66602 12 -9.99902s10.667 -5 18 -5z" />
    <glyph glyph-name="Omega" unicode="&#xe00a;" horiz-adv-x="824" 
d="M598 218h232v21h-245l-110 190l240 295h-98l-91 -112l-286 286l-15 -15l287 -289l-181 -225v355h-86v-224h-237v-22h237v-486h88v259l73 90v-507h22v494l191 -336h110z" />
    <glyph glyph-name="radical" unicode="&#xe00b;" horiz-adv-x="425" 
d="M310 -61l124 979h-41l-98 -768l-146 376l-127 -80l16 -36l74 42z" />
    <glyph glyph-name="approxequal" unicode="&#xe00c;" horiz-adv-x="429" 
d="M303 365c23.333 0 43.833 4.66699 61.5 14s34.5 23 50.5 41v116c-18 -24 -35.667 -42.833 -53 -56.5s-34.666 -20.5 -51.999 -20.5c-13.333 0 -26.833 3.5 -40.5 10.5s-27.834 14.833 -42.501 23.5s-30.334 16.5 -47.001 23.5s-34.667 10.5 -54 10.5
c-24 0 -45.333 -5.5 -64 -16.5s-35 -26.833 -49 -47.5v-109c20.667 23.333 38.834 41.833 54.501 55.5s33.167 20.5 52.5 20.5c14.667 0 29 -3.33301 43 -10s28.167 -14.167 42.5 -22.5s29.333 -15.833 45 -22.5s33.167 -10 52.5 -10zM304 186
c23.333 0 43.832 5.00098 61.499 15.001s34.5 24 50.5 42v115c-18 -24 -35.667 -43.167 -53 -57.5s-34.666 -21.5 -51.999 -21.5c-13.333 0 -26.833 3.16699 -40.5 9.5s-28 13.5 -43 21.5s-30.833 15.167 -47.5 21.5s-34.334 9.5 -53.001 9.5
c-45.333 0 -82.666 -18 -111.999 -54v-109c20.667 23.333 38.667 41.166 54 53.499s32.666 18.5 51.999 18.5c15.333 0 30 -3.33301 44 -10s28.167 -14 42.5 -22s29.333 -15.333 45 -22s32.834 -10 51.501 -10z" />
    <glyph glyph-name="Delta" unicode="&#xe00d;" horiz-adv-x="644" 
d="M530 197l85 399l-326 69l124 -190l72 59l71 -16l-200 -159l45 -134zM257 348l140 114l-135 209l-106 23l-49 -231l106 -23l31 146l60 -14zM483 -24l43 202l-118 24l54 -164l-77 16l-75 237l-57 -266zM235 29l58 277l-53 -43l-36 -170l-62 13l67 315l-106 22l-79 -369z
" />
    <glyph glyph-name="nonbreakingspace" unicode="&#xe00e;" horiz-adv-x="218" 
 />
    <glyph glyph-name="lozenge" unicode="&#xe00f;" horiz-adv-x="387" 
d="M214 -8l165 354l-166 356h-50l-154 -355l154 -355h51zM189 625l128 -279l-128 -278l-121 277z" />
    <glyph glyph-name="apple" unicode="&#xe010;" horiz-adv-x="644" 
d="M456 59l-44 133l69 -14zM498 -152l172 813l-524 111l-173 -813l84 -19l102 483l54 -11l-67 -315l62 -13l36 170l52 42l-82 -390l18 -6l81 381l75 -236l62 -12l-36 -168zM551 503l-65 -305l-81 17l-45 134zM553 512l-64 13l-73 -59l-123 189l278 -58zM266 661l135 -208
l-141 -115l47 225l-60 14l-31 -145l-53 11l49 229z" />
    </font>
</defs>
</svg>
